<svg id="svg" version="1.1" width="400" height="76.80000000000001" viewBox="0 0 400 76.80000000000001" xmlns="http://www.w3.org/2000/svg" xmlns:xlink="http://www.w3.org/1999/xlink" ><g id="svgg"><path id="path0" d="M15.000 0.110 C 13.874 0.256,11.090 0.856,10.921 0.989 C 10.827 1.063,10.450 1.218,10.083 1.333 C 7.377 2.185,2.500 6.415,2.500 7.911 C 2.500 7.979,2.317 8.400,2.092 8.846 C 1.547 9.932,1.088 12.111,1.237 12.905 C 1.377 13.654,2.034 14.000,3.314 14.000 C 3.768 14.000,4.164 14.061,4.194 14.135 C 4.303 14.397,10.278 14.851,10.757 14.633 C 11.212 14.426,11.663 13.728,11.672 13.217 C 11.695 11.871,14.120 9.167,15.303 9.167 C 15.396 9.167,15.503 9.073,15.542 8.958 C 15.592 8.807,16.153 8.751,17.597 8.754 C 20.997 8.762,22.833 10.404,22.833 13.436 C 22.833 13.826,22.902 14.326,22.986 14.548 C 23.289 15.344,23.008 17.000,22.570 17.000 C 22.359 17.000,22.147 17.064,22.099 17.142 C 22.051 17.220,21.277 17.334,20.381 17.395 C 18.060 17.554,14.476 17.987,14.083 18.155 C 13.900 18.233,12.925 18.462,11.917 18.663 C 10.909 18.864,10.009 19.084,9.917 19.153 C 9.825 19.221,9.266 19.449,8.676 19.659 C 8.085 19.870,7.498 20.145,7.372 20.271 C 7.246 20.397,7.054 20.500,6.946 20.500 C 5.852 20.503,2.326 24.045,1.390 26.083 C 1.221 26.450,1.028 26.791,0.960 26.842 C 0.208 27.403,-0.282 33.950,0.225 36.641 C 0.821 39.802,2.960 42.804,5.430 43.947 C 5.789 44.114,6.176 44.337,6.289 44.443 C 6.402 44.550,7.077 44.764,7.789 44.919 C 8.501 45.074,9.214 45.268,9.373 45.350 C 9.746 45.543,14.580 45.546,14.961 45.354 C 15.120 45.273,15.898 45.085,16.691 44.936 C 18.140 44.664,20.453 43.683,20.717 43.230 C 20.790 43.103,20.948 43.000,21.068 43.000 C 21.304 43.000,24.166 40.612,24.383 40.232 C 24.606 39.843,24.811 39.965,25.324 40.792 C 26.170 42.154,28.373 44.587,29.114 44.976 C 29.957 45.418,30.996 45.176,31.917 44.322 C 33.278 43.059,34.411 42.058,34.733 41.833 C 34.931 41.696,35.289 41.396,35.529 41.167 C 35.770 40.938,36.310 40.450,36.728 40.083 C 37.945 39.019,38.121 37.807,37.199 36.857 C 36.718 36.362,35.698 34.783,35.407 34.083 C 35.254 33.717,35.072 33.379,35.002 33.333 C 34.594 33.065,34.500 31.055,34.497 22.533 C 34.495 13.969,34.350 10.008,34.016 9.376 C 33.931 9.215,33.733 8.573,33.577 7.949 C 33.420 7.326,33.200 6.724,33.088 6.612 C 32.976 6.500,32.759 6.144,32.606 5.821 C 32.241 5.052,30.285 3.088,29.333 2.535 C 28.921 2.295,28.545 2.046,28.498 1.980 C 28.452 1.914,28.002 1.703,27.498 1.512 C 26.995 1.321,26.448 1.086,26.282 0.991 C 25.110 0.319,17.790 -0.253,15.000 0.110 M61.500 0.106 C 58.367 0.699,55.897 2.627,54.375 5.667 L 53.917 6.583 53.833 4.027 C 53.750 1.477,53.749 1.470,53.282 1.069 L 52.815 0.667 48.500 0.667 L 44.185 0.667 43.718 1.069 L 43.250 1.471 43.250 22.565 L 43.250 43.659 43.712 44.121 L 44.174 44.583 48.724 44.583 C 52.742 44.583,53.306 44.551,53.551 44.307 C 53.703 44.154,53.922 43.998,54.039 43.959 C 54.206 43.904,54.270 40.997,54.346 29.986 C 54.441 16.267,54.544 13.833,55.025 13.833 C 55.103 13.833,55.167 13.745,55.167 13.636 C 55.167 13.527,55.324 13.113,55.517 12.715 C 57.305 9.021,63.033 9.746,63.758 13.758 C 63.823 14.120,63.961 14.522,64.063 14.650 C 64.196 14.817,64.274 19.046,64.333 29.368 L 64.417 43.853 64.833 44.173 C 65.747 44.875,73.864 44.893,74.754 44.195 C 75.489 43.620,75.465 44.083,75.487 29.833 C 75.498 22.512,75.577 16.099,75.664 15.500 C 76.199 11.822,79.466 9.585,82.683 10.695 C 83.242 10.888,84.500 11.936,84.500 12.209 C 84.500 12.286,84.669 12.665,84.875 13.050 L 85.250 13.750 85.333 28.707 L 85.417 43.664 85.913 44.124 L 86.409 44.583 90.938 44.583 L 95.468 44.583 95.984 44.043 L 96.500 43.503 96.497 26.877 C 96.494 11.101,96.428 8.481,96.012 7.583 C 95.927 7.400,95.733 6.855,95.581 6.373 C 95.429 5.890,95.218 5.401,95.111 5.286 C 95.004 5.171,94.776 4.816,94.605 4.497 C 92.783 1.108,87.011 -0.846,82.057 0.248 C 79.038 0.915,76.587 2.779,74.984 5.626 C 74.688 6.153,74.424 6.611,74.397 6.645 C 74.293 6.778,73.896 6.208,73.513 5.375 C 73.291 4.894,73.053 4.500,72.983 4.500 C 72.913 4.500,72.803 4.334,72.739 4.132 C 72.594 3.675,70.236 1.333,69.921 1.333 C 69.794 1.333,69.575 1.217,69.433 1.076 C 68.658 0.301,63.682 -0.308,61.500 0.106 M117.750 0.184 C 116.255 0.399,114.167 0.867,114.167 0.988 C 114.167 1.046,113.810 1.196,113.375 1.321 C 110.958 2.013,107.662 4.547,106.446 6.649 C 106.255 6.980,106.049 7.287,105.989 7.333 C 105.825 7.459,105.167 9.010,105.167 9.271 C 105.167 9.397,105.104 9.500,105.027 9.500 C 104.842 9.500,104.333 11.634,104.333 12.410 C 104.333 13.530,104.933 14.000,106.360 14.000 C 106.715 14.000,107.135 14.069,107.294 14.154 C 107.453 14.238,108.923 14.426,110.561 14.570 C 114.065 14.880,114.269 14.835,114.681 13.666 C 115.387 11.663,115.621 11.211,116.331 10.481 C 116.912 9.883,118.063 9.167,118.442 9.167 C 118.550 9.167,118.670 9.073,118.708 8.958 C 118.800 8.682,122.954 8.660,123.131 8.935 C 123.196 9.037,123.513 9.250,123.833 9.409 C 124.668 9.822,125.436 10.755,125.676 11.647 C 125.789 12.070,125.946 12.488,126.025 12.575 C 126.103 12.662,126.167 13.693,126.167 14.867 L 126.167 17.000 125.760 17.000 C 125.536 17.000,125.314 17.064,125.265 17.142 C 125.217 17.220,124.444 17.334,123.547 17.395 C 121.227 17.554,117.643 17.987,117.250 18.155 C 117.067 18.233,116.092 18.462,115.085 18.662 C 114.077 18.863,113.215 19.081,113.168 19.147 C 113.121 19.213,112.753 19.363,112.349 19.481 C 109.990 20.171,106.392 22.853,105.401 24.662 C 105.226 24.980,104.958 25.381,104.805 25.554 C 104.652 25.726,104.429 26.197,104.310 26.600 C 104.191 27.004,104.043 27.333,103.982 27.333 C 103.705 27.333,102.983 31.306,102.967 32.917 C 102.940 35.602,103.963 39.433,105.067 40.783 C 105.202 40.948,105.586 41.421,105.920 41.833 C 107.030 43.203,109.245 44.543,111.059 44.941 C 111.714 45.085,112.380 45.269,112.539 45.351 C 112.910 45.542,117.951 45.547,118.069 45.357 C 118.117 45.278,118.588 45.163,119.114 45.101 C 120.265 44.966,121.833 44.528,121.833 44.342 C 121.833 44.269,122.040 44.167,122.293 44.116 C 123.110 43.953,127.129 40.991,127.547 40.243 C 127.724 39.928,128.127 39.930,128.196 40.247 C 128.293 40.689,129.560 42.352,130.660 43.480 C 133.090 45.972,133.520 45.893,137.456 42.235 C 137.644 42.060,138.147 41.617,138.573 41.250 C 141.008 39.153,141.371 38.397,140.541 37.145 C 140.381 36.904,139.868 36.154,139.400 35.478 C 138.933 34.803,138.454 33.950,138.337 33.583 C 138.219 33.217,138.039 32.811,137.937 32.683 C 137.806 32.519,137.720 29.282,137.650 21.850 C 137.552 11.574,137.405 8.667,136.980 8.667 C 136.899 8.667,136.833 8.534,136.833 8.373 C 136.833 7.998,136.218 6.305,136.036 6.179 C 135.961 6.126,135.722 5.793,135.506 5.437 C 134.838 4.339,132.407 2.167,131.845 2.167 C 131.747 2.167,131.667 2.102,131.667 2.023 C 131.667 1.943,131.310 1.751,130.875 1.595 C 130.440 1.438,129.777 1.167,129.402 0.990 C 127.630 0.158,121.090 -0.295,117.750 0.184 M194.917 0.109 C 192.741 0.451,189.716 1.683,188.335 2.790 C 186.972 3.882,184.611 6.408,184.286 7.121 C 184.191 7.329,184.063 7.500,184.002 7.500 C 183.940 7.500,183.710 7.894,183.489 8.375 C 183.268 8.856,183.029 9.292,182.958 9.344 C 182.888 9.396,182.686 9.846,182.511 10.344 C 182.335 10.842,182.075 11.475,181.931 11.750 C 181.788 12.025,181.548 12.813,181.397 13.500 C 181.247 14.188,181.061 14.829,180.985 14.926 C 180.107 16.040,180.117 28.503,180.998 30.140 C 181.080 30.292,181.273 30.979,181.426 31.667 C 181.580 32.354,181.839 33.217,182.001 33.583 C 182.164 33.950,182.435 34.587,182.604 35.000 C 182.773 35.412,183.006 35.849,183.122 35.970 C 183.238 36.091,183.333 36.274,183.333 36.375 C 183.333 36.546,184.478 38.425,184.932 39.000 C 185.856 40.171,188.332 42.446,189.323 43.036 C 190.061 43.475,190.523 43.707,191.917 44.335 C 192.686 44.683,194.894 45.167,195.710 45.167 C 196.016 45.167,196.347 45.247,196.446 45.346 C 197.200 46.100,205.479 44.403,206.333 43.319 C 206.379 43.261,206.679 43.081,207.000 42.919 C 207.321 42.757,207.717 42.503,207.879 42.354 C 208.042 42.205,208.606 41.708,209.132 41.250 C 210.238 40.286,211.725 38.617,211.804 38.251 C 211.834 38.113,211.928 38.000,212.014 38.000 C 212.101 38.000,212.335 37.663,212.535 37.250 C 212.736 36.837,212.951 36.500,213.014 36.500 C 213.077 36.500,213.301 36.069,213.512 35.542 C 213.723 35.015,213.949 34.546,214.014 34.500 C 214.151 34.403,214.833 32.379,214.833 32.070 C 214.833 31.955,214.904 31.836,214.989 31.806 C 215.164 31.743,215.833 28.632,215.833 27.882 C 215.833 27.617,215.927 27.306,216.042 27.192 C 216.197 27.036,216.250 25.907,216.250 22.714 C 216.250 19.446,216.201 18.428,216.042 18.375 C 215.927 18.337,215.834 18.068,215.835 17.778 C 215.837 16.956,215.148 13.500,214.982 13.500 C 214.900 13.500,214.833 13.365,214.833 13.199 C 214.833 12.828,214.158 10.781,213.998 10.667 C 213.934 10.621,213.791 10.306,213.681 9.967 C 213.570 9.627,213.297 9.080,213.073 8.751 C 212.850 8.421,212.667 8.118,212.667 8.078 C 212.667 7.937,211.213 5.879,210.875 5.542 C 210.689 5.356,210.473 5.098,210.394 4.968 C 210.156 4.576,207.664 2.527,207.148 2.298 C 206.883 2.181,206.667 2.037,206.667 1.979 C 206.667 1.920,206.235 1.701,205.708 1.492 C 205.181 1.283,204.654 1.039,204.537 0.949 C 203.716 0.317,197.208 -0.250,194.917 0.109 M239.333 0.344 C 238.646 0.523,237.880 0.819,237.632 1.002 C 237.383 1.184,237.106 1.333,237.015 1.333 C 236.496 1.333,234.170 3.963,233.477 5.333 C 233.268 5.746,233.010 6.196,232.904 6.333 C 232.797 6.471,232.631 6.808,232.535 7.083 C 232.400 7.469,232.357 6.889,232.346 4.548 L 232.333 1.513 231.877 1.090 L 231.420 0.667 227.075 0.667 L 222.729 0.667 222.240 1.178 L 221.750 1.689 221.750 22.591 L 221.750 43.494 222.295 44.038 L 222.839 44.583 226.878 44.635 C 231.419 44.692,231.783 44.656,232.396 44.088 L 232.833 43.683 232.833 31.434 C 232.833 24.698,232.897 19.147,232.975 19.099 C 233.053 19.051,233.161 18.372,233.217 17.591 C 233.315 16.194,233.769 13.997,233.992 13.833 C 234.055 13.787,234.276 13.395,234.483 12.962 C 236.347 9.062,241.861 9.533,242.747 13.667 C 242.816 13.988,242.957 14.355,243.061 14.484 C 243.197 14.652,243.273 18.769,243.333 29.234 C 243.415 43.408,243.444 44.167,243.913 44.167 C 244.037 44.167,244.170 44.260,244.208 44.375 C 244.262 44.535,245.345 44.583,248.873 44.583 L 253.468 44.583 253.984 44.043 L 254.500 43.503 254.499 28.710 C 254.499 14.947,254.363 9.408,254.022 9.170 C 253.953 9.122,253.805 8.571,253.692 7.945 C 253.240 5.439,251.078 2.310,249.167 1.396 C 248.846 1.243,248.546 1.071,248.500 1.014 C 247.748 0.077,241.976 -0.345,239.333 0.344 M294.083 0.109 C 293.072 0.265,290.770 0.845,290.596 0.988 C 290.497 1.070,289.972 1.292,289.428 1.483 C 288.884 1.674,288.396 1.888,288.344 1.958 C 288.292 2.029,287.856 2.268,287.375 2.489 C 286.894 2.710,286.500 2.939,286.500 2.998 C 286.500 3.057,286.235 3.231,285.912 3.386 C 285.588 3.540,285.280 3.779,285.227 3.916 C 285.174 4.054,285.059 4.167,284.971 4.167 C 284.883 4.167,284.552 4.365,284.234 4.607 C 283.533 5.141,283.594 5.219,283.376 3.504 C 283.216 2.244,283.141 2.042,282.679 1.629 L 282.161 1.167 279.372 1.172 C 276.797 1.177,276.551 1.204,276.167 1.524 L 275.750 1.871 275.707 30.661 L 275.664 59.451 276.011 59.892 C 276.201 60.135,276.498 60.333,276.669 60.333 C 276.840 60.333,277.027 60.408,277.083 60.500 C 277.275 60.810,282.527 60.711,283.183 60.385 C 284.327 59.816,284.245 60.597,284.296 49.804 C 284.321 44.412,284.376 40.000,284.419 40.000 C 284.509 40.000,285.963 41.059,286.333 41.394 C 286.471 41.519,286.883 41.756,287.250 41.922 C 287.617 42.087,288.029 42.312,288.167 42.420 C 288.304 42.529,288.829 42.760,289.333 42.933 C 289.837 43.106,290.287 43.293,290.333 43.348 C 291.133 44.318,298.016 44.610,301.417 43.818 C 302.709 43.518,305.623 42.174,306.578 41.439 C 308.778 39.745,310.548 37.742,311.530 35.833 C 311.743 35.421,311.973 35.041,312.043 34.989 C 312.113 34.937,312.314 34.487,312.489 33.989 C 312.665 33.491,312.925 32.858,313.069 32.583 C 313.212 32.308,313.453 31.521,313.605 30.833 C 313.757 30.146,313.942 29.543,314.017 29.495 C 314.211 29.367,314.628 25.954,314.758 23.417 C 314.914 20.375,314.486 14.984,314.003 13.917 C 313.920 13.733,313.698 12.950,313.510 12.176 C 313.321 11.403,313.106 10.728,313.031 10.676 C 312.957 10.625,312.722 10.113,312.509 9.538 C 312.297 8.963,312.060 8.454,311.984 8.407 C 311.907 8.359,311.673 7.948,311.465 7.493 C 311.256 7.039,311.031 6.667,310.964 6.667 C 310.897 6.667,310.734 6.459,310.603 6.205 C 310.172 5.372,307.817 3.104,306.536 2.288 C 303.623 0.433,298.168 -0.521,294.083 0.109 M334.333 0.111 C 332.805 0.256,329.333 0.830,329.047 0.984 C 328.883 1.072,328.230 1.266,327.596 1.415 C 326.961 1.563,326.136 1.818,325.762 1.980 C 325.389 2.142,324.777 2.406,324.404 2.566 C 323.307 3.037,323.167 3.440,323.167 6.117 C 323.167 7.696,323.230 8.497,323.367 8.633 C 323.776 9.043,326.012 8.726,328.436 7.915 C 328.814 7.789,330.051 7.562,331.186 7.410 C 332.321 7.259,333.415 7.057,333.618 6.960 C 334.145 6.709,340.336 6.695,340.849 6.944 C 341.070 7.051,341.625 7.225,342.083 7.330 C 343.702 7.703,345.258 8.992,345.683 10.316 C 345.790 10.646,345.938 10.994,346.012 11.089 C 346.337 11.502,346.763 19.851,346.458 19.831 C 346.435 19.829,345.629 19.674,344.667 19.485 C 340.998 18.768,339.904 18.650,336.667 18.629 C 333.633 18.608,331.008 18.837,330.583 19.159 C 330.492 19.228,330.042 19.376,329.583 19.487 C 326.288 20.284,322.203 23.732,321.325 26.458 C 321.214 26.802,321.056 27.169,320.974 27.273 C 320.124 28.348,320.127 34.941,320.978 36.902 C 321.141 37.277,321.412 37.902,321.579 38.292 C 321.747 38.681,321.948 39.000,322.025 39.000 C 322.103 39.000,322.167 39.112,322.167 39.249 C 322.167 39.468,324.324 41.752,325.037 42.286 C 326.148 43.119,328.876 44.167,329.936 44.167 C 330.118 44.167,330.350 44.250,330.453 44.353 C 330.690 44.590,335.642 44.608,336.096 44.373 C 336.272 44.282,337.079 44.083,337.888 43.930 C 338.698 43.778,339.634 43.506,339.969 43.327 C 340.304 43.147,340.671 43.000,340.784 43.000 C 341.061 43.000,342.197 42.467,342.470 42.208 C 342.591 42.094,342.789 42.000,342.910 42.000 C 343.031 42.000,343.494 41.755,343.940 41.456 C 344.385 41.156,344.956 40.806,345.208 40.678 C 345.460 40.549,345.667 40.389,345.667 40.322 C 345.667 40.255,345.929 40.045,346.250 39.855 L 346.833 39.511 346.833 39.996 C 346.833 40.262,346.898 40.520,346.977 40.569 C 347.055 40.617,347.170 41.087,347.232 41.613 C 347.344 42.566,347.683 43.167,348.109 43.167 C 348.232 43.167,348.333 43.242,348.333 43.333 C 348.333 43.932,353.954 43.436,354.356 42.803 C 354.804 42.096,354.466 8.333,354.011 8.333 C 353.948 8.333,353.800 7.940,353.683 7.458 C 353.107 5.104,350.664 2.390,348.240 1.411 C 347.879 1.265,347.358 1.044,347.083 0.920 C 345.566 0.235,338.048 -0.242,334.333 0.111 M147.833 0.620 C 147.696 0.674,147.396 0.912,147.167 1.150 L 146.750 1.583 146.750 5.153 C 146.750 7.860,146.800 8.739,146.958 8.792 C 147.073 8.830,147.167 8.965,147.167 9.091 C 147.167 9.615,147.832 9.667,154.650 9.667 C 162.138 9.667,161.822 9.621,160.998 10.583 C 160.842 10.767,160.366 11.442,159.941 12.083 C 159.516 12.725,159.089 13.345,158.992 13.461 C 158.564 13.972,157.333 15.851,157.333 15.993 C 157.333 16.080,157.237 16.210,157.118 16.283 C 157.000 16.357,156.499 17.017,156.004 17.750 C 155.510 18.483,154.913 19.356,154.678 19.689 C 154.442 20.022,154.137 20.463,154.000 20.670 C 153.862 20.876,153.431 21.485,153.042 22.023 C 152.652 22.561,152.333 23.063,152.333 23.138 C 152.333 23.214,152.146 23.451,151.917 23.667 C 151.688 23.882,151.500 24.139,151.500 24.237 C 151.499 24.336,151.281 24.672,151.014 24.985 C 150.746 25.297,150.428 25.747,150.306 25.985 C 150.183 26.222,150.006 26.492,149.911 26.583 C 149.816 26.675,149.366 27.313,148.911 28.000 C 148.456 28.688,148.038 29.287,147.983 29.333 C 147.928 29.379,147.685 29.717,147.442 30.083 C 147.200 30.450,146.818 31.012,146.594 31.333 C 146.369 31.654,146.182 32.010,146.176 32.125 C 146.171 32.240,146.101 32.333,146.022 32.333 C 145.588 32.333,145.417 34.016,145.417 38.290 L 145.417 42.663 145.868 43.082 C 146.456 43.627,147.015 43.608,148.250 43.000 C 148.800 42.729,149.344 42.506,149.458 42.504 C 149.573 42.502,149.667 42.438,149.667 42.363 C 149.667 42.287,150.248 42.046,150.958 41.826 C 151.669 41.607,152.287 41.382,152.333 41.325 C 152.441 41.193,155.724 40.500,156.242 40.500 C 156.460 40.500,156.670 40.406,156.708 40.292 C 156.804 40.004,164.764 39.992,165.350 40.279 C 165.570 40.387,166.500 40.602,167.417 40.757 C 168.333 40.912,169.383 41.167,169.750 41.325 C 170.117 41.483,170.885 41.748,171.458 41.916 C 172.031 42.083,172.500 42.283,172.500 42.360 C 172.500 42.437,172.575 42.500,172.666 42.500 C 172.758 42.500,173.309 42.725,173.891 43.000 C 174.945 43.498,175.833 43.650,175.833 43.333 C 175.833 43.242,175.943 43.167,176.077 43.167 C 176.612 43.167,176.683 42.539,176.633 38.317 L 176.583 34.142 176.000 33.645 C 175.303 33.052,172.749 31.810,171.583 31.498 C 171.125 31.375,170.713 31.226,170.667 31.167 C 170.545 31.009,168.094 30.514,166.833 30.392 C 166.237 30.335,165.675 30.233,165.583 30.166 C 165.492 30.100,164.489 30.001,163.354 29.946 C 160.836 29.826,160.926 29.924,161.971 28.428 C 162.445 27.748,162.833 27.111,162.833 27.013 C 162.833 26.914,162.904 26.833,162.989 26.833 C 163.075 26.833,163.314 26.533,163.520 26.167 C 163.726 25.800,163.939 25.500,163.993 25.500 C 164.046 25.500,164.275 25.162,164.500 24.750 C 164.725 24.337,164.966 24.000,165.035 24.000 C 165.104 24.000,165.309 23.707,165.492 23.349 C 165.675 22.990,165.883 22.672,165.954 22.640 C 166.025 22.609,166.477 21.983,166.957 21.250 C 167.438 20.517,167.932 19.804,168.056 19.667 C 168.179 19.529,168.421 19.173,168.593 18.875 C 168.765 18.577,168.947 18.333,168.998 18.333 C 169.049 18.333,169.275 17.996,169.500 17.583 C 169.725 17.171,169.966 16.833,170.034 16.833 C 170.102 16.833,170.273 16.612,170.413 16.340 C 170.553 16.069,171.024 15.349,171.459 14.740 C 171.894 14.131,172.378 13.419,172.534 13.157 C 172.690 12.896,172.960 12.540,173.134 12.366 C 173.308 12.192,173.554 11.814,173.682 11.525 C 173.810 11.236,173.965 11.000,174.027 11.000 C 174.089 11.000,174.310 10.719,174.519 10.375 C 174.728 10.031,174.949 9.712,175.010 9.667 C 175.231 9.501,175.833 8.172,175.833 7.850 C 175.833 7.668,175.908 7.473,176.000 7.417 C 176.100 7.355,176.167 6.248,176.167 4.657 C 176.167 2.997,176.104 2.000,176.000 2.000 C 175.908 2.000,175.832 1.869,175.830 1.708 C 175.828 1.548,175.682 1.229,175.506 1.000 L 175.186 0.583 161.635 0.553 C 154.181 0.537,147.971 0.567,147.833 0.620 M359.974 1.279 C 359.446 1.419,359.407 2.934,359.910 3.750 C 360.023 3.933,360.288 4.608,360.499 5.250 C 360.710 5.892,360.936 6.454,361.000 6.500 C 361.065 6.546,361.250 6.996,361.411 7.500 C 361.572 8.004,361.797 8.567,361.910 8.750 C 362.023 8.933,362.248 9.496,362.410 10.000 C 362.572 10.504,362.797 11.067,362.910 11.250 C 363.023 11.433,363.248 11.996,363.410 12.500 C 363.572 13.004,363.797 13.567,363.910 13.750 C 364.023 13.933,364.213 14.383,364.332 14.750 C 364.451 15.117,364.718 15.792,364.925 16.250 C 365.132 16.708,365.430 17.477,365.587 17.958 C 365.744 18.440,365.922 18.833,365.983 18.833 C 366.044 18.833,366.196 19.190,366.321 19.625 C 366.446 20.060,366.692 20.717,366.867 21.083 C 367.043 21.450,367.343 22.200,367.535 22.750 C 367.726 23.300,367.928 23.787,367.984 23.833 C 368.040 23.879,368.226 24.329,368.398 24.833 C 368.569 25.337,368.801 25.900,368.912 26.083 C 369.024 26.267,369.248 26.829,369.410 27.333 C 369.572 27.837,369.797 28.400,369.910 28.583 C 370.023 28.767,370.272 29.367,370.464 29.917 C 370.656 30.467,370.968 31.232,371.157 31.617 C 371.345 32.002,371.500 32.404,371.500 32.509 C 371.500 32.615,371.673 33.050,371.885 33.476 C 372.096 33.902,372.403 34.681,372.567 35.208 C 372.730 35.735,372.916 36.167,372.979 36.167 C 373.042 36.167,373.196 36.523,373.321 36.958 C 373.446 37.394,373.692 38.050,373.867 38.417 C 374.043 38.783,374.343 39.533,374.535 40.083 C 374.726 40.633,374.930 41.121,374.987 41.167 C 375.044 41.212,375.282 41.803,375.515 42.479 L 375.940 43.709 375.546 44.896 C 375.329 45.549,375.052 46.308,374.929 46.583 C 374.807 46.858,374.575 47.496,374.415 48.000 C 374.254 48.504,374.057 49.000,373.978 49.101 C 373.898 49.202,373.739 49.540,373.625 49.851 C 372.950 51.687,371.282 53.607,370.000 54.025 C 369.679 54.129,369.363 54.298,369.297 54.399 C 369.216 54.524,368.072 54.583,365.762 54.583 C 361.466 54.583,361.750 54.391,361.750 57.311 C 361.750 60.807,361.986 60.962,368.309 61.608 C 368.855 61.664,369.271 61.629,369.384 61.516 C 369.484 61.416,369.915 61.333,370.340 61.333 C 371.148 61.333,373.665 60.757,373.824 60.535 C 373.875 60.465,374.253 60.260,374.664 60.079 C 375.539 59.694,378.335 56.967,378.660 56.182 C 378.778 55.898,378.930 55.667,379.000 55.667 C 379.069 55.667,379.289 55.310,379.489 54.875 C 379.689 54.440,379.960 53.896,380.090 53.667 C 380.532 52.892,381.446 50.755,381.677 49.958 C 381.803 49.523,381.952 49.167,382.007 49.167 C 382.063 49.167,382.284 48.604,382.500 47.917 C 382.716 47.229,382.941 46.667,383.000 46.667 C 383.059 46.667,383.287 46.085,383.507 45.375 C 383.726 44.665,383.963 44.043,384.032 43.993 C 384.102 43.943,384.311 43.425,384.497 42.841 C 384.684 42.258,384.901 41.699,384.979 41.599 C 385.058 41.499,385.293 40.892,385.503 40.250 C 385.712 39.608,385.936 39.046,386.000 39.000 C 386.064 38.954,386.288 38.392,386.497 37.750 C 386.707 37.108,386.931 36.508,386.997 36.417 C 387.062 36.325,387.295 35.725,387.513 35.083 C 387.732 34.442,387.958 33.879,388.017 33.833 C 388.076 33.787,388.301 33.188,388.518 32.500 C 388.734 31.813,388.967 31.209,389.035 31.159 C 389.103 31.109,389.311 30.591,389.497 30.008 C 389.684 29.425,389.901 28.865,389.979 28.765 C 390.058 28.665,390.293 28.058,390.503 27.417 C 390.712 26.775,390.936 26.212,391.000 26.167 C 391.064 26.121,391.289 25.558,391.500 24.917 C 391.711 24.275,391.931 23.712,391.989 23.667 C 392.047 23.621,392.277 23.021,392.500 22.333 C 392.723 21.646,392.953 21.046,393.011 21.000 C 393.069 20.954,393.289 20.392,393.500 19.750 C 393.711 19.108,393.936 18.546,394.000 18.500 C 394.064 18.454,394.288 17.892,394.497 17.250 C 394.707 16.608,394.942 16.001,395.021 15.901 C 395.099 15.801,395.315 15.246,395.500 14.667 C 395.685 14.088,395.901 13.532,395.979 13.432 C 396.058 13.332,396.293 12.725,396.503 12.083 C 396.712 11.442,396.936 10.879,397.000 10.833 C 397.065 10.787,397.251 10.337,397.413 9.833 C 397.576 9.329,397.873 8.542,398.073 8.083 C 398.273 7.625,398.542 6.912,398.670 6.500 C 398.798 6.087,398.953 5.712,399.015 5.667 C 399.236 5.504,400.000 2.806,400.000 2.191 C 400.000 1.178,399.957 1.167,396.201 1.167 C 392.329 1.167,392.068 1.236,391.566 2.404 C 391.406 2.777,391.144 3.383,390.986 3.750 C 390.827 4.117,390.571 4.904,390.417 5.500 C 390.262 6.095,390.084 6.620,390.021 6.666 C 389.958 6.712,389.725 7.350,389.505 8.083 C 389.284 8.817,389.051 9.492,388.986 9.583 C 388.921 9.675,388.702 10.313,388.500 11.000 C 388.298 11.688,388.072 12.325,387.998 12.417 C 387.924 12.508,387.693 13.183,387.483 13.917 C 387.273 14.650,387.050 15.287,386.987 15.333 C 386.924 15.379,386.705 16.017,386.501 16.750 C 386.298 17.483,386.071 18.158,385.998 18.250 C 385.925 18.342,385.698 18.979,385.493 19.667 C 385.288 20.354,385.066 20.992,385.000 21.083 C 384.934 21.175,384.712 21.813,384.507 22.500 C 384.302 23.188,384.075 23.825,384.002 23.917 C 383.929 24.008,383.703 24.683,383.500 25.417 C 383.297 26.150,383.071 26.825,382.998 26.917 C 382.925 27.008,382.698 27.646,382.493 28.333 C 382.288 29.021,382.063 29.658,381.992 29.750 C 381.922 29.842,381.693 30.517,381.483 31.250 C 381.273 31.983,381.056 32.621,381.001 32.667 C 380.946 32.712,380.763 33.214,380.594 33.781 C 380.319 34.704,379.833 34.988,379.833 34.225 C 379.833 33.994,379.108 31.754,379.005 31.667 C 378.950 31.621,378.723 30.983,378.500 30.250 C 378.277 29.517,378.047 28.879,377.990 28.833 C 377.932 28.787,377.716 28.188,377.510 27.500 C 377.303 26.813,377.076 26.175,377.006 26.083 C 376.935 25.992,376.706 25.354,376.498 24.667 C 376.289 23.979,376.070 23.379,376.012 23.333 C 375.954 23.287,375.723 22.650,375.500 21.917 C 375.277 21.183,375.052 20.546,375.000 20.500 C 374.948 20.454,374.723 19.817,374.500 19.083 C 374.277 18.350,374.046 17.712,373.988 17.667 C 373.930 17.621,373.711 17.021,373.502 16.333 C 373.294 15.646,373.065 15.008,372.994 14.917 C 372.924 14.825,372.697 14.188,372.490 13.500 C 372.284 12.813,372.066 12.213,372.006 12.167 C 371.946 12.121,371.722 11.483,371.508 10.750 C 371.295 10.017,371.072 9.379,371.014 9.333 C 370.955 9.287,370.770 8.800,370.602 8.250 C 370.434 7.700,370.162 6.950,369.998 6.583 C 369.834 6.217,369.610 5.579,369.500 5.167 C 369.390 4.754,369.171 4.117,369.013 3.750 C 368.855 3.383,368.594 2.777,368.434 2.404 C 367.929 1.228,367.682 1.164,363.724 1.186 C 361.813 1.197,360.126 1.238,359.974 1.279 M297.294 6.981 C 297.453 7.062,298.182 7.292,298.915 7.493 C 299.647 7.694,300.284 7.918,300.331 7.989 C 300.378 8.061,300.646 8.238,300.927 8.381 C 301.541 8.696,303.591 10.833,303.746 11.320 C 303.806 11.511,303.920 11.667,303.998 11.667 C 304.076 11.667,304.267 12.060,304.422 12.542 C 304.577 13.023,304.800 13.569,304.916 13.756 C 305.181 14.182,305.635 16.346,305.775 17.861 C 305.834 18.493,305.946 19.050,306.024 19.098 C 306.210 19.213,306.210 24.953,306.025 25.068 C 305.947 25.116,305.834 25.702,305.775 26.369 C 305.642 27.862,305.250 29.748,304.934 30.417 C 304.804 30.692,304.561 31.254,304.393 31.667 C 304.226 32.079,303.992 32.518,303.874 32.641 C 303.756 32.764,303.554 33.064,303.425 33.307 C 302.404 35.244,298.915 37.155,296.385 37.164 C 296.001 37.166,295.636 37.249,295.573 37.349 C 295.505 37.460,295.223 37.491,294.855 37.429 C 294.522 37.372,293.725 37.256,293.083 37.170 C 291.484 36.958,289.500 36.481,289.500 36.308 C 289.500 36.230,289.406 36.167,289.292 36.167 C 288.938 36.168,286.935 35.273,286.594 34.961 C 286.416 34.799,286.186 34.667,286.083 34.667 C 285.980 34.667,285.751 34.535,285.573 34.374 C 285.395 34.213,285.044 33.948,284.792 33.786 L 284.333 33.492 284.333 22.033 L 284.333 10.574 284.691 10.268 C 284.887 10.100,285.394 9.781,285.816 9.560 C 286.238 9.338,286.696 9.086,286.833 8.998 C 287.681 8.458,289.788 7.659,291.000 7.418 C 291.779 7.263,292.529 7.073,292.667 6.995 C 293.000 6.805,296.926 6.794,297.294 6.981 M199.658 8.680 C 200.121 8.780,200.500 8.913,200.500 8.976 C 200.500 9.039,200.770 9.236,201.099 9.414 C 201.743 9.761,202.578 10.839,202.758 11.558 C 202.820 11.801,202.928 12.000,203.000 12.000 C 203.142 12.000,203.837 15.480,203.835 16.175 C 203.834 16.409,203.927 16.694,204.042 16.808 C 204.321 17.087,204.343 28.081,204.066 28.683 C 203.964 28.903,203.725 29.901,203.533 30.901 C 203.342 31.901,203.123 32.763,203.046 32.818 C 202.970 32.872,202.770 33.229,202.601 33.611 C 201.521 36.061,198.254 37.369,196.245 36.156 C 195.058 35.439,194.167 34.517,194.167 34.007 C 194.167 33.911,194.098 33.833,194.014 33.833 C 193.930 33.833,193.701 33.290,193.505 32.625 C 193.309 31.960,193.079 31.288,192.994 31.131 C 192.021 29.346,192.017 15.499,192.987 13.417 C 193.073 13.233,193.268 12.687,193.420 12.203 C 193.572 11.719,193.878 11.108,194.098 10.846 C 194.319 10.583,194.500 10.288,194.500 10.189 C 194.500 9.227,197.760 8.273,199.658 8.680 M22.995 25.125 C 22.982 28.322,22.458 32.361,22.015 32.666 C 21.948 32.712,21.720 33.112,21.509 33.555 C 19.942 36.832,15.572 38.108,13.301 35.950 C 12.778 35.453,12.167 34.419,12.167 34.030 C 12.167 33.937,12.073 33.830,11.958 33.792 C 11.682 33.700,11.660 29.379,11.934 29.202 C 12.035 29.137,12.209 28.806,12.319 28.468 C 12.609 27.578,13.743 26.232,14.641 25.714 C 15.068 25.468,15.454 25.217,15.500 25.158 C 15.625 24.995,17.152 24.525,17.958 24.400 C 18.348 24.340,18.667 24.229,18.667 24.154 C 18.667 24.000,19.613 23.907,21.625 23.863 L 23.000 23.833 22.995 25.125 M126.167 26.740 C 126.167 28.498,126.101 29.688,126.000 29.750 C 125.908 29.807,125.833 30.028,125.833 30.242 C 125.833 32.509,123.354 36.027,121.255 36.740 C 118.530 37.665,115.714 36.282,115.246 33.790 C 115.182 33.445,115.062 33.122,114.981 33.072 C 114.774 32.943,114.792 30.000,115.000 30.000 C 115.092 30.000,115.167 29.851,115.167 29.668 C 115.167 29.246,115.717 27.791,116.019 27.412 C 116.616 26.665,117.533 25.825,118.033 25.569 C 118.336 25.414,118.621 25.231,118.667 25.162 C 118.778 24.996,121.024 24.333,121.476 24.333 C 121.673 24.333,121.833 24.262,121.833 24.176 C 121.833 24.002,122.712 23.909,124.792 23.863 L 126.167 23.833 126.167 26.740 M342.368 24.851 C 343.312 24.953,344.158 25.093,344.250 25.163 C 344.342 25.234,344.783 25.344,345.230 25.409 C 345.677 25.474,346.146 25.566,346.271 25.615 C 346.456 25.686,346.500 26.471,346.500 29.732 L 346.500 33.762 345.542 34.377 C 345.015 34.715,344.471 35.093,344.333 35.216 C 344.196 35.339,343.671 35.613,343.167 35.824 C 342.662 36.036,342.212 36.266,342.167 36.336 C 342.121 36.406,341.521 36.629,340.833 36.832 C 340.146 37.035,339.508 37.262,339.417 37.336 C 338.627 37.973,333.384 37.963,332.089 37.322 C 330.989 36.778,329.792 35.585,329.426 34.667 C 329.261 34.254,329.049 33.750,328.955 33.547 C 328.736 33.077,328.728 29.837,328.945 29.692 C 329.035 29.632,329.208 29.220,329.330 28.776 C 329.602 27.786,331.087 26.150,332.083 25.742 C 332.450 25.591,332.987 25.358,333.276 25.223 C 334.447 24.676,339.005 24.489,342.368 24.851 M158.568 46.358 C 158.520 46.436,159.577 46.500,160.917 46.500 C 162.558 46.500,163.318 46.444,163.246 46.327 C 163.117 46.118,158.698 46.147,158.568 46.358 M156.542 46.615 C 156.702 46.657,156.965 46.657,157.125 46.615 C 157.285 46.573,157.154 46.539,156.833 46.539 C 156.512 46.539,156.381 46.573,156.542 46.615 M149.250 48.444 C 148.957 48.679,148.954 48.699,149.222 48.606 C 149.390 48.548,149.596 48.500,149.680 48.500 C 149.764 48.500,149.833 48.425,149.833 48.333 C 149.833 48.097,149.636 48.135,149.250 48.444 M147.333 49.312 C 147.333 49.403,147.178 49.527,146.987 49.587 C 146.797 49.648,146.678 49.734,146.723 49.778 C 146.767 49.823,147.009 49.752,147.259 49.621 C 147.549 49.469,147.645 49.340,147.524 49.265 C 147.419 49.200,147.333 49.221,147.333 49.312 M170.394 51.083 C 170.395 52.000,170.423 52.354,170.456 51.869 C 170.490 51.385,170.490 50.635,170.456 50.203 C 170.421 49.770,170.394 50.167,170.394 51.083 M145.349 50.734 C 145.009 51.085,144.872 51.338,144.986 51.408 C 145.085 51.469,145.167 51.408,145.167 51.272 C 145.167 51.136,145.366 50.868,145.609 50.676 C 145.852 50.485,146.016 50.293,145.972 50.250 C 145.929 50.207,145.649 50.425,145.349 50.734 M40.500 50.833 C 40.821 51.009,41.158 51.153,41.250 51.153 C 41.342 51.153,41.154 51.009,40.833 50.833 C 40.512 50.658,40.175 50.514,40.083 50.514 C 39.992 50.514,40.179 50.658,40.500 50.833 M36.333 51.709 C 36.333 51.737,36.608 52.019,36.943 52.335 C 37.337 52.707,37.487 52.787,37.367 52.562 C 37.211 52.272,36.333 51.548,36.333 51.709 M153.542 51.953 C 153.794 51.991,154.206 51.991,154.458 51.953 C 154.710 51.915,154.504 51.883,154.000 51.883 C 153.496 51.883,153.290 51.915,153.542 51.953 M159.208 51.948 C 159.369 51.990,159.631 51.990,159.792 51.948 C 159.952 51.906,159.821 51.872,159.500 51.872 C 159.179 51.872,159.048 51.906,159.208 51.948 M151.042 52.115 C 151.202 52.157,151.465 52.157,151.625 52.115 C 151.785 52.073,151.654 52.039,151.333 52.039 C 151.012 52.039,150.881 52.073,151.042 52.115 M149.042 52.282 C 149.202 52.323,149.465 52.323,149.625 52.282 C 149.785 52.240,149.654 52.205,149.333 52.205 C 149.012 52.205,148.881 52.240,149.042 52.282 M147.083 52.500 C 147.140 52.592,147.327 52.667,147.500 52.667 C 147.673 52.667,147.860 52.592,147.917 52.500 C 147.977 52.403,147.804 52.333,147.500 52.333 C 147.196 52.333,147.023 52.403,147.083 52.500 M44.167 52.750 C 44.396 52.881,44.658 52.988,44.750 52.988 C 44.842 52.988,44.729 52.881,44.500 52.750 C 44.271 52.619,44.008 52.512,43.917 52.512 C 43.825 52.512,43.938 52.619,44.167 52.750 M39.451 54.410 C 39.615 54.635,39.862 54.865,40.000 54.920 C 40.137 54.976,40.029 54.792,39.760 54.511 C 39.170 53.895,39.044 53.853,39.451 54.410 M163.667 55.167 C 163.667 55.804,163.729 56.148,163.833 56.083 C 163.925 56.027,164.000 55.614,164.000 55.167 C 164.000 54.719,163.925 54.307,163.833 54.250 C 163.729 54.186,163.667 54.529,163.667 55.167 M169.833 55.010 C 169.833 55.199,169.908 55.307,170.000 55.250 C 170.092 55.193,170.167 55.039,170.167 54.907 C 170.167 54.775,170.092 54.667,170.000 54.667 C 169.908 54.667,169.833 54.821,169.833 55.010 M50.093 55.484 C 50.044 55.564,50.168 55.672,50.370 55.724 C 50.848 55.850,50.894 55.785,50.500 55.539 C 50.325 55.430,50.142 55.405,50.093 55.484 M54.833 57.484 C 54.833 57.623,55.517 57.872,55.618 57.770 C 55.646 57.743,55.480 57.635,55.251 57.531 C 55.021 57.426,54.833 57.405,54.833 57.484 M151.583 57.833 C 151.373 57.924,151.342 57.977,151.500 57.977 C 151.637 57.977,151.900 57.912,152.083 57.833 C 152.293 57.743,152.324 57.690,152.167 57.690 C 152.029 57.690,151.767 57.755,151.583 57.833 M158.079 59.467 C 157.989 59.531,157.767 59.771,157.585 60.000 L 157.252 60.417 157.751 60.000 C 158.026 59.771,158.281 59.565,158.319 59.542 C 158.358 59.519,158.355 59.467,158.315 59.426 C 158.274 59.385,158.168 59.404,158.079 59.467 M156.648 60.708 C 156.453 61.081,156.453 61.082,156.809 60.766 C 157.206 60.413,157.243 60.333,157.006 60.333 C 156.917 60.333,156.757 60.502,156.648 60.708 M74.333 63.500 C 74.333 63.592,74.446 63.667,74.583 63.667 C 74.721 63.667,74.833 63.592,74.833 63.500 C 74.833 63.408,74.721 63.333,74.583 63.333 C 74.446 63.333,74.333 63.408,74.333 63.500 M79.167 64.500 C 79.167 64.592,79.279 64.667,79.417 64.667 C 79.554 64.667,79.667 64.592,79.667 64.500 C 79.667 64.408,79.554 64.333,79.417 64.333 C 79.279 64.333,79.167 64.408,79.167 64.500 M128.250 64.500 C 128.193 64.592,128.301 64.667,128.490 64.667 C 128.679 64.667,128.833 64.592,128.833 64.500 C 128.833 64.408,128.725 64.333,128.593 64.333 C 128.461 64.333,128.307 64.408,128.250 64.500 M85.083 65.500 C 85.025 65.595,85.168 65.667,85.417 65.667 C 85.665 65.667,85.809 65.595,85.750 65.500 C 85.693 65.408,85.543 65.333,85.417 65.333 C 85.290 65.333,85.140 65.408,85.083 65.500 M122.417 65.500 C 122.360 65.592,122.473 65.667,122.667 65.667 C 122.861 65.667,122.973 65.592,122.917 65.500 C 122.860 65.408,122.748 65.333,122.667 65.333 C 122.586 65.333,122.473 65.408,122.417 65.500 M119.375 65.948 C 119.535 65.990,119.798 65.990,119.958 65.948 C 120.119 65.906,119.987 65.872,119.667 65.872 C 119.346 65.872,119.215 65.906,119.375 65.948 M117.542 66.115 C 117.702 66.157,117.965 66.157,118.125 66.115 C 118.285 66.073,118.154 66.039,117.833 66.039 C 117.513 66.039,117.381 66.073,117.542 66.115 M147.333 66.250 C 147.104 66.381,146.992 66.488,147.083 66.488 C 147.175 66.488,147.438 66.381,147.667 66.250 C 147.896 66.119,148.008 66.012,147.917 66.012 C 147.825 66.012,147.563 66.119,147.333 66.250 M92.042 66.282 C 92.202 66.323,92.465 66.323,92.625 66.282 C 92.785 66.240,92.654 66.205,92.333 66.205 C 92.013 66.205,91.881 66.240,92.042 66.282 M115.708 66.282 C 115.869 66.323,116.131 66.323,116.292 66.282 C 116.452 66.240,116.321 66.205,116.000 66.205 C 115.679 66.205,115.548 66.240,115.708 66.282 M94.167 66.500 C 93.986 66.617,94.139 66.662,94.718 66.664 C 95.211 66.666,95.480 66.602,95.417 66.500 C 95.286 66.288,94.495 66.288,94.167 66.500 M112.917 66.500 C 112.854 66.601,113.085 66.667,113.500 66.667 C 113.915 66.667,114.146 66.601,114.083 66.500 C 114.027 66.408,113.764 66.333,113.500 66.333 C 113.236 66.333,112.973 66.408,112.917 66.500 M97.455 66.787 C 97.750 66.824,98.275 66.824,98.621 66.788 C 98.967 66.752,98.725 66.722,98.083 66.721 C 97.442 66.721,97.159 66.750,97.455 66.787 M109.621 66.787 C 109.917 66.824,110.442 66.824,110.788 66.788 C 111.134 66.752,110.892 66.722,110.250 66.721 C 109.608 66.721,109.325 66.750,109.621 66.787 M103.960 66.951 C 104.168 66.991,104.468 66.990,104.627 66.948 C 104.786 66.906,104.617 66.874,104.250 66.875 C 103.883 66.877,103.753 66.911,103.960 66.951 M164.979 67.042 C 164.840 67.156,164.596 67.475,164.437 67.750 L 164.147 68.250 164.488 67.833 C 164.676 67.604,164.956 67.285,165.111 67.125 C 165.435 66.788,165.350 66.735,164.979 67.042 M145.125 67.289 C 144.781 67.430,144.500 67.603,144.500 67.674 C 144.500 67.782,145.769 67.260,145.986 67.063 C 146.126 66.936,145.735 67.039,145.125 67.289 M62.636 68.585 C 62.848 68.740,63.067 68.822,63.122 68.767 C 63.255 68.634,63.165 68.565,62.667 68.422 L 62.250 68.302 62.636 68.585 M162.833 69.465 C 161.369 70.951,161.167 71.351,162.564 70.000 C 163.478 69.116,164.194 68.272,163.964 68.349 C 163.938 68.358,163.429 68.860,162.833 69.465 M142.005 68.788 C 141.787 69.034,141.793 69.051,142.061 68.948 C 142.226 68.885,142.392 68.833,142.430 68.833 C 142.469 68.833,142.500 68.758,142.500 68.667 C 142.500 68.421,142.284 68.475,142.005 68.788 M137.917 70.333 C 137.707 70.424,137.676 70.477,137.833 70.477 C 137.971 70.477,138.233 70.412,138.417 70.333 C 138.627 70.243,138.658 70.190,138.500 70.190 C 138.362 70.190,138.100 70.255,137.917 70.333 M159.386 70.915 C 159.406 71.109,159.558 71.260,159.752 71.280 C 159.992 71.305,160.006 71.291,159.802 71.230 C 159.647 71.184,159.483 71.020,159.436 70.865 C 159.376 70.661,159.362 70.674,159.386 70.915 M77.333 73.667 C 77.333 73.758,77.446 73.833,77.583 73.833 C 77.721 73.833,77.833 73.758,77.833 73.667 C 77.833 73.575,77.721 73.500,77.583 73.500 C 77.446 73.500,77.333 73.575,77.333 73.667 M81.633 74.700 C 81.789 74.856,81.878 74.856,82.033 74.700 C 82.189 74.544,82.144 74.500,81.833 74.500 C 81.522 74.500,81.478 74.544,81.633 74.700 M122.833 74.667 C 122.833 74.758,122.941 74.833,123.073 74.833 C 123.206 74.833,123.360 74.758,123.417 74.667 C 123.473 74.575,123.365 74.500,123.177 74.500 C 122.988 74.500,122.833 74.575,122.833 74.667 M87.167 75.667 C 87.167 75.758,87.275 75.833,87.407 75.833 C 87.539 75.833,87.693 75.758,87.750 75.667 C 87.807 75.575,87.699 75.500,87.510 75.500 C 87.321 75.500,87.167 75.575,87.167 75.667 M117.333 75.667 C 117.333 75.758,117.446 75.833,117.583 75.833 C 117.721 75.833,117.833 75.758,117.833 75.667 C 117.833 75.575,117.721 75.500,117.583 75.500 C 117.446 75.500,117.333 75.575,117.333 75.667 M91.875 76.282 C 92.035 76.323,92.298 76.323,92.458 76.282 C 92.619 76.240,92.487 76.205,92.167 76.205 C 91.846 76.205,91.715 76.240,91.875 76.282 M112.708 76.282 C 112.869 76.323,113.131 76.323,113.292 76.282 C 113.452 76.240,113.321 76.205,113.000 76.205 C 112.679 76.205,112.548 76.240,112.708 76.282 M93.958 76.451 C 94.165 76.491,94.502 76.491,94.708 76.451 C 94.915 76.411,94.746 76.379,94.333 76.379 C 93.921 76.379,93.752 76.411,93.958 76.451 M110.627 76.451 C 110.834 76.491,111.134 76.490,111.294 76.448 C 111.453 76.406,111.283 76.374,110.917 76.375 C 110.550 76.377,110.420 76.411,110.627 76.451 M96.795 76.621 C 97.094 76.658,97.544 76.657,97.795 76.619 C 98.045 76.581,97.800 76.551,97.250 76.552 C 96.700 76.553,96.495 76.584,96.795 76.621 M107.461 76.621 C 107.761 76.658,108.211 76.657,108.461 76.619 C 108.712 76.581,108.467 76.551,107.917 76.552 C 107.367 76.553,107.162 76.584,107.461 76.621 " stroke="none" fill="#ffffff" fill-rule="evenodd"></path><path id="path1" d="" stroke="none" fill="#ff0000" fill-rule="evenodd"></path><path id="path2" d="" stroke="none" fill="#ff5555" fill-rule="evenodd"></path><path id="path3" d="M156.917 46.603 C 154.249 46.984,152.903 47.219,152.833 47.317 C 152.787 47.381,152.115 47.602,151.339 47.807 C 150.563 48.011,149.888 48.238,149.839 48.311 C 149.790 48.383,149.247 48.618,148.633 48.833 C 148.018 49.047,147.549 49.277,147.590 49.344 C 147.631 49.410,147.384 49.578,147.041 49.716 C 146.291 50.019,145.167 50.952,145.167 51.271 C 145.167 51.397,145.092 51.500,145.000 51.500 C 144.730 51.500,144.810 52.122,145.094 52.231 C 145.237 52.286,145.308 52.407,145.251 52.499 C 145.185 52.605,145.525 52.667,146.167 52.667 C 146.727 52.667,147.147 52.602,147.098 52.524 C 146.642 51.785,161.929 51.738,162.500 52.476 C 162.546 52.535,162.733 52.666,162.917 52.766 C 163.100 52.867,163.337 53.130,163.442 53.350 C 164.124 54.769,164.123 54.699,163.514 57.992 C 163.320 59.041,163.077 59.953,162.973 60.017 C 162.869 60.081,162.831 60.253,162.887 60.400 C 162.943 60.547,162.925 60.667,162.847 60.667 C 162.768 60.667,162.651 60.947,162.587 61.290 C 162.522 61.633,162.422 61.990,162.364 62.082 C 162.257 62.252,162.238 62.345,162.192 62.885 C 162.178 63.055,162.088 63.138,161.986 63.075 C 161.878 63.008,161.822 63.087,161.846 63.273 C 161.868 63.444,161.798 63.796,161.692 64.055 C 161.585 64.315,161.416 64.853,161.315 65.252 C 161.215 65.651,161.011 66.024,160.863 66.081 C 160.629 66.171,160.626 66.205,160.838 66.340 C 160.973 66.425,161.001 66.496,160.901 66.497 C 160.801 66.499,160.584 66.948,160.418 67.495 C 160.246 68.064,160.045 68.445,159.949 68.385 C 159.846 68.322,159.817 68.421,159.875 68.641 C 159.927 68.838,159.910 69.000,159.838 69.000 C 159.640 69.000,159.333 70.378,159.439 70.784 C 159.790 72.126,162.916 70.141,164.565 67.529 C 164.807 67.146,165.059 66.832,165.127 66.831 C 165.195 66.830,165.399 66.512,165.581 66.123 C 165.763 65.735,166.006 65.357,166.122 65.283 C 166.238 65.210,166.333 65.041,166.333 64.908 C 166.333 64.775,166.408 64.667,166.500 64.667 C 166.592 64.667,166.652 64.610,166.634 64.542 C 166.565 64.284,166.864 63.666,167.012 63.757 C 167.097 63.810,167.167 63.746,167.167 63.615 C 167.167 63.337,167.851 61.622,168.010 61.500 C 168.070 61.454,168.295 60.817,168.508 60.083 C 168.722 59.350,168.959 58.707,169.036 58.655 C 169.112 58.602,169.339 57.702,169.541 56.655 C 169.742 55.607,169.984 54.697,170.079 54.631 C 170.344 54.447,170.309 48.632,170.042 48.542 C 169.927 48.504,169.833 48.375,169.833 48.255 C 169.833 48.044,168.885 47.500,168.516 47.500 C 168.416 47.500,168.333 47.433,168.333 47.351 C 168.333 46.838,159.380 46.251,156.917 46.603 M35.875 49.401 C 35.267 50.043,35.440 50.910,36.313 51.583 C 36.550 51.767,37.027 52.217,37.372 52.583 C 37.717 52.950,38.000 53.184,38.000 53.105 C 38.000 53.025,38.112 53.052,38.248 53.165 C 38.385 53.278,38.460 53.429,38.416 53.501 C 38.372 53.572,38.595 53.753,38.911 53.903 C 39.227 54.053,39.534 54.254,39.593 54.349 C 39.652 54.444,40.004 54.742,40.375 55.011 C 40.746 55.280,40.983 55.501,40.900 55.503 C 40.818 55.504,41.125 55.728,41.583 56.000 C 42.042 56.272,42.355 56.496,42.280 56.497 C 42.057 56.502,42.547 56.904,43.042 57.123 C 43.294 57.235,43.500 57.403,43.500 57.496 C 43.500 57.590,43.578 57.667,43.673 57.667 C 43.874 57.667,44.889 58.353,44.974 58.546 C 45.005 58.617,45.324 58.825,45.682 59.008 C 46.040 59.191,46.333 59.395,46.333 59.462 C 46.333 59.529,46.690 59.767,47.125 59.990 C 47.560 60.214,48.074 60.568,48.267 60.779 C 48.459 60.989,48.666 61.112,48.725 61.053 C 48.785 60.993,48.833 61.036,48.833 61.149 C 48.833 61.261,48.897 61.313,48.975 61.265 C 49.054 61.217,49.260 61.293,49.434 61.434 C 49.608 61.576,49.645 61.637,49.516 61.570 C 49.362 61.490,49.323 61.514,49.401 61.641 C 49.466 61.747,49.623 61.833,49.750 61.833 C 49.997 61.833,51.122 62.449,51.444 62.760 C 51.551 62.863,51.870 63.044,52.152 63.161 C 52.435 63.278,52.667 63.426,52.667 63.489 C 52.667 63.553,52.929 63.707,53.250 63.833 C 53.571 63.959,53.833 64.123,53.833 64.198 C 53.833 64.272,53.890 64.324,53.958 64.314 C 54.319 64.257,54.508 64.354,54.400 64.542 C 54.334 64.656,54.338 64.698,54.409 64.633 C 54.543 64.513,56.169 65.281,56.356 65.554 C 56.414 65.639,56.859 65.848,57.345 66.019 C 57.831 66.190,58.271 66.399,58.323 66.482 C 58.374 66.566,58.942 66.843,59.583 67.097 C 60.225 67.352,60.788 67.611,60.833 67.674 C 60.879 67.737,61.404 67.965,62.000 68.179 C 62.596 68.394,63.168 68.652,63.271 68.752 C 63.374 68.852,63.918 69.074,64.479 69.244 C 65.041 69.414,65.500 69.603,65.500 69.664 C 65.500 69.725,66.081 69.954,66.792 70.174 C 67.502 70.393,68.121 70.624,68.167 70.687 C 68.212 70.750,68.850 70.973,69.583 71.183 C 70.317 71.393,70.954 71.615,71.000 71.675 C 71.046 71.736,71.758 71.960,72.583 72.174 C 73.408 72.388,74.121 72.615,74.167 72.679 C 74.212 72.742,75.037 72.968,76.000 73.179 C 76.962 73.391,77.787 73.614,77.833 73.676 C 77.924 73.796,81.390 74.502,81.885 74.501 C 82.051 74.500,82.147 74.563,82.100 74.640 C 82.052 74.717,83.316 74.960,84.909 75.180 C 86.501 75.400,87.775 75.626,87.741 75.681 C 87.555 75.982,97.876 76.664,102.583 76.663 C 107.674 76.661,116.344 76.077,117.250 75.674 C 117.433 75.592,118.746 75.361,120.167 75.159 C 121.587 74.957,122.787 74.739,122.833 74.674 C 122.879 74.609,123.943 74.378,125.197 74.160 C 126.451 73.943,127.447 73.716,127.411 73.658 C 127.375 73.599,128.168 73.381,129.173 73.173 C 130.178 72.965,131.000 72.743,131.000 72.680 C 131.000 72.617,131.712 72.394,132.583 72.184 C 133.454 71.974,134.167 71.751,134.167 71.689 C 134.167 71.627,134.842 71.400,135.667 71.185 C 136.492 70.970,137.167 70.739,137.167 70.672 C 137.167 70.606,137.748 70.383,138.458 70.176 C 139.169 69.970,139.787 69.744,139.833 69.675 C 139.879 69.606,140.423 69.382,141.042 69.178 C 141.660 68.973,142.167 68.754,142.167 68.691 C 142.167 68.627,142.692 68.397,143.333 68.178 C 143.975 67.960,144.500 67.725,144.500 67.656 C 144.500 67.587,144.988 67.355,145.583 67.142 C 146.179 66.928,146.667 66.692,146.667 66.617 C 146.667 66.542,146.742 66.527,146.833 66.583 C 146.925 66.640,147.000 66.616,147.000 66.529 C 147.000 66.443,147.413 66.205,147.917 66.000 C 148.421 65.795,148.833 65.578,148.833 65.517 C 148.833 65.456,149.208 65.261,149.667 65.083 C 150.125 64.905,150.500 64.700,150.500 64.626 C 150.500 64.553,150.706 64.404,150.958 64.296 C 151.210 64.188,151.636 63.950,151.905 63.767 C 152.221 63.552,152.344 63.520,152.253 63.676 C 152.175 63.808,152.308 63.710,152.548 63.458 C 152.788 63.206,153.103 63.000,153.247 63.000 C 153.392 63.000,153.553 62.888,153.606 62.751 C 153.659 62.614,153.769 62.543,153.851 62.594 C 153.933 62.645,154.000 62.619,154.000 62.537 C 154.000 62.412,154.706 61.980,155.000 61.925 C 155.046 61.916,155.301 61.704,155.566 61.454 C 155.831 61.205,156.148 61.000,156.268 61.000 C 156.389 61.000,156.569 60.850,156.667 60.667 C 156.765 60.483,156.943 60.333,157.062 60.333 C 157.496 60.333,158.500 59.003,158.500 58.428 C 158.500 57.824,158.199 56.831,158.027 56.865 C 157.771 56.915,157.344 56.618,157.442 56.458 C 157.512 56.345,157.396 56.323,157.108 56.396 C 156.847 56.461,156.667 56.437,156.667 56.337 C 156.667 56.117,156.052 56.115,155.917 56.333 C 155.860 56.425,155.739 56.500,155.647 56.500 C 155.555 56.500,155.526 56.426,155.582 56.335 C 155.641 56.241,155.574 56.213,155.425 56.270 C 155.283 56.324,155.167 56.428,155.167 56.500 C 155.167 56.572,154.994 56.674,154.782 56.727 C 154.570 56.780,154.102 56.952,153.740 57.109 C 153.379 57.267,153.027 57.381,152.958 57.364 C 152.890 57.347,152.833 57.398,152.833 57.478 C 152.833 57.629,150.817 58.254,150.115 58.321 C 150.041 58.328,150.022 58.400,150.072 58.482 C 150.123 58.564,149.677 58.762,149.082 58.923 C 148.487 59.084,148.000 59.278,148.000 59.353 C 148.000 59.428,147.888 59.446,147.750 59.394 C 147.613 59.341,147.500 59.368,147.500 59.454 C 147.500 59.540,146.938 59.751,146.250 59.922 C 145.563 60.093,145.000 60.291,145.000 60.361 C 145.000 60.432,144.887 60.446,144.750 60.394 C 144.612 60.341,144.500 60.368,144.500 60.455 C 144.500 60.541,143.900 60.749,143.167 60.917 C 142.433 61.084,141.833 61.277,141.833 61.345 C 141.833 61.413,141.683 61.430,141.500 61.382 C 141.317 61.334,141.167 61.368,141.167 61.458 C 141.167 61.548,140.347 61.798,139.345 62.012 C 138.343 62.227,137.552 62.449,137.586 62.505 C 137.621 62.561,136.735 62.784,135.616 62.999 C 134.498 63.215,133.546 63.445,133.500 63.512 C 133.454 63.578,132.404 63.804,131.167 64.015 C 129.929 64.225,128.879 64.448,128.833 64.509 C 128.740 64.634,124.017 65.336,123.282 65.334 C 123.024 65.334,122.854 65.398,122.903 65.477 C 122.952 65.557,122.487 65.673,121.871 65.736 C 119.091 66.022,115.675 66.325,114.883 66.357 C 114.407 66.376,114.048 66.444,114.087 66.506 C 114.202 66.692,109.600 66.855,104.242 66.855 C 98.456 66.855,93.872 66.684,94.195 66.479 C 94.330 66.394,94.023 66.337,93.417 66.335 C 92.867 66.334,91.254 66.220,89.833 66.082 C 88.412 65.944,86.746 65.784,86.130 65.726 C 85.514 65.667,85.049 65.555,85.098 65.477 C 85.147 65.398,84.963 65.333,84.690 65.333 C 83.928 65.333,79.460 64.674,79.083 64.505 C 78.900 64.424,77.775 64.191,76.583 63.988 C 75.392 63.785,74.379 63.566,74.333 63.501 C 74.287 63.436,73.335 63.208,72.218 62.994 C 71.100 62.780,70.218 62.552,70.258 62.488 C 70.322 62.383,70.068 62.312,68.917 62.112 C 67.842 61.925,66.727 61.584,66.522 61.379 C 66.345 61.202,66.254 61.192,66.163 61.339 C 66.094 61.450,66.000 61.469,65.946 61.381 C 65.894 61.296,65.289 61.087,64.601 60.916 C 63.913 60.744,63.396 60.533,63.451 60.445 C 63.509 60.351,63.367 60.320,63.108 60.369 C 62.865 60.416,62.667 60.404,62.667 60.342 C 62.667 60.281,62.143 60.095,61.502 59.929 C 60.862 59.763,60.383 59.555,60.437 59.467 C 60.492 59.378,60.397 59.324,60.227 59.346 C 60.056 59.368,59.704 59.298,59.445 59.192 C 59.185 59.085,58.643 58.915,58.239 58.813 C 57.805 58.704,57.548 58.557,57.611 58.454 C 57.679 58.345,57.585 58.316,57.359 58.375 C 57.162 58.427,57.000 58.413,57.000 58.345 C 57.000 58.277,56.537 58.092,55.970 57.935 C 55.404 57.778,54.836 57.521,54.708 57.366 C 54.559 57.185,54.521 57.173,54.603 57.333 C 54.704 57.532,54.681 57.545,54.490 57.397 C 54.358 57.295,53.856 57.082,53.375 56.925 C 52.894 56.768,52.500 56.563,52.500 56.469 C 52.500 56.375,52.387 56.341,52.250 56.394 C 52.112 56.446,52.000 56.429,52.000 56.354 C 52.000 56.280,51.550 56.083,51.000 55.917 C 50.450 55.750,50.000 55.546,50.000 55.464 C 50.000 55.381,49.925 55.360,49.833 55.417 C 49.742 55.473,49.667 55.458,49.667 55.383 C 49.667 55.308,49.179 55.072,48.583 54.858 C 47.987 54.645,47.500 54.418,47.500 54.354 C 47.500 54.291,47.015 54.057,46.423 53.836 C 45.830 53.614,45.380 53.398,45.422 53.356 C 45.464 53.314,45.030 53.092,44.458 52.864 C 43.885 52.636,43.378 52.390,43.330 52.318 C 43.282 52.246,42.871 52.028,42.417 51.833 C 41.962 51.638,41.551 51.427,41.503 51.363 C 41.456 51.299,41.026 51.067,40.548 50.848 C 40.070 50.628,39.718 50.385,39.766 50.308 C 39.814 50.230,39.763 50.167,39.653 50.167 C 39.391 50.167,37.978 49.475,37.696 49.208 C 37.318 48.850,36.294 48.959,35.875 49.401 " stroke="none" fill="#ff8f02" fill-rule="evenodd"></path><path id="path4" d="" stroke="none" fill="#ffff00" fill-rule="evenodd"></path></g></svg>