<svg id="svg" version="1.1" width="400" height="164.06249999999997" viewBox="0 0 400 164.06249999999997" xmlns="http://www.w3.org/2000/svg" xmlns:xlink="http://www.w3.org/1999/xlink" ><g id="svgg"><path id="path0" d="M76.625 0.123 C 76.190 0.157,75.833 0.256,75.833 0.342 C 75.833 0.429,75.575 0.500,75.260 0.500 C 74.944 0.500,74.640 0.575,74.583 0.667 C 74.527 0.758,74.297 0.833,74.073 0.833 C 73.850 0.833,73.667 0.908,73.667 1.000 C 73.667 1.092,73.442 1.167,73.167 1.167 C 72.892 1.167,72.667 1.223,72.667 1.292 C 72.667 1.360,72.179 1.564,71.583 1.744 C 70.987 1.924,70.500 2.130,70.500 2.202 C 70.500 2.274,70.350 2.333,70.167 2.333 C 69.983 2.333,69.833 2.394,69.833 2.469 C 69.833 2.543,69.571 2.707,69.250 2.833 C 68.929 2.959,68.667 3.123,68.667 3.198 C 68.667 3.272,68.517 3.333,68.333 3.333 C 68.150 3.333,68.000 3.408,68.000 3.500 C 68.000 3.592,67.887 3.667,67.750 3.667 C 67.612 3.667,67.500 3.734,67.500 3.815 C 67.500 3.897,67.330 4.007,67.122 4.059 C 66.914 4.111,66.579 4.307,66.379 4.494 C 66.178 4.680,65.955 4.833,65.882 4.834 C 65.809 4.834,65.525 5.021,65.250 5.249 C 64.507 5.867,63.829 6.426,63.084 7.037 C 61.844 8.053,59.772 10.338,58.884 11.667 C 58.547 12.171,58.178 12.678,58.064 12.793 C 57.949 12.908,57.808 13.152,57.750 13.334 C 57.692 13.517,57.574 13.667,57.489 13.667 C 57.403 13.667,57.333 13.746,57.333 13.842 C 57.333 13.939,57.146 14.294,56.917 14.631 C 56.688 14.968,56.500 15.377,56.500 15.539 C 56.500 15.701,56.425 15.833,56.333 15.833 C 56.242 15.833,56.167 15.983,56.167 16.167 C 56.167 16.350,56.110 16.500,56.041 16.500 C 55.971 16.500,55.816 16.744,55.696 17.042 C 55.576 17.340,55.408 17.714,55.322 17.873 C 55.237 18.032,55.167 18.276,55.167 18.414 C 55.167 18.553,55.092 18.667,55.000 18.667 C 54.908 18.667,54.833 18.854,54.833 19.083 C 54.833 19.313,54.758 19.500,54.667 19.500 C 54.575 19.500,54.500 19.683,54.500 19.907 C 54.500 20.131,54.431 20.356,54.346 20.409 C 54.262 20.461,54.141 20.990,54.077 21.585 C 54.013 22.180,53.895 22.667,53.814 22.667 C 53.733 22.667,53.667 22.998,53.667 23.403 C 53.667 23.808,53.599 24.164,53.515 24.194 C 53.366 24.249,53.278 26.524,53.315 29.375 L 53.333 30.833 55.407 30.833 C 56.609 30.833,57.524 30.763,57.583 30.667 C 57.640 30.575,58.052 30.500,58.500 30.500 C 58.948 30.500,59.360 30.425,59.417 30.333 C 59.473 30.242,59.778 30.167,60.093 30.167 C 60.409 30.167,60.667 30.092,60.667 30.000 C 60.667 29.908,60.892 29.833,61.167 29.833 C 61.442 29.833,61.667 29.758,61.667 29.667 C 61.667 29.575,61.850 29.500,62.073 29.500 C 62.297 29.500,62.527 29.425,62.583 29.333 C 62.640 29.242,62.832 29.167,63.010 29.167 C 63.188 29.167,63.333 29.092,63.333 29.000 C 63.333 28.908,63.446 28.833,63.583 28.833 C 63.721 28.833,63.833 28.765,63.833 28.681 C 63.833 28.598,64.133 28.479,64.500 28.417 C 64.867 28.355,65.167 28.236,65.167 28.152 C 65.167 28.068,65.317 28.000,65.500 28.000 C 65.683 28.000,65.833 27.925,65.833 27.833 C 65.833 27.742,65.946 27.667,66.083 27.667 C 66.221 27.667,66.333 27.592,66.333 27.500 C 66.333 27.408,66.432 27.333,66.552 27.333 C 66.672 27.333,66.931 27.183,67.128 27.000 C 67.325 26.817,67.535 26.667,67.596 26.667 C 67.779 26.667,69.388 25.455,69.859 24.963 C 70.102 24.708,70.343 24.500,70.395 24.500 C 70.484 24.500,71.160 23.919,72.139 23.000 C 72.383 22.771,72.882 22.208,73.248 21.750 C 73.613 21.292,74.044 20.771,74.206 20.594 C 74.368 20.416,74.500 20.189,74.500 20.089 C 74.500 19.989,74.650 19.799,74.833 19.667 C 75.017 19.535,75.167 19.321,75.167 19.191 C 75.167 19.062,75.299 18.834,75.461 18.686 C 75.622 18.538,75.904 18.117,76.086 17.750 C 76.268 17.383,76.473 17.058,76.542 17.028 C 76.610 16.997,76.667 16.828,76.667 16.653 C 76.667 16.477,76.742 16.333,76.833 16.333 C 76.925 16.333,77.000 16.221,77.000 16.083 C 77.000 15.946,77.075 15.833,77.167 15.833 C 77.258 15.833,77.333 15.683,77.333 15.500 C 77.333 15.317,77.408 15.167,77.500 15.167 C 77.592 15.167,77.667 15.017,77.667 14.833 C 77.667 14.650,77.742 14.500,77.833 14.500 C 77.925 14.500,78.000 14.350,78.000 14.167 C 78.000 13.983,78.075 13.833,78.167 13.833 C 78.258 13.833,78.333 13.688,78.333 13.510 C 78.333 13.332,78.406 13.141,78.495 13.086 C 78.584 13.031,78.706 12.614,78.767 12.160 C 78.827 11.705,78.942 11.333,79.021 11.333 C 79.101 11.333,79.167 11.146,79.167 10.917 C 79.167 10.688,79.242 10.500,79.333 10.500 C 79.425 10.500,79.500 10.200,79.500 9.833 C 79.500 9.467,79.575 9.167,79.667 9.167 C 79.758 9.167,79.833 8.909,79.833 8.593 C 79.833 8.278,79.908 7.973,80.000 7.917 C 80.092 7.860,80.167 7.406,80.167 6.907 C 80.167 6.408,80.242 6.000,80.333 6.000 C 80.438 6.000,80.500 4.889,80.500 3.000 L 80.500 0.000 78.958 0.030 C 78.110 0.047,77.060 0.088,76.625 0.123 M142.375 70.125 L 142.417 131.250 152.167 131.250 L 161.917 131.250 161.959 110.375 L 162.001 89.500 177.574 89.500 C 187.776 89.500,193.183 89.443,193.250 89.333 C 193.307 89.242,193.874 89.167,194.510 89.167 C 195.170 89.167,195.667 89.095,195.667 89.000 C 195.667 88.908,196.042 88.833,196.500 88.833 C 196.958 88.833,197.333 88.758,197.333 88.667 C 197.333 88.575,197.671 88.500,198.083 88.500 C 198.496 88.500,198.833 88.436,198.833 88.357 C 198.833 88.278,199.299 88.166,199.868 88.106 C 200.437 88.047,200.977 87.923,201.068 87.832 C 201.159 87.741,201.439 87.667,201.690 87.667 C 201.941 87.667,202.193 87.592,202.250 87.500 C 202.307 87.408,202.536 87.333,202.760 87.333 C 202.984 87.333,203.167 87.258,203.167 87.167 C 203.167 87.075,203.350 87.000,203.573 87.000 C 203.797 87.000,204.027 86.925,204.083 86.833 C 204.140 86.742,204.332 86.667,204.510 86.667 C 204.688 86.667,204.833 86.592,204.833 86.500 C 204.833 86.408,204.979 86.333,205.157 86.333 C 205.335 86.333,205.527 86.258,205.583 86.167 C 205.640 86.075,205.832 86.000,206.010 86.000 C 206.188 86.000,206.333 85.925,206.333 85.833 C 206.333 85.742,206.457 85.667,206.608 85.667 C 206.932 85.667,208.725 84.822,208.806 84.631 C 208.836 84.559,208.970 84.500,209.104 84.500 C 209.238 84.500,209.508 84.350,209.705 84.167 C 209.902 83.983,210.161 83.833,210.281 83.833 C 210.402 83.833,210.500 83.758,210.500 83.667 C 210.500 83.575,210.603 83.500,210.730 83.500 C 210.856 83.500,211.053 83.388,211.167 83.250 C 211.281 83.113,211.498 83.000,211.650 83.000 C 211.802 83.000,212.035 82.850,212.167 82.667 C 212.299 82.483,212.506 82.333,212.628 82.333 C 212.749 82.333,213.021 82.165,213.233 81.958 C 213.636 81.565,214.166 81.141,214.949 80.584 C 215.364 80.289,215.905 79.792,217.875 77.895 C 218.547 77.248,219.500 76.182,219.500 76.078 C 219.500 76.035,219.800 75.691,220.167 75.313 C 220.533 74.936,220.833 74.555,220.833 74.468 C 220.833 74.381,220.927 74.205,221.042 74.077 C 221.490 73.577,221.667 73.343,221.667 73.250 C 221.667 73.197,221.817 72.992,222.000 72.795 C 222.183 72.598,222.333 72.339,222.333 72.219 C 222.333 72.098,222.408 72.000,222.500 72.000 C 222.592 72.000,222.667 71.902,222.667 71.781 C 222.667 71.661,222.800 71.417,222.964 71.240 C 223.289 70.886,223.833 69.808,223.833 69.516 C 223.833 69.416,223.890 69.333,223.958 69.332 C 224.108 69.330,224.500 68.523,224.500 68.217 C 224.500 68.098,224.575 68.000,224.667 68.000 C 224.758 68.000,224.833 67.850,224.833 67.667 C 224.833 67.483,224.908 67.333,225.000 67.333 C 225.092 67.333,225.167 67.183,225.167 67.000 C 225.167 66.817,225.242 66.667,225.333 66.667 C 225.425 66.667,225.500 66.553,225.500 66.414 C 225.500 66.276,225.575 66.013,225.667 65.831 C 225.758 65.649,225.899 65.366,225.979 65.202 C 226.060 65.038,226.179 64.588,226.244 64.203 C 226.309 63.817,226.431 63.459,226.515 63.408 C 226.598 63.356,226.667 63.093,226.667 62.823 C 226.667 62.554,226.742 62.333,226.833 62.333 C 226.925 62.333,227.000 62.108,227.000 61.833 C 227.000 61.558,227.075 61.333,227.167 61.333 C 227.258 61.333,227.333 61.075,227.333 60.760 C 227.333 60.444,227.408 60.140,227.500 60.083 C 227.592 60.027,227.667 59.647,227.667 59.240 C 227.667 58.833,227.734 58.500,227.817 58.500 C 227.900 58.500,228.014 58.106,228.069 57.625 C 228.125 57.144,228.253 56.188,228.353 55.500 C 228.603 53.783,228.729 44.329,228.505 44.105 C 228.411 44.011,228.333 43.428,228.333 42.810 C 228.333 42.192,228.258 41.640,228.167 41.583 C 228.075 41.527,228.000 41.110,228.000 40.657 C 228.000 40.204,227.925 39.833,227.833 39.833 C 227.742 39.833,227.667 39.496,227.667 39.083 C 227.667 38.671,227.592 38.333,227.500 38.333 C 227.408 38.333,227.333 38.075,227.333 37.760 C 227.333 37.444,227.258 37.140,227.167 37.083 C 227.075 37.027,227.000 36.797,227.000 36.573 C 227.000 36.350,226.925 36.167,226.833 36.167 C 226.742 36.167,226.667 35.909,226.667 35.593 C 226.667 35.278,226.600 34.979,226.519 34.929 C 226.438 34.878,226.321 34.499,226.259 34.085 C 226.197 33.672,226.076 33.333,225.990 33.333 C 225.904 33.333,225.833 33.150,225.833 32.927 C 225.833 32.703,225.758 32.473,225.667 32.417 C 225.575 32.360,225.500 32.168,225.500 31.990 C 225.500 31.812,225.425 31.667,225.333 31.667 C 225.242 31.667,225.167 31.565,225.167 31.440 C 225.167 31.197,224.161 29.140,223.973 28.998 C 223.911 28.952,223.808 28.708,223.745 28.457 C 223.682 28.205,223.564 28.000,223.482 28.000 C 223.400 28.000,223.333 27.850,223.333 27.667 C 223.333 27.483,223.258 27.333,223.167 27.333 C 223.075 27.333,223.000 27.235,223.000 27.115 C 223.000 26.995,222.850 26.735,222.667 26.538 C 222.483 26.342,222.333 26.119,222.333 26.044 C 222.333 25.968,222.183 25.799,222.000 25.667 C 221.817 25.535,221.667 25.293,221.667 25.130 C 221.667 24.967,221.597 24.833,221.511 24.833 C 221.426 24.833,221.311 24.692,221.256 24.519 C 221.201 24.347,220.952 23.991,220.701 23.728 C 220.451 23.465,220.063 22.991,219.838 22.675 C 219.309 21.930,215.904 18.524,215.158 17.995 C 214.842 17.771,214.368 17.382,214.106 17.132 C 213.843 16.882,213.487 16.632,213.314 16.577 C 213.141 16.522,213.000 16.408,213.000 16.322 C 213.000 16.237,212.887 16.167,212.750 16.167 C 212.612 16.167,212.500 16.092,212.500 16.000 C 212.500 15.908,212.422 15.833,212.326 15.833 C 212.231 15.833,212.005 15.695,211.824 15.527 C 211.643 15.358,211.289 15.114,211.039 14.985 C 210.788 14.856,210.546 14.705,210.500 14.649 C 210.344 14.457,209.351 14.000,209.092 14.000 C 208.950 14.000,208.833 13.925,208.833 13.833 C 208.833 13.742,208.721 13.667,208.583 13.667 C 208.446 13.667,208.333 13.592,208.333 13.500 C 208.333 13.408,208.183 13.333,208.000 13.333 C 207.817 13.333,207.667 13.258,207.667 13.167 C 207.667 13.075,207.517 13.000,207.333 13.000 C 207.150 13.000,207.000 12.925,207.000 12.833 C 207.000 12.742,206.854 12.667,206.677 12.667 C 206.499 12.667,206.307 12.592,206.250 12.500 C 206.193 12.408,206.001 12.333,205.823 12.333 C 205.646 12.333,205.500 12.275,205.500 12.204 C 205.500 12.061,203.734 11.500,203.283 11.500 C 203.128 11.500,203.000 11.425,203.000 11.333 C 203.000 11.242,202.775 11.167,202.500 11.167 C 202.225 11.167,202.000 11.092,202.000 11.000 C 202.000 10.908,201.775 10.833,201.500 10.833 C 201.225 10.833,201.000 10.758,201.000 10.667 C 201.000 10.575,200.737 10.500,200.417 10.500 C 200.096 10.500,199.833 10.425,199.833 10.333 C 199.833 10.242,199.538 10.167,199.177 10.167 C 198.815 10.167,198.473 10.092,198.417 10.000 C 198.360 9.908,197.996 9.833,197.607 9.833 C 197.218 9.833,196.829 9.765,196.742 9.681 C 196.574 9.521,195.779 9.423,192.667 9.180 C 191.612 9.097,179.856 9.023,166.541 9.015 L 142.333 9.000 142.375 70.125 M186.417 25.667 C 186.473 25.758,187.111 25.833,187.833 25.833 C 188.556 25.833,189.188 25.899,189.238 25.980 C 189.288 26.061,189.967 26.180,190.748 26.245 C 191.528 26.310,192.167 26.432,192.167 26.515 C 192.167 26.598,192.429 26.667,192.750 26.667 C 193.071 26.667,193.333 26.742,193.333 26.833 C 193.333 26.925,193.558 27.000,193.833 27.000 C 194.108 27.000,194.333 27.075,194.333 27.167 C 194.333 27.258,194.521 27.333,194.750 27.333 C 194.979 27.333,195.167 27.408,195.167 27.500 C 195.167 27.592,195.280 27.667,195.419 27.667 C 195.558 27.667,195.801 27.735,195.961 27.819 C 196.547 28.129,197.473 28.500,197.657 28.500 C 197.762 28.500,198.008 28.650,198.205 28.833 C 198.402 29.017,198.661 29.167,198.781 29.167 C 198.902 29.167,199.000 29.242,199.000 29.333 C 199.000 29.425,199.096 29.500,199.213 29.500 C 199.330 29.500,199.535 29.650,199.667 29.833 C 199.799 30.017,199.984 30.167,200.078 30.167 C 200.246 30.167,200.881 30.645,201.619 31.326 C 201.822 31.513,202.066 31.667,202.161 31.667 C 202.256 31.667,202.333 31.723,202.333 31.792 C 202.333 31.861,202.727 32.347,203.208 32.872 C 204.295 34.059,204.362 34.144,204.653 34.708 C 204.783 34.960,204.952 35.167,205.028 35.167 C 205.104 35.167,205.167 35.263,205.167 35.380 C 205.167 35.497,205.317 35.701,205.500 35.833 C 205.683 35.965,205.833 36.207,205.833 36.370 C 205.833 36.533,205.908 36.667,206.000 36.667 C 206.092 36.667,206.167 36.817,206.167 37.000 C 206.167 37.183,206.223 37.333,206.292 37.333 C 206.360 37.333,206.564 37.821,206.744 38.417 C 206.924 39.013,207.130 39.500,207.202 39.500 C 207.274 39.500,207.333 39.683,207.333 39.907 C 207.333 40.131,207.408 40.360,207.500 40.417 C 207.592 40.473,207.667 40.703,207.667 40.927 C 207.667 41.150,207.742 41.333,207.833 41.333 C 207.925 41.333,208.000 41.633,208.000 42.000 C 208.000 42.367,208.075 42.667,208.167 42.667 C 208.258 42.667,208.333 43.037,208.333 43.490 C 208.333 43.943,208.408 44.360,208.500 44.417 C 208.592 44.473,208.667 45.111,208.667 45.833 C 208.667 46.556,208.742 47.193,208.833 47.250 C 208.929 47.309,209.000 48.193,209.000 49.333 C 209.000 50.474,208.929 51.357,208.833 51.417 C 208.742 51.473,208.667 52.111,208.667 52.833 C 208.667 53.556,208.592 54.193,208.500 54.250 C 208.408 54.307,208.333 54.686,208.333 55.093 C 208.333 55.500,208.258 55.833,208.167 55.833 C 208.075 55.833,208.000 56.133,208.000 56.500 C 208.000 56.867,207.925 57.167,207.833 57.167 C 207.742 57.167,207.667 57.429,207.667 57.750 C 207.667 58.071,207.592 58.333,207.500 58.333 C 207.408 58.333,207.333 58.469,207.333 58.635 C 207.333 58.801,207.188 59.238,207.011 59.605 C 206.833 59.972,206.634 60.492,206.568 60.761 C 206.503 61.030,206.404 61.288,206.349 61.333 C 206.188 61.468,205.654 62.392,205.554 62.708 C 205.503 62.869,205.395 63.000,205.314 63.000 C 205.233 63.000,205.167 63.150,205.167 63.333 C 205.167 63.517,205.093 63.667,205.002 63.667 C 204.912 63.667,204.631 63.983,204.377 64.369 C 203.788 65.267,200.714 68.333,200.403 68.333 C 200.273 68.333,200.167 68.391,200.167 68.462 C 200.167 68.533,199.904 68.732,199.583 68.905 C 199.262 69.078,199.000 69.282,199.000 69.360 C 199.000 69.437,198.850 69.500,198.667 69.500 C 198.483 69.500,198.333 69.575,198.333 69.667 C 198.333 69.758,198.183 69.833,198.000 69.833 C 197.817 69.833,197.667 69.908,197.667 70.000 C 197.667 70.092,197.554 70.167,197.417 70.167 C 197.279 70.167,197.167 70.242,197.167 70.333 C 197.167 70.425,197.017 70.500,196.833 70.500 C 196.650 70.500,196.500 70.575,196.500 70.667 C 196.500 70.758,196.350 70.833,196.167 70.833 C 195.983 70.833,195.833 70.900,195.833 70.981 C 195.833 71.062,195.498 71.179,195.087 71.241 C 194.677 71.302,194.297 71.423,194.244 71.510 C 194.191 71.596,193.968 71.667,193.750 71.667 C 193.532 71.667,193.307 71.742,193.250 71.833 C 193.193 71.925,192.931 72.000,192.667 72.000 C 192.402 72.000,192.140 72.075,192.083 72.167 C 192.027 72.258,191.689 72.333,191.333 72.333 C 190.977 72.333,190.640 72.408,190.583 72.500 C 190.527 72.592,190.147 72.667,189.740 72.667 C 189.333 72.667,189.000 72.742,189.000 72.833 C 189.000 72.932,188.392 73.000,187.510 73.000 C 186.690 73.000,185.973 73.075,185.917 73.167 C 185.850 73.275,181.665 73.333,173.907 73.333 L 162.000 73.333 162.000 49.417 L 162.000 25.500 174.157 25.500 C 182.082 25.500,186.350 25.558,186.417 25.667 M74.583 31.833 C 74.527 31.925,74.114 32.000,73.667 32.000 C 73.219 32.000,72.807 32.075,72.750 32.167 C 72.693 32.258,72.356 32.333,72.000 32.333 C 71.644 32.333,71.307 32.408,71.250 32.500 C 71.193 32.592,70.931 32.667,70.667 32.667 C 70.402 32.667,70.140 32.742,70.083 32.833 C 70.027 32.925,69.760 33.000,69.490 33.000 C 69.221 33.000,69.000 33.075,69.000 33.167 C 69.000 33.258,68.775 33.333,68.500 33.333 C 68.225 33.333,68.000 33.399,68.000 33.479 C 68.000 33.558,67.628 33.673,67.174 33.733 C 66.719 33.794,66.311 33.901,66.267 33.972 C 66.224 34.043,65.808 34.204,65.344 34.330 C 64.880 34.457,64.500 34.622,64.500 34.697 C 64.500 34.772,64.313 34.833,64.083 34.833 C 63.854 34.833,63.667 34.908,63.667 35.000 C 63.667 35.092,63.521 35.167,63.343 35.167 C 63.165 35.167,62.973 35.242,62.917 35.333 C 62.860 35.425,62.631 35.500,62.407 35.500 C 62.183 35.500,62.000 35.575,62.000 35.667 C 62.000 35.758,61.813 35.833,61.583 35.833 C 61.354 35.833,61.167 35.902,61.167 35.985 C 61.167 36.069,60.851 36.191,60.465 36.256 C 60.079 36.321,59.629 36.440,59.465 36.521 C 59.301 36.601,59.018 36.742,58.836 36.833 C 58.654 36.925,58.358 37.000,58.179 37.000 C 58.000 37.000,57.807 37.075,57.750 37.167 C 57.693 37.258,57.426 37.333,57.157 37.333 C 56.887 37.333,56.667 37.408,56.667 37.500 C 56.667 37.601,55.920 37.667,54.760 37.667 C 53.668 37.667,52.809 37.595,52.750 37.500 C 52.693 37.408,52.431 37.333,52.167 37.333 C 51.902 37.333,51.640 37.258,51.583 37.167 C 51.527 37.075,51.334 37.000,51.155 37.000 C 50.975 37.000,50.699 36.927,50.539 36.839 C 50.098 36.593,48.696 36.167,48.328 36.167 C 48.147 36.167,48.000 36.092,48.000 36.000 C 48.000 35.908,47.850 35.833,47.667 35.833 C 47.483 35.833,47.333 35.758,47.333 35.667 C 47.333 35.575,47.108 35.500,46.833 35.500 C 46.558 35.500,46.333 35.444,46.332 35.375 C 46.330 35.206,45.506 34.833,45.133 34.833 C 44.968 34.833,44.833 34.772,44.833 34.697 C 44.833 34.622,44.454 34.457,43.989 34.330 C 43.525 34.204,43.110 34.043,43.066 33.972 C 43.022 33.901,42.614 33.794,42.160 33.733 C 41.705 33.673,41.333 33.558,41.333 33.479 C 41.333 33.399,41.108 33.333,40.833 33.333 C 40.558 33.333,40.333 33.258,40.333 33.167 C 40.333 33.075,40.071 33.000,39.750 33.000 C 39.429 33.000,39.167 32.925,39.167 32.833 C 39.167 32.742,38.829 32.667,38.417 32.667 C 38.004 32.667,37.667 32.592,37.667 32.500 C 37.667 32.406,37.198 32.333,36.593 32.333 C 36.003 32.333,35.473 32.258,35.417 32.167 C 35.280 31.945,31.054 31.945,30.917 32.167 C 30.860 32.258,30.256 32.333,29.573 32.333 C 28.858 32.333,28.333 32.404,28.333 32.500 C 28.333 32.592,28.000 32.667,27.593 32.667 C 27.186 32.667,26.807 32.742,26.750 32.833 C 26.693 32.925,26.389 33.000,26.073 33.000 C 25.758 33.000,25.500 33.075,25.500 33.167 C 25.500 33.258,25.238 33.333,24.917 33.333 C 24.596 33.333,24.333 33.398,24.333 33.477 C 24.333 33.557,23.999 33.667,23.590 33.723 C 22.938 33.813,21.858 34.205,20.961 34.680 C 20.801 34.764,20.558 34.833,20.419 34.833 C 20.280 34.833,20.167 34.894,20.167 34.969 C 20.167 35.043,19.904 35.207,19.583 35.333 C 19.262 35.459,19.000 35.623,19.000 35.698 C 19.000 35.772,18.850 35.833,18.667 35.833 C 18.483 35.833,18.333 35.894,18.333 35.969 C 18.333 36.043,17.956 36.269,17.494 36.471 C 17.032 36.672,16.612 36.949,16.560 37.085 C 16.507 37.222,16.322 37.333,16.149 37.333 C 15.975 37.333,15.833 37.396,15.833 37.472 C 15.833 37.548,15.627 37.716,15.375 37.846 C 15.123 37.975,14.804 38.196,14.667 38.336 C 14.529 38.477,14.209 38.724,13.955 38.886 C 13.135 39.406,10.453 41.977,9.417 43.235 C 9.050 43.680,8.656 44.142,8.542 44.260 C 8.427 44.379,8.333 44.520,8.333 44.573 C 8.333 44.626,8.108 44.905,7.833 45.193 C 7.558 45.481,7.333 45.817,7.333 45.941 C 7.333 46.065,7.270 46.167,7.193 46.167 C 7.116 46.167,6.911 46.429,6.738 46.750 C 6.566 47.071,6.366 47.333,6.295 47.333 C 6.225 47.333,6.167 47.483,6.167 47.667 C 6.167 47.850,6.092 48.000,6.000 48.000 C 5.908 48.000,5.833 48.116,5.833 48.257 C 5.833 48.398,5.683 48.675,5.500 48.872 C 5.317 49.068,5.074 49.440,4.959 49.698 C 4.845 49.956,4.695 50.167,4.626 50.167 C 4.557 50.167,4.500 50.268,4.500 50.391 C 4.500 50.600,4.185 51.368,3.823 52.039 C 3.737 52.199,3.667 52.480,3.667 52.664 C 3.667 52.849,3.592 53.000,3.500 53.000 C 3.408 53.000,3.333 53.150,3.333 53.333 C 3.333 53.517,3.258 53.667,3.167 53.667 C 3.075 53.667,3.000 53.780,3.000 53.919 C 3.000 54.058,2.925 54.320,2.833 54.502 C 2.742 54.684,2.592 54.982,2.500 55.164 C 2.408 55.346,2.333 55.642,2.333 55.821 C 2.333 56.000,2.258 56.193,2.167 56.250 C 2.075 56.307,2.000 56.569,2.000 56.833 C 2.000 57.098,1.928 57.358,1.841 57.412 C 1.754 57.466,1.631 57.958,1.570 58.505 C 1.508 59.052,1.392 59.500,1.312 59.500 C 1.232 59.500,1.167 59.833,1.167 60.240 C 1.167 60.647,1.092 61.027,1.000 61.083 C 0.908 61.140,0.833 61.519,0.833 61.927 C 0.833 62.334,0.758 62.667,0.667 62.667 C 0.573 62.667,0.500 63.128,0.500 63.717 C 0.500 64.329,0.414 64.853,0.294 64.973 C -0.002 65.269,0.001 78.401,0.297 78.697 C 0.420 78.820,0.500 79.381,0.500 80.117 C 0.500 80.817,0.571 81.333,0.667 81.333 C 0.758 81.333,0.833 81.746,0.833 82.250 C 0.833 82.754,0.908 83.167,1.000 83.167 C 1.092 83.167,1.167 83.579,1.167 84.083 C 1.167 84.587,1.232 85.000,1.312 85.000 C 1.392 85.000,1.509 85.599,1.573 86.330 C 1.637 87.062,1.759 87.704,1.845 87.757 C 1.930 87.810,2.000 88.149,2.000 88.510 C 2.000 88.871,2.075 89.167,2.167 89.167 C 2.258 89.167,2.333 89.425,2.333 89.740 C 2.333 90.056,2.408 90.360,2.500 90.417 C 2.592 90.473,2.667 90.736,2.667 91.000 C 2.667 91.264,2.742 91.527,2.833 91.583 C 2.925 91.640,3.000 91.907,3.000 92.177 C 3.000 92.446,3.075 92.667,3.167 92.667 C 3.258 92.667,3.333 92.887,3.333 93.157 C 3.333 93.426,3.408 93.693,3.500 93.750 C 3.592 93.807,3.667 94.032,3.667 94.250 C 3.667 94.468,3.742 94.693,3.833 94.750 C 3.925 94.807,4.000 94.976,4.000 95.127 C 4.000 95.570,4.562 97.333,4.704 97.333 C 4.775 97.333,4.833 97.521,4.833 97.750 C 4.833 97.979,4.908 98.167,5.000 98.167 C 5.092 98.167,5.167 98.392,5.167 98.667 C 5.167 98.942,5.242 99.167,5.333 99.167 C 5.425 99.167,5.500 99.317,5.500 99.500 C 5.500 99.683,5.575 99.833,5.667 99.833 C 5.758 99.833,5.833 100.021,5.833 100.250 C 5.833 100.479,5.908 100.667,6.000 100.667 C 6.092 100.667,6.167 100.817,6.167 101.000 C 6.167 101.183,6.242 101.333,6.333 101.333 C 6.425 101.333,6.500 101.520,6.500 101.749 C 6.500 102.224,7.015 103.500,7.206 103.500 C 7.276 103.500,7.333 103.614,7.333 103.752 C 7.333 103.891,7.403 104.135,7.489 104.294 C 7.575 104.453,7.743 104.827,7.863 105.125 C 7.983 105.423,8.138 105.667,8.207 105.667 C 8.277 105.667,8.333 105.817,8.333 106.000 C 8.333 106.183,8.408 106.333,8.500 106.333 C 8.592 106.333,8.667 106.483,8.667 106.667 C 8.667 106.850,8.742 107.000,8.833 107.000 C 8.925 107.000,9.000 107.117,9.000 107.260 C 9.000 107.490,9.161 107.818,10.022 109.346 C 10.148 109.568,10.288 109.787,10.334 109.833 C 10.380 109.879,10.529 110.142,10.667 110.417 C 10.804 110.692,10.957 110.954,11.007 111.000 C 11.057 111.046,11.313 111.515,11.576 112.042 C 11.839 112.569,12.117 113.000,12.194 113.000 C 12.271 113.000,12.333 113.112,12.333 113.250 C 12.333 113.388,12.408 113.500,12.500 113.500 C 12.592 113.500,12.667 113.598,12.667 113.719 C 12.667 113.839,12.817 114.098,13.000 114.295 C 13.183 114.492,13.333 114.731,13.333 114.826 C 13.333 114.922,13.408 115.000,13.500 115.000 C 13.592 115.000,13.667 115.112,13.667 115.250 C 13.667 115.388,13.742 115.500,13.833 115.500 C 13.925 115.500,14.000 115.595,14.000 115.710 C 14.000 115.826,14.169 116.107,14.375 116.335 C 14.581 116.563,14.856 116.956,14.986 117.208 C 15.117 117.460,15.285 117.667,15.361 117.667 C 15.438 117.667,15.500 117.742,15.500 117.835 C 15.500 117.927,15.725 118.238,16.000 118.526 C 16.275 118.814,16.500 119.118,16.500 119.203 C 16.500 119.387,17.296 120.476,17.706 120.853 C 17.868 121.001,18.000 121.196,18.000 121.286 C 18.000 121.377,18.206 121.670,18.458 121.937 C 18.710 122.205,19.140 122.722,19.413 123.087 C 20.075 123.972,24.627 128.500,24.854 128.500 C 24.952 128.500,25.243 128.725,25.500 129.000 C 25.757 129.275,26.053 129.500,26.157 129.500 C 26.262 129.500,26.504 129.646,26.696 129.825 C 27.114 130.214,28.030 130.667,28.400 130.667 C 28.547 130.667,28.667 130.742,28.667 130.833 C 28.667 130.925,28.817 131.000,29.000 131.000 C 29.183 131.000,29.333 131.075,29.333 131.167 C 29.333 131.258,29.521 131.333,29.750 131.333 C 29.979 131.333,30.167 131.408,30.167 131.500 C 30.167 131.592,30.392 131.667,30.667 131.667 C 30.942 131.667,31.167 131.742,31.167 131.833 C 31.167 131.925,31.500 132.000,31.907 132.000 C 32.314 132.000,32.693 132.075,32.750 132.167 C 32.808 132.260,33.610 132.333,34.583 132.333 C 35.557 132.333,36.359 132.260,36.417 132.167 C 36.473 132.075,36.965 132.000,37.510 132.000 C 38.059 132.000,38.500 131.926,38.500 131.833 C 38.500 131.742,38.800 131.667,39.167 131.667 C 39.533 131.667,39.833 131.592,39.833 131.500 C 39.833 131.408,40.058 131.333,40.333 131.333 C 40.608 131.333,40.833 131.258,40.833 131.167 C 40.833 131.075,41.021 131.000,41.250 131.000 C 41.479 131.000,41.667 130.925,41.667 130.833 C 41.667 130.742,41.862 130.667,42.100 130.667 C 42.491 130.667,43.262 130.396,44.039 129.986 C 44.199 129.902,44.442 129.833,44.581 129.833 C 44.720 129.833,44.833 129.758,44.833 129.667 C 44.833 129.575,44.979 129.500,45.157 129.500 C 45.335 129.500,45.527 129.425,45.583 129.333 C 45.640 129.242,45.832 129.167,46.010 129.167 C 46.188 129.167,46.333 129.092,46.333 129.000 C 46.333 128.908,46.516 128.833,46.740 128.833 C 46.964 128.833,47.193 128.758,47.250 128.667 C 47.307 128.575,47.499 128.500,47.677 128.500 C 47.854 128.500,48.000 128.430,48.000 128.345 C 48.000 128.260,48.413 128.139,48.917 128.076 C 49.421 128.013,49.833 127.895,49.833 127.814 C 49.833 127.733,50.091 127.667,50.407 127.667 C 50.722 127.667,51.027 127.592,51.083 127.500 C 51.140 127.408,51.552 127.333,52.000 127.333 C 52.448 127.333,52.860 127.258,52.917 127.167 C 52.980 127.064,54.391 127.000,56.593 127.000 C 58.864 127.000,60.167 127.061,60.167 127.167 C 60.167 127.258,60.542 127.333,61.000 127.333 C 61.458 127.333,61.833 127.408,61.833 127.500 C 61.833 127.592,62.091 127.667,62.407 127.667 C 62.722 127.667,63.022 127.735,63.074 127.818 C 63.125 127.901,63.542 128.020,64.000 128.083 C 64.458 128.146,64.833 128.266,64.833 128.349 C 64.833 128.432,65.016 128.500,65.240 128.500 C 65.464 128.500,65.693 128.575,65.750 128.667 C 65.807 128.758,65.999 128.833,66.177 128.833 C 66.354 128.833,66.500 128.908,66.500 129.000 C 66.500 129.092,66.650 129.167,66.833 129.167 C 67.017 129.167,67.167 129.242,67.167 129.333 C 67.167 129.425,67.354 129.500,67.583 129.500 C 67.813 129.500,68.000 129.575,68.000 129.667 C 68.000 129.758,68.150 129.833,68.333 129.833 C 68.517 129.833,68.667 129.908,68.667 130.000 C 68.667 130.092,68.808 130.167,68.981 130.167 C 69.154 130.167,69.510 130.279,69.773 130.416 C 70.035 130.553,70.456 130.665,70.708 130.666 C 70.960 130.666,71.167 130.742,71.167 130.833 C 71.167 130.925,71.354 131.000,71.583 131.000 C 71.813 131.000,72.000 131.075,72.000 131.167 C 72.000 131.258,72.221 131.333,72.490 131.333 C 72.760 131.333,73.027 131.408,73.083 131.500 C 73.140 131.592,73.477 131.667,73.833 131.667 C 74.189 131.667,74.527 131.742,74.583 131.833 C 74.646 131.935,75.891 132.000,77.760 132.000 C 79.698 132.000,80.833 131.938,80.833 131.833 C 80.833 131.742,81.171 131.667,81.583 131.667 C 81.996 131.667,82.333 131.592,82.333 131.500 C 82.333 131.408,82.558 131.333,82.833 131.333 C 83.108 131.333,83.333 131.258,83.333 131.167 C 83.333 131.075,83.447 131.000,83.586 131.000 C 83.724 131.000,83.968 130.937,84.127 130.860 C 85.984 129.964,86.333 129.772,86.333 129.646 C 86.333 129.566,86.467 129.500,86.630 129.500 C 86.793 129.500,87.035 129.350,87.167 129.167 C 87.299 128.983,87.492 128.833,87.597 128.833 C 87.701 128.833,88.049 128.590,88.369 128.292 C 88.689 127.994,89.206 127.566,89.517 127.341 C 90.102 126.918,92.044 124.918,92.489 124.279 C 92.628 124.080,92.987 123.670,93.288 123.369 C 93.588 123.068,93.833 122.750,93.833 122.661 C 93.833 122.573,94.133 122.191,94.500 121.813 C 94.867 121.436,95.167 121.041,95.167 120.937 C 95.167 120.832,95.317 120.653,95.500 120.539 C 95.683 120.424,95.833 120.251,95.833 120.153 C 95.833 120.056,95.927 119.872,96.042 119.744 C 96.551 119.175,96.667 119.000,96.667 118.794 C 96.667 118.673,96.817 118.465,97.000 118.333 C 97.183 118.201,97.333 118.014,97.333 117.917 C 97.333 117.820,97.483 117.632,97.667 117.500 C 97.850 117.368,98.000 117.183,98.000 117.088 C 98.000 116.994,98.188 116.699,98.417 116.432 C 98.646 116.166,98.833 115.847,98.833 115.724 C 98.833 115.601,98.896 115.500,98.972 115.500 C 99.048 115.500,99.217 115.294,99.347 115.042 C 99.477 114.790,99.715 114.438,99.875 114.260 C 100.035 114.083,100.167 113.839,100.167 113.719 C 100.167 113.598,100.242 113.500,100.333 113.500 C 100.425 113.500,100.500 113.428,100.500 113.341 C 100.500 113.253,100.688 112.905,100.917 112.567 C 101.146 112.230,101.333 111.841,101.333 111.705 C 101.333 111.568,101.470 111.334,101.638 111.186 C 101.805 111.038,102.048 110.673,102.178 110.375 C 102.308 110.077,102.471 109.833,102.541 109.833 C 102.610 109.833,102.667 109.683,102.667 109.500 C 102.667 109.317,102.742 109.167,102.833 109.167 C 102.925 109.167,103.000 109.017,103.000 108.833 C 103.000 108.650,103.057 108.500,103.127 108.500 C 103.282 108.500,103.833 107.263,103.833 106.916 C 103.833 106.779,103.908 106.667,104.000 106.667 C 104.092 106.667,104.167 106.523,104.167 106.347 C 104.167 106.172,104.223 106.003,104.292 105.972 C 104.360 105.942,104.594 105.542,104.810 105.083 C 105.026 104.625,105.270 104.120,105.352 103.961 C 105.433 103.801,105.500 103.558,105.500 103.419 C 105.500 103.280,105.564 103.167,105.641 103.167 C 105.787 103.167,106.333 101.640,106.333 101.231 C 106.333 101.104,106.408 101.000,106.500 101.000 C 106.592 101.000,106.667 100.813,106.667 100.583 C 106.667 100.354,106.742 100.167,106.833 100.167 C 106.925 100.167,107.000 99.942,107.000 99.667 C 107.000 99.392,107.075 99.167,107.167 99.167 C 107.258 99.167,107.333 98.942,107.333 98.667 C 107.333 98.392,107.408 98.167,107.500 98.167 C 107.592 98.167,107.667 97.979,107.667 97.750 C 107.667 97.521,107.742 97.333,107.833 97.333 C 108.081 97.333,108.035 96.845,107.762 96.571 C 107.631 96.440,107.410 96.333,107.272 96.333 C 107.133 96.333,106.977 96.264,106.925 96.179 C 106.872 96.095,106.605 95.976,106.331 95.916 C 106.057 95.856,105.833 95.738,105.833 95.653 C 105.833 95.569,105.718 95.500,105.576 95.500 C 105.435 95.500,105.158 95.350,104.962 95.167 C 104.765 94.983,104.505 94.833,104.385 94.833 C 104.265 94.833,104.167 94.758,104.167 94.667 C 104.167 94.575,104.054 94.500,103.917 94.500 C 103.779 94.500,103.667 94.441,103.667 94.368 C 103.667 94.295,103.293 94.014,102.837 93.743 C 102.380 93.472,102.005 93.194,102.003 93.125 C 102.001 93.056,101.855 93.000,101.678 93.000 C 101.501 93.000,101.310 92.869,101.254 92.708 C 101.199 92.548,100.857 92.192,100.494 91.917 C 99.223 90.951,99.082 90.841,98.961 90.713 C 98.120 89.823,97.152 88.749,96.750 88.257 C 96.475 87.921,96.175 87.557,96.083 87.448 C 95.992 87.339,95.810 87.044,95.680 86.792 C 95.550 86.540,95.381 86.333,95.305 86.333 C 95.229 86.333,95.167 86.237,95.167 86.120 C 95.167 86.003,95.017 85.799,94.833 85.667 C 94.650 85.535,94.500 85.327,94.500 85.206 C 94.500 85.085,94.354 84.829,94.175 84.637 C 93.996 84.445,93.803 84.073,93.745 83.811 C 93.687 83.548,93.571 83.333,93.487 83.333 C 93.402 83.333,93.333 83.183,93.333 83.000 C 93.333 82.817,93.258 82.667,93.167 82.667 C 93.075 82.667,93.000 82.517,93.000 82.333 C 93.000 82.150,92.925 82.000,92.833 82.000 C 92.742 82.000,92.667 81.850,92.667 81.667 C 92.667 81.483,92.592 81.333,92.500 81.333 C 92.408 81.333,92.333 81.146,92.333 80.917 C 92.333 80.688,92.258 80.500,92.167 80.500 C 92.075 80.500,92.000 80.317,92.000 80.093 C 92.000 79.869,91.925 79.640,91.833 79.583 C 91.742 79.527,91.667 79.297,91.667 79.073 C 91.667 78.850,91.602 78.667,91.523 78.667 C 91.389 78.667,91.098 77.207,90.892 75.500 C 90.842 75.087,90.733 74.679,90.651 74.592 C 90.568 74.505,90.500 73.853,90.500 73.143 C 90.500 72.434,90.425 71.807,90.333 71.750 C 90.240 71.693,90.167 70.918,90.167 70.000 C 90.167 69.082,90.240 68.307,90.333 68.250 C 90.425 68.193,90.500 67.556,90.500 66.833 C 90.500 66.111,90.575 65.473,90.667 65.417 C 90.758 65.360,90.833 64.985,90.833 64.583 C 90.833 64.182,90.901 63.811,90.984 63.760 C 91.066 63.709,91.186 63.217,91.250 62.667 C 91.314 62.117,91.434 61.667,91.516 61.667 C 91.599 61.667,91.667 61.442,91.667 61.167 C 91.667 60.892,91.742 60.667,91.833 60.667 C 91.925 60.667,92.000 60.479,92.000 60.250 C 92.000 60.021,92.075 59.833,92.167 59.833 C 92.258 59.833,92.333 59.683,92.333 59.500 C 92.333 59.317,92.408 59.167,92.500 59.167 C 92.592 59.167,92.667 58.979,92.667 58.750 C 92.667 58.521,92.742 58.333,92.833 58.333 C 92.925 58.333,93.000 58.183,93.000 58.000 C 93.000 57.817,93.075 57.667,93.167 57.667 C 93.258 57.667,93.333 57.549,93.333 57.405 C 93.333 57.261,93.446 57.030,93.583 56.893 C 93.721 56.755,93.833 56.498,93.833 56.321 C 93.833 56.145,93.908 56.000,94.000 56.000 C 94.092 56.000,94.167 55.887,94.167 55.750 C 94.167 55.612,94.229 55.500,94.305 55.500 C 94.381 55.500,94.550 55.294,94.680 55.042 C 94.810 54.790,95.048 54.438,95.208 54.260 C 95.369 54.083,95.500 53.847,95.500 53.736 C 95.500 53.626,95.613 53.492,95.751 53.439 C 95.890 53.386,96.096 53.136,96.210 52.883 C 96.532 52.167,101.287 47.333,101.669 47.333 C 101.732 47.333,102.019 47.108,102.307 46.833 C 102.595 46.558,102.880 46.333,102.941 46.333 C 103.002 46.333,103.298 46.146,103.598 45.917 C 103.899 45.688,104.224 45.500,104.322 45.500 C 104.639 45.500,104.517 44.586,104.167 44.333 C 103.983 44.201,103.833 44.001,103.833 43.887 C 103.833 43.774,103.646 43.494,103.417 43.265 C 103.188 43.036,103.000 42.779,103.000 42.694 C 103.000 42.610,102.704 42.250,102.342 41.895 C 101.980 41.540,101.586 41.152,101.467 41.031 C 101.347 40.911,100.771 40.330,100.185 39.740 C 99.600 39.150,99.056 38.667,98.977 38.667 C 98.898 38.667,98.525 38.367,98.147 38.000 C 97.769 37.633,97.391 37.333,97.306 37.333 C 97.222 37.333,97.002 37.193,96.819 37.022 C 96.635 36.851,96.207 36.570,95.867 36.397 C 95.528 36.225,95.225 36.027,95.194 35.958 C 95.164 35.890,94.995 35.833,94.819 35.833 C 94.644 35.833,94.500 35.758,94.500 35.667 C 94.500 35.575,94.350 35.500,94.167 35.500 C 93.983 35.500,93.833 35.425,93.833 35.333 C 93.833 35.242,93.721 35.167,93.583 35.167 C 93.446 35.167,93.333 35.092,93.333 35.000 C 93.333 34.908,93.183 34.833,93.000 34.833 C 92.817 34.833,92.667 34.758,92.667 34.667 C 92.667 34.575,92.523 34.500,92.347 34.500 C 92.172 34.500,92.003 34.444,91.972 34.375 C 91.893 34.196,90.321 33.665,89.875 33.666 C 89.669 33.666,89.500 33.592,89.500 33.500 C 89.500 33.408,89.317 33.333,89.093 33.333 C 88.869 33.333,88.640 33.258,88.583 33.167 C 88.527 33.075,88.302 33.000,88.083 33.000 C 87.865 33.000,87.640 32.925,87.583 32.833 C 87.527 32.742,87.222 32.667,86.907 32.667 C 86.591 32.667,86.333 32.592,86.333 32.500 C 86.333 32.408,86.000 32.333,85.593 32.333 C 85.186 32.333,84.807 32.258,84.750 32.167 C 84.693 32.075,84.243 32.000,83.750 32.000 C 83.257 32.000,82.807 31.925,82.750 31.833 C 82.686 31.730,81.140 31.667,78.667 31.667 C 76.193 31.667,74.647 31.730,74.583 31.833 M269.167 41.350 C 266.029 41.555,264.933 41.679,264.758 41.847 C 264.671 41.931,264.282 42.000,263.893 42.000 C 263.504 42.000,263.140 42.075,263.083 42.167 C 263.027 42.258,262.689 42.333,262.333 42.333 C 261.977 42.333,261.640 42.408,261.583 42.500 C 261.527 42.592,261.264 42.667,261.000 42.667 C 260.736 42.667,260.473 42.742,260.417 42.833 C 260.360 42.925,260.093 43.000,259.823 43.000 C 259.554 43.000,259.333 43.075,259.333 43.167 C 259.333 43.258,259.108 43.333,258.833 43.333 C 258.558 43.333,258.333 43.399,258.333 43.479 C 258.333 43.558,257.961 43.673,257.507 43.733 C 257.052 43.794,256.635 43.916,256.580 44.005 C 256.525 44.094,256.335 44.167,256.157 44.167 C 255.979 44.167,255.833 44.242,255.833 44.333 C 255.833 44.425,255.690 44.500,255.516 44.500 C 255.176 44.500,253.787 45.167,253.694 45.375 C 253.664 45.444,253.495 45.500,253.319 45.500 C 253.144 45.500,253.000 45.575,253.000 45.667 C 253.000 45.758,252.850 45.833,252.667 45.833 C 252.483 45.833,252.333 45.890,252.333 45.958 C 252.332 46.027,251.995 46.222,251.583 46.392 C 251.171 46.561,250.833 46.767,250.833 46.850 C 250.833 46.932,250.690 47.000,250.514 47.000 C 250.338 47.000,250.169 47.056,250.139 47.125 C 250.046 47.334,248.699 48.333,248.510 48.333 C 248.413 48.333,248.333 48.396,248.333 48.473 C 248.333 48.550,248.137 48.703,247.897 48.812 C 247.325 49.073,244.865 51.410,243.291 53.188 C 241.950 54.704,241.799 54.902,241.631 55.375 C 241.541 55.627,241.400 55.833,241.317 55.833 C 241.234 55.833,241.167 55.911,241.167 56.007 C 241.167 56.102,241.017 56.342,240.833 56.538 C 240.650 56.735,240.500 56.995,240.500 57.115 C 240.500 57.235,240.425 57.333,240.333 57.333 C 240.242 57.333,240.167 57.483,240.167 57.667 C 240.167 57.850,240.092 58.000,240.000 58.000 C 239.908 58.000,239.833 58.150,239.833 58.333 C 239.833 58.517,239.773 58.667,239.700 58.667 C 239.541 58.667,238.998 60.121,238.999 60.542 C 239.000 60.702,238.925 60.833,238.833 60.833 C 238.742 60.833,238.667 61.021,238.667 61.250 C 238.667 61.479,238.592 61.667,238.500 61.667 C 238.408 61.667,238.333 61.892,238.333 62.167 C 238.333 62.442,238.258 62.667,238.167 62.667 C 238.075 62.667,238.000 62.967,238.000 63.333 C 238.000 63.700,237.925 64.000,237.833 64.000 C 237.742 64.000,237.667 64.371,237.667 64.823 C 237.667 65.276,237.592 65.693,237.500 65.750 C 237.407 65.807,237.333 66.585,237.333 67.510 L 237.333 69.167 246.083 69.167 L 254.833 69.167 254.833 68.750 C 254.833 68.521,254.908 68.333,255.000 68.333 C 255.092 68.333,255.167 68.113,255.167 67.843 C 255.167 67.574,255.242 67.307,255.333 67.250 C 255.425 67.193,255.500 66.964,255.500 66.740 C 255.500 66.516,255.575 66.333,255.667 66.333 C 255.758 66.333,255.833 66.188,255.833 66.010 C 255.833 65.832,255.903 65.644,255.987 65.591 C 256.072 65.539,256.190 65.272,256.250 64.998 C 256.311 64.724,256.429 64.500,256.513 64.500 C 256.598 64.500,256.667 64.367,256.667 64.203 C 256.667 64.040,256.817 63.799,257.000 63.667 C 257.183 63.535,257.333 63.365,257.333 63.291 C 257.333 63.216,257.577 62.904,257.875 62.597 C 258.173 62.290,258.654 61.786,258.944 61.478 C 259.563 60.820,259.759 60.665,260.375 60.347 C 260.627 60.217,260.833 60.048,260.833 59.972 C 260.833 59.896,260.929 59.833,261.047 59.833 C 261.164 59.833,261.368 59.683,261.500 59.500 C 261.632 59.317,261.874 59.167,262.037 59.167 C 262.200 59.167,262.333 59.092,262.333 59.000 C 262.333 58.908,262.483 58.833,262.667 58.833 C 262.850 58.833,263.000 58.758,263.000 58.667 C 263.000 58.575,263.131 58.500,263.292 58.499 C 263.452 58.498,263.798 58.386,264.061 58.249 C 264.323 58.112,264.680 58.000,264.852 58.000 C 265.025 58.000,265.167 57.925,265.167 57.833 C 265.167 57.742,265.350 57.667,265.573 57.667 C 265.797 57.667,266.027 57.592,266.083 57.500 C 266.140 57.408,266.440 57.333,266.750 57.333 C 267.060 57.333,267.360 57.258,267.417 57.167 C 267.473 57.075,267.890 57.000,268.343 57.000 C 268.796 57.000,269.167 56.925,269.167 56.833 C 269.167 56.728,270.413 56.667,272.573 56.667 C 274.665 56.667,276.020 56.731,276.083 56.833 C 276.140 56.925,276.594 57.000,277.093 57.000 C 277.592 57.000,278.000 57.075,278.000 57.167 C 278.000 57.258,278.300 57.333,278.667 57.333 C 279.033 57.333,279.333 57.408,279.333 57.500 C 279.333 57.592,279.554 57.667,279.823 57.667 C 280.093 57.667,280.360 57.742,280.417 57.833 C 280.473 57.925,280.657 58.000,280.824 58.000 C 280.992 58.000,281.343 58.112,281.606 58.249 C 281.869 58.386,282.215 58.498,282.375 58.499 C 282.535 58.500,282.667 58.575,282.667 58.667 C 282.667 58.758,282.817 58.833,283.000 58.833 C 283.183 58.833,283.333 58.908,283.333 59.000 C 283.333 59.092,283.467 59.167,283.630 59.167 C 283.793 59.167,284.035 59.317,284.167 59.500 C 284.299 59.683,284.463 59.833,284.531 59.833 C 284.688 59.833,285.719 60.740,286.399 61.477 C 286.684 61.785,287.085 62.213,287.292 62.427 C 287.498 62.642,287.667 62.880,287.667 62.956 C 287.667 63.031,287.817 63.201,288.000 63.333 C 288.183 63.465,288.333 63.707,288.333 63.870 C 288.333 64.033,288.408 64.167,288.500 64.167 C 288.592 64.167,288.667 64.317,288.667 64.500 C 288.667 64.683,288.737 64.833,288.823 64.833 C 288.909 64.833,289.030 65.171,289.092 65.583 C 289.154 65.996,289.271 66.333,289.352 66.333 C 289.434 66.333,289.500 66.591,289.500 66.907 C 289.500 67.222,289.575 67.527,289.667 67.583 C 289.758 67.640,289.833 68.052,289.833 68.500 C 289.833 68.948,289.908 69.360,290.000 69.417 C 290.104 69.481,290.167 71.113,290.167 73.760 L 290.167 78.000 289.750 78.000 C 289.521 78.000,289.333 78.064,289.333 78.142 C 289.333 78.266,286.688 78.393,276.333 78.764 C 275.004 78.812,273.845 78.922,273.758 79.009 C 273.671 79.096,272.415 79.167,270.967 79.167 C 269.322 79.167,268.333 79.229,268.333 79.333 C 268.333 79.436,267.500 79.500,266.167 79.500 C 264.833 79.500,264.000 79.564,264.000 79.667 C 264.000 79.765,263.417 79.833,262.583 79.833 C 261.750 79.833,261.167 79.902,261.167 80.000 C 261.167 80.094,260.694 80.167,260.083 80.167 C 259.472 80.167,259.000 80.239,259.000 80.333 C 259.000 80.425,258.587 80.500,258.083 80.500 C 257.579 80.500,257.167 80.566,257.167 80.647 C 257.167 80.728,256.605 80.847,255.918 80.911 C 255.231 80.976,254.626 81.097,254.575 81.181 C 254.523 81.265,254.222 81.333,253.907 81.333 C 253.591 81.333,253.333 81.408,253.333 81.500 C 253.333 81.592,253.071 81.667,252.750 81.667 C 252.429 81.667,252.167 81.742,252.167 81.833 C 252.167 81.925,251.942 82.000,251.667 82.000 C 251.392 82.000,251.167 82.075,251.167 82.167 C 251.167 82.258,250.942 82.333,250.667 82.333 C 250.392 82.333,250.167 82.408,250.167 82.500 C 250.167 82.592,249.979 82.667,249.750 82.667 C 249.521 82.667,249.333 82.742,249.333 82.833 C 249.333 82.925,249.183 83.000,249.000 83.000 C 248.817 83.000,248.667 83.075,248.667 83.167 C 248.667 83.258,248.498 83.334,248.292 83.334 C 248.085 83.335,247.702 83.447,247.439 83.584 C 247.177 83.721,246.858 83.833,246.731 83.833 C 246.604 83.833,246.500 83.908,246.500 84.000 C 246.500 84.092,246.350 84.167,246.167 84.167 C 245.983 84.167,245.833 84.242,245.833 84.333 C 245.833 84.425,245.683 84.500,245.500 84.500 C 245.317 84.500,245.167 84.575,245.167 84.667 C 245.167 84.758,245.054 84.833,244.917 84.833 C 244.779 84.833,244.667 84.908,244.667 85.000 C 244.667 85.092,244.554 85.167,244.417 85.167 C 244.279 85.167,244.167 85.242,244.167 85.333 C 244.167 85.425,244.060 85.500,243.931 85.500 C 243.801 85.500,243.669 85.556,243.639 85.625 C 243.608 85.694,243.287 85.900,242.925 86.083 C 242.563 86.267,241.978 86.698,241.626 87.042 C 241.274 87.385,240.905 87.667,240.806 87.667 C 240.623 87.667,237.667 90.572,237.667 90.751 C 237.667 90.805,237.471 91.044,237.233 91.283 C 236.994 91.521,236.724 91.930,236.633 92.192 C 236.542 92.453,236.400 92.667,236.317 92.667 C 236.234 92.667,236.167 92.782,236.167 92.924 C 236.167 93.065,236.032 93.326,235.866 93.503 C 235.439 93.962,234.833 95.141,234.833 95.516 C 234.833 95.690,234.777 95.833,234.707 95.833 C 234.504 95.833,234.179 96.700,234.062 97.548 C 234.003 97.980,233.890 98.333,233.811 98.333 C 233.731 98.333,233.667 98.596,233.667 98.917 C 233.667 99.237,233.592 99.500,233.500 99.500 C 233.408 99.500,233.333 99.833,233.333 100.240 C 233.333 100.647,233.258 101.027,233.167 101.083 C 233.075 101.140,233.000 101.887,233.000 102.750 C 233.000 103.613,232.925 104.360,232.833 104.417 C 232.742 104.473,232.667 105.036,232.667 105.667 C 232.667 106.298,232.742 106.860,232.833 106.917 C 232.925 106.973,233.000 107.721,233.000 108.583 C 233.000 109.446,233.075 110.193,233.167 110.250 C 233.258 110.307,233.333 110.724,233.333 111.177 C 233.333 111.629,233.408 112.000,233.500 112.000 C 233.592 112.000,233.667 112.263,233.667 112.583 C 233.667 112.904,233.732 113.167,233.812 113.167 C 233.892 113.167,234.008 113.548,234.070 114.015 C 234.131 114.481,234.254 115.006,234.341 115.181 C 234.428 115.357,234.575 115.649,234.667 115.831 C 234.758 116.013,234.833 116.276,234.833 116.414 C 234.833 116.553,234.908 116.667,235.000 116.667 C 235.092 116.667,235.167 116.817,235.167 117.000 C 235.167 117.183,235.242 117.333,235.333 117.333 C 235.425 117.333,235.500 117.483,235.500 117.667 C 235.500 117.850,235.575 118.000,235.667 118.000 C 235.758 118.000,235.833 118.112,235.833 118.250 C 235.833 118.388,235.908 118.500,236.000 118.500 C 236.092 118.500,236.167 118.650,236.167 118.833 C 236.167 119.017,236.240 119.167,236.330 119.167 C 236.420 119.167,236.539 119.349,236.595 119.571 C 236.651 119.793,236.840 120.105,237.015 120.264 C 237.190 120.422,237.333 120.622,237.333 120.709 C 237.333 120.795,237.558 121.076,237.833 121.333 C 238.108 121.590,238.333 121.882,238.333 121.982 C 238.333 122.201,241.615 125.500,241.833 125.500 C 241.916 125.500,242.172 125.687,242.402 125.917 C 242.631 126.146,242.878 126.334,242.951 126.334 C 243.024 126.334,243.346 126.560,243.667 126.836 C 243.987 127.112,244.456 127.430,244.708 127.543 C 244.960 127.656,245.167 127.799,245.167 127.861 C 245.167 127.923,245.392 128.023,245.667 128.083 C 245.942 128.144,246.167 128.262,246.167 128.347 C 246.167 128.431,246.317 128.500,246.500 128.500 C 246.683 128.500,246.833 128.557,246.833 128.626 C 246.833 128.695,247.077 128.850,247.375 128.970 C 247.673 129.090,248.047 129.259,248.206 129.344 C 248.365 129.430,248.609 129.500,248.748 129.500 C 248.886 129.500,249.000 129.575,249.000 129.667 C 249.000 129.758,249.114 129.833,249.252 129.833 C 249.391 129.833,249.635 129.906,249.794 129.995 C 250.313 130.284,251.667 130.667,252.172 130.667 C 252.444 130.667,252.667 130.742,252.667 130.833 C 252.667 130.925,252.967 131.000,253.333 131.000 C 253.700 131.000,254.000 131.075,254.000 131.167 C 254.000 131.258,254.338 131.333,254.750 131.333 C 255.162 131.333,255.500 131.408,255.500 131.500 C 255.500 131.592,255.908 131.667,256.407 131.667 C 256.906 131.667,257.360 131.742,257.417 131.833 C 257.477 131.931,258.418 132.000,259.677 132.000 C 261.003 132.000,261.833 132.064,261.833 132.167 C 261.833 132.258,262.241 132.333,262.740 132.333 C 263.239 132.333,263.693 132.258,263.750 132.167 C 263.809 132.071,264.693 132.000,265.833 132.000 C 266.974 132.000,267.857 131.929,267.917 131.833 C 267.973 131.742,268.428 131.667,268.927 131.667 C 269.425 131.667,269.833 131.592,269.833 131.500 C 269.833 131.408,270.133 131.333,270.500 131.333 C 270.867 131.333,271.167 131.258,271.167 131.167 C 271.167 131.075,271.429 131.000,271.750 131.000 C 272.071 131.000,272.333 130.925,272.333 130.833 C 272.333 130.742,272.556 130.667,272.828 130.667 C 273.527 130.667,274.912 130.212,276.307 129.524 C 276.706 129.327,277.174 129.167,277.349 129.167 C 277.524 129.167,277.667 129.106,277.667 129.031 C 277.667 128.957,277.929 128.793,278.250 128.667 C 278.571 128.541,278.833 128.377,278.833 128.302 C 278.833 128.228,278.953 128.167,279.099 128.167 C 279.393 128.167,280.385 127.655,280.472 127.458 C 280.503 127.390,280.622 127.333,280.738 127.333 C 280.854 127.333,281.084 127.183,281.250 127.000 C 281.416 126.817,281.636 126.667,281.739 126.667 C 281.842 126.667,282.035 126.517,282.167 126.333 C 282.299 126.150,282.540 126.000,282.703 126.000 C 282.867 126.000,283.001 125.944,283.001 125.875 C 283.002 125.806,283.282 125.563,283.623 125.333 C 284.306 124.875,288.667 120.569,288.667 120.353 C 288.667 120.279,288.854 120.001,289.083 119.734 C 289.312 119.468,289.500 119.191,289.500 119.118 C 289.500 119.045,289.650 118.825,289.833 118.628 C 290.016 118.432,290.260 118.060,290.374 117.802 C 290.791 116.860,290.833 117.461,290.833 124.333 L 290.833 131.333 299.833 131.333 L 308.833 131.333 308.823 99.208 C 308.817 80.655,308.748 66.590,308.659 65.917 C 308.367 63.697,308.297 63.331,308.149 63.239 C 308.067 63.188,308.000 62.889,308.000 62.573 C 308.000 62.258,307.925 62.000,307.833 62.000 C 307.742 62.000,307.667 61.886,307.667 61.747 C 307.667 61.343,307.264 60.167,307.126 60.167 C 307.057 60.167,307.000 60.032,307.000 59.867 C 307.000 59.494,306.627 58.670,306.458 58.668 C 306.390 58.667,306.333 58.543,306.333 58.392 C 306.333 58.131,305.536 56.345,305.341 56.167 C 305.291 56.121,305.143 55.877,305.013 55.625 C 304.883 55.373,304.715 55.167,304.639 55.167 C 304.562 55.167,304.500 55.073,304.500 54.958 C 304.499 54.844,304.275 54.487,304.000 54.167 C 303.725 53.846,303.501 53.534,303.500 53.473 C 303.500 53.378,302.286 52.027,301.381 51.116 C 300.427 50.155,298.744 48.667,298.611 48.667 C 298.526 48.667,298.334 48.535,298.186 48.374 C 298.038 48.213,297.710 47.975,297.458 47.846 C 297.206 47.716,297.000 47.548,297.000 47.472 C 297.000 47.396,296.897 47.333,296.770 47.333 C 296.644 47.333,296.442 47.214,296.321 47.068 C 296.200 46.922,295.741 46.646,295.300 46.454 C 294.860 46.261,294.500 46.043,294.500 45.969 C 294.500 45.894,294.356 45.833,294.181 45.833 C 294.005 45.833,293.836 45.777,293.806 45.708 C 293.713 45.501,292.324 44.833,291.984 44.833 C 291.810 44.833,291.666 44.777,291.665 44.708 C 291.664 44.563,290.861 44.167,290.569 44.167 C 290.460 44.167,290.157 44.055,289.894 43.918 C 289.631 43.781,289.210 43.668,288.958 43.668 C 288.706 43.667,288.500 43.592,288.500 43.500 C 288.500 43.408,288.237 43.333,287.917 43.333 C 287.596 43.333,287.333 43.258,287.333 43.167 C 287.333 43.075,287.108 43.000,286.833 43.000 C 286.558 43.000,286.333 42.925,286.333 42.833 C 286.333 42.742,286.075 42.667,285.760 42.667 C 285.444 42.667,285.140 42.592,285.083 42.500 C 285.027 42.408,284.647 42.333,284.240 42.333 C 283.833 42.333,283.500 42.258,283.500 42.167 C 283.500 42.075,283.087 42.000,282.583 42.000 C 282.079 42.000,281.667 41.925,281.667 41.833 C 281.667 41.741,281.219 41.667,280.656 41.667 C 280.100 41.667,279.518 41.600,279.364 41.519 C 278.963 41.309,271.643 41.187,269.167 41.350 M315.833 42.915 C 315.833 43.237,315.908 43.500,316.000 43.500 C 316.092 43.500,316.167 43.725,316.167 44.000 C 316.167 44.275,316.242 44.500,316.333 44.500 C 316.425 44.500,316.500 44.628,316.500 44.783 C 316.500 45.234,317.061 47.000,317.204 47.000 C 317.275 47.000,317.333 47.183,317.333 47.407 C 317.333 47.631,317.408 47.860,317.500 47.917 C 317.592 47.973,317.667 48.203,317.667 48.427 C 317.667 48.650,317.742 48.833,317.833 48.833 C 317.925 48.833,318.000 49.016,318.000 49.240 C 318.000 49.464,318.075 49.693,318.167 49.750 C 318.258 49.807,318.333 49.999,318.333 50.177 C 318.333 50.354,318.408 50.500,318.500 50.500 C 318.592 50.500,318.667 50.688,318.667 50.917 C 318.667 51.146,318.732 51.333,318.812 51.333 C 318.892 51.333,319.006 51.705,319.067 52.160 C 319.127 52.614,319.249 53.031,319.338 53.086 C 319.427 53.141,319.500 53.332,319.500 53.510 C 319.500 53.688,319.575 53.833,319.667 53.833 C 319.758 53.833,319.833 54.058,319.833 54.333 C 319.833 54.608,319.908 54.833,320.000 54.833 C 320.092 54.833,320.167 55.016,320.167 55.240 C 320.167 55.464,320.242 55.693,320.333 55.750 C 320.425 55.807,320.500 56.036,320.500 56.260 C 320.500 56.484,320.575 56.667,320.667 56.667 C 320.758 56.667,320.833 56.812,320.833 56.990 C 320.833 57.168,320.908 57.360,321.000 57.417 C 321.092 57.473,321.167 57.703,321.167 57.927 C 321.167 58.150,321.242 58.333,321.333 58.333 C 321.425 58.333,321.500 58.481,321.500 58.661 C 321.500 59.030,321.926 60.432,322.172 60.873 C 322.261 61.032,322.333 61.276,322.333 61.414 C 322.333 61.553,322.408 61.667,322.500 61.667 C 322.592 61.667,322.667 61.892,322.667 62.167 C 322.667 62.442,322.742 62.667,322.833 62.667 C 322.925 62.667,323.000 62.854,323.000 63.083 C 323.000 63.313,323.075 63.500,323.167 63.500 C 323.258 63.500,323.333 63.651,323.333 63.836 C 323.333 64.020,323.408 64.320,323.500 64.502 C 323.908 65.313,323.964 65.460,324.072 66.005 C 324.135 66.323,324.267 66.771,324.365 67.000 C 324.464 67.229,324.618 67.604,324.708 67.833 C 324.799 68.063,324.938 68.380,325.019 68.539 C 325.100 68.699,325.167 68.980,325.167 69.164 C 325.167 69.349,325.242 69.500,325.333 69.500 C 325.425 69.500,325.500 69.725,325.500 70.000 C 325.500 70.275,325.575 70.500,325.667 70.500 C 325.758 70.500,325.833 70.688,325.833 70.917 C 325.833 71.146,325.908 71.333,326.000 71.333 C 326.092 71.333,326.167 71.516,326.167 71.740 C 326.167 71.964,326.235 72.189,326.319 72.241 C 326.403 72.293,326.522 72.634,326.583 73.000 C 326.645 73.366,326.764 73.707,326.848 73.759 C 326.932 73.811,327.000 74.000,327.000 74.179 C 327.000 74.358,327.087 74.672,327.193 74.877 C 327.597 75.659,327.667 75.836,327.667 76.081 C 327.667 76.220,327.742 76.333,327.833 76.333 C 327.925 76.333,328.000 76.558,328.000 76.833 C 328.000 77.108,328.075 77.333,328.167 77.333 C 328.258 77.333,328.333 77.516,328.333 77.740 C 328.333 77.964,328.408 78.193,328.500 78.250 C 328.592 78.307,328.667 78.536,328.667 78.760 C 328.667 78.984,328.733 79.167,328.814 79.167 C 328.896 79.167,329.013 79.502,329.074 79.913 C 329.136 80.323,329.257 80.703,329.343 80.756 C 329.429 80.809,329.500 81.036,329.500 81.260 C 329.500 81.484,329.575 81.667,329.667 81.667 C 329.758 81.667,329.833 81.818,329.833 82.002 C 329.833 82.187,329.920 82.506,330.026 82.711 C 330.430 83.493,330.500 83.670,330.500 83.914 C 330.500 84.053,330.575 84.167,330.667 84.167 C 330.758 84.167,330.833 84.392,330.833 84.667 C 330.833 84.942,330.908 85.167,331.000 85.167 C 331.092 85.167,331.167 85.354,331.167 85.583 C 331.167 85.813,331.242 86.000,331.333 86.000 C 331.425 86.000,331.500 86.206,331.501 86.458 C 331.502 86.710,331.614 87.131,331.751 87.394 C 331.888 87.657,332.000 88.013,332.000 88.186 C 332.000 88.359,332.075 88.500,332.167 88.500 C 332.258 88.500,332.333 88.725,332.333 89.000 C 332.333 89.275,332.408 89.500,332.500 89.500 C 332.592 89.500,332.667 89.688,332.667 89.917 C 332.667 90.146,332.742 90.333,332.833 90.333 C 332.925 90.333,333.000 90.479,333.000 90.657 C 333.000 90.835,333.075 91.027,333.167 91.083 C 333.258 91.140,333.333 91.369,333.333 91.593 C 333.333 91.817,333.408 92.000,333.500 92.000 C 333.592 92.000,333.667 92.183,333.667 92.407 C 333.667 92.631,333.732 92.854,333.811 92.903 C 333.891 92.952,334.005 93.298,334.065 93.670 C 334.124 94.043,334.247 94.495,334.336 94.674 C 334.426 94.853,334.575 95.149,334.667 95.331 C 334.758 95.513,334.833 95.813,334.833 95.998 C 334.833 96.182,334.908 96.333,335.000 96.333 C 335.092 96.333,335.167 96.516,335.167 96.740 C 335.167 96.964,335.242 97.193,335.333 97.250 C 335.425 97.307,335.500 97.536,335.500 97.760 C 335.500 97.984,335.575 98.167,335.667 98.167 C 335.758 98.167,335.833 98.317,335.833 98.500 C 335.833 98.683,335.908 98.833,336.000 98.833 C 336.092 98.833,336.167 99.058,336.167 99.333 C 336.167 99.608,336.242 99.833,336.333 99.833 C 336.425 99.833,336.500 99.961,336.500 100.117 C 336.500 100.567,337.061 102.333,337.204 102.333 C 337.275 102.333,337.333 102.521,337.333 102.750 C 337.333 102.979,337.408 103.167,337.500 103.167 C 337.592 103.167,337.667 103.392,337.667 103.667 C 337.667 103.942,337.742 104.167,337.833 104.167 C 337.925 104.167,338.000 104.318,338.000 104.502 C 338.000 104.687,338.087 105.006,338.193 105.211 C 338.597 105.993,338.667 106.170,338.667 106.414 C 338.667 106.553,338.732 106.667,338.812 106.667 C 338.892 106.667,339.006 107.039,339.067 107.493 C 339.127 107.948,339.234 108.355,339.305 108.399 C 339.376 108.443,339.537 108.859,339.664 109.323 C 339.790 109.787,339.955 110.167,340.030 110.167 C 340.105 110.167,340.167 110.354,340.167 110.583 C 340.167 110.813,340.242 111.000,340.333 111.000 C 340.425 111.000,340.500 111.225,340.500 111.500 C 340.500 111.775,340.575 112.000,340.667 112.000 C 340.758 112.000,340.833 112.188,340.833 112.417 C 340.833 112.646,340.908 112.833,341.000 112.833 C 341.092 112.833,341.167 112.979,341.167 113.157 C 341.167 113.335,341.242 113.527,341.333 113.583 C 341.425 113.640,341.500 113.829,341.500 114.004 C 341.500 114.318,341.867 115.563,342.175 116.292 C 342.262 116.498,342.417 116.873,342.519 117.125 C 342.622 117.377,342.772 117.714,342.853 117.873 C 342.934 118.032,343.000 118.313,343.000 118.498 C 343.000 118.682,343.075 118.833,343.167 118.833 C 343.258 118.833,343.333 119.058,343.333 119.333 C 343.333 119.608,343.408 119.833,343.500 119.833 C 343.592 119.833,343.667 120.021,343.667 120.250 C 343.667 120.479,343.737 120.667,343.823 120.667 C 343.909 120.667,344.030 121.005,344.092 121.419 C 344.154 121.832,344.271 122.212,344.353 122.262 C 344.434 122.312,344.500 122.536,344.500 122.760 C 344.500 122.984,344.575 123.167,344.667 123.167 C 344.758 123.167,344.833 123.318,344.833 123.502 C 344.833 123.687,344.908 123.987,345.000 124.169 C 345.092 124.351,345.242 124.649,345.333 124.831 C 345.425 125.013,345.500 125.276,345.500 125.414 C 345.500 125.553,345.575 125.667,345.667 125.667 C 345.758 125.667,345.833 125.892,345.833 126.167 C 345.833 126.442,345.908 126.667,346.000 126.667 C 346.092 126.667,346.167 126.850,346.167 127.073 C 346.167 127.297,346.235 127.523,346.319 127.574 C 346.403 127.626,346.522 127.968,346.583 128.333 C 346.645 128.699,346.764 129.041,346.848 129.092 C 346.932 129.144,347.000 129.365,347.000 129.583 C 347.000 129.802,347.075 130.027,347.167 130.083 C 347.258 130.140,347.333 130.369,347.333 130.593 C 347.333 130.817,347.408 131.000,347.500 131.000 C 347.592 131.000,347.667 131.150,347.667 131.333 C 347.667 131.517,347.592 131.667,347.500 131.667 C 347.408 131.667,347.333 131.892,347.333 132.167 C 347.333 132.442,347.258 132.667,347.167 132.667 C 347.075 132.667,347.000 132.850,347.000 133.073 C 347.000 133.297,346.930 133.523,346.845 133.576 C 346.760 133.629,346.639 134.083,346.576 134.586 C 346.513 135.089,346.395 135.500,346.314 135.500 C 346.233 135.500,346.167 135.683,346.167 135.907 C 346.167 136.131,346.092 136.360,346.000 136.417 C 345.908 136.473,345.833 136.703,345.833 136.927 C 345.833 137.150,345.758 137.333,345.667 137.333 C 345.575 137.333,345.500 137.484,345.500 137.669 C 345.500 137.854,345.425 138.154,345.333 138.336 C 345.242 138.518,345.092 138.816,345.000 138.998 C 344.908 139.180,344.833 139.442,344.833 139.581 C 344.833 139.720,344.758 139.833,344.667 139.833 C 344.575 139.833,344.500 139.983,344.500 140.167 C 344.500 140.350,344.428 140.500,344.341 140.500 C 344.253 140.500,344.133 140.763,344.072 141.083 C 344.012 141.404,343.896 141.667,343.815 141.667 C 343.733 141.667,343.667 141.800,343.667 141.963 C 343.667 142.126,343.517 142.368,343.333 142.500 C 343.150 142.632,343.000 142.799,343.000 142.872 C 343.000 142.944,342.775 143.238,342.500 143.526 C 342.225 143.814,342.000 144.116,342.000 144.198 C 342.000 144.280,341.924 144.438,341.830 144.549 C 341.737 144.659,341.531 144.903,341.372 145.091 C 341.213 145.278,340.727 145.653,340.292 145.924 C 339.857 146.195,339.500 146.473,339.500 146.542 C 339.500 146.610,339.387 146.667,339.250 146.667 C 339.112 146.667,339.000 146.733,339.000 146.814 C 339.000 146.895,338.869 147.003,338.708 147.054 C 338.548 147.104,338.229 147.254,338.000 147.387 C 337.062 147.929,335.926 148.283,334.583 148.451 C 334.217 148.497,333.845 148.601,333.758 148.684 C 333.524 148.905,325.776 148.876,325.553 148.653 C 325.453 148.553,325.194 148.497,324.978 148.528 L 324.583 148.583 324.540 156.195 L 324.497 163.806 325.579 163.922 C 327.484 164.126,340.293 163.941,340.528 163.706 C 340.641 163.593,341.093 163.500,341.533 163.500 C 341.973 163.500,342.333 163.425,342.333 163.333 C 342.333 163.242,342.591 163.167,342.907 163.167 C 343.222 163.167,343.527 163.092,343.583 163.000 C 343.640 162.908,343.904 162.833,344.171 162.833 C 344.668 162.833,346.025 162.449,346.539 162.161 C 346.699 162.073,346.942 162.000,347.081 162.000 C 347.220 162.000,347.333 161.925,347.333 161.833 C 347.333 161.742,347.521 161.667,347.750 161.667 C 347.979 161.667,348.167 161.592,348.167 161.500 C 348.167 161.408,348.317 161.333,348.500 161.333 C 348.683 161.333,348.833 161.258,348.833 161.167 C 348.833 161.075,348.977 161.000,349.153 161.000 C 349.328 161.000,349.497 160.941,349.528 160.870 C 349.558 160.798,350.002 160.529,350.515 160.273 C 351.027 160.016,351.702 159.587,352.015 159.320 C 352.327 159.053,352.647 158.834,352.725 158.834 C 352.803 158.834,353.076 158.608,353.333 158.333 C 353.590 158.058,353.873 157.833,353.961 157.833 C 354.149 157.833,356.030 155.978,356.750 155.082 C 357.025 154.740,357.480 154.223,357.761 153.933 C 358.041 153.643,358.414 153.165,358.588 152.870 C 358.763 152.575,358.964 152.333,359.036 152.333 C 359.108 152.333,359.167 152.200,359.167 152.037 C 359.167 151.874,359.317 151.632,359.500 151.500 C 359.683 151.368,359.833 151.143,359.833 151.000 C 359.833 150.857,359.983 150.632,360.167 150.500 C 360.350 150.368,360.500 150.197,360.500 150.121 C 360.500 150.045,360.688 149.706,360.917 149.369 C 361.146 149.032,361.333 148.623,361.333 148.461 C 361.333 148.299,361.408 148.167,361.500 148.167 C 361.592 148.167,361.667 148.054,361.667 147.917 C 361.667 147.779,361.742 147.667,361.833 147.667 C 361.925 147.667,362.000 147.517,362.000 147.333 C 362.000 147.150,362.075 147.000,362.167 147.000 C 362.258 147.000,362.333 146.850,362.333 146.667 C 362.333 146.483,362.408 146.333,362.500 146.333 C 362.592 146.333,362.667 146.190,362.667 146.014 C 362.667 145.838,362.726 145.669,362.798 145.639 C 362.988 145.558,363.833 143.766,363.833 143.442 C 363.833 143.290,363.908 143.167,364.000 143.167 C 364.092 143.167,364.167 143.021,364.167 142.843 C 364.167 142.665,364.242 142.473,364.333 142.417 C 364.425 142.360,364.500 142.168,364.500 141.990 C 364.500 141.812,364.575 141.667,364.667 141.667 C 364.758 141.667,364.833 141.517,364.833 141.333 C 364.833 141.150,364.908 141.000,365.000 141.000 C 365.092 141.000,365.167 140.852,365.167 140.672 C 365.167 140.491,365.317 140.076,365.500 139.750 C 365.683 139.424,365.833 139.009,365.833 138.828 C 365.833 138.648,365.904 138.500,365.990 138.500 C 366.076 138.500,366.197 138.162,366.259 137.750 C 366.321 137.337,366.438 137.000,366.519 137.000 C 366.600 137.000,366.667 136.775,366.667 136.500 C 366.667 136.225,366.742 136.000,366.833 136.000 C 366.925 136.000,367.000 135.886,367.000 135.748 C 367.000 135.609,367.075 135.346,367.167 135.164 C 367.258 134.982,367.408 134.684,367.500 134.502 C 367.592 134.320,367.667 134.020,367.667 133.836 C 367.667 133.651,367.742 133.500,367.833 133.500 C 367.925 133.500,368.000 133.317,368.000 133.093 C 368.000 132.869,368.075 132.640,368.167 132.583 C 368.258 132.527,368.333 132.302,368.333 132.083 C 368.333 131.865,368.404 131.643,368.490 131.589 C 368.577 131.536,368.698 131.156,368.759 130.746 C 368.821 130.336,368.938 130.000,369.019 130.000 C 369.100 130.000,369.167 129.813,369.167 129.583 C 369.167 129.354,369.242 129.167,369.333 129.167 C 369.425 129.167,369.500 128.942,369.500 128.667 C 369.500 128.392,369.575 128.167,369.667 128.167 C 369.758 128.167,369.833 127.979,369.833 127.750 C 369.833 127.521,369.908 127.333,370.000 127.333 C 370.092 127.333,370.167 127.108,370.167 126.833 C 370.167 126.558,370.242 126.333,370.333 126.333 C 370.425 126.333,370.500 126.220,370.500 126.081 C 370.500 125.942,370.573 125.699,370.661 125.539 C 370.907 125.098,371.333 123.696,371.333 123.328 C 371.333 123.147,371.408 123.000,371.500 123.000 C 371.592 123.000,371.667 122.775,371.667 122.500 C 371.667 122.225,371.742 122.000,371.833 122.000 C 371.925 122.000,372.000 121.854,372.000 121.677 C 372.000 121.499,372.075 121.307,372.167 121.250 C 372.258 121.193,372.333 120.964,372.333 120.740 C 372.333 120.516,372.408 120.333,372.500 120.333 C 372.592 120.333,372.667 120.146,372.667 119.917 C 372.667 119.688,372.742 119.500,372.833 119.500 C 372.925 119.500,373.000 119.275,373.000 119.000 C 373.000 118.725,373.075 118.500,373.167 118.500 C 373.258 118.500,373.333 118.317,373.333 118.093 C 373.333 117.869,373.404 117.643,373.490 117.589 C 373.577 117.536,373.698 117.156,373.759 116.746 C 373.821 116.336,373.938 116.000,374.019 116.000 C 374.100 116.000,374.167 115.813,374.167 115.583 C 374.167 115.354,374.242 115.167,374.333 115.167 C 374.425 115.167,374.500 114.942,374.500 114.667 C 374.500 114.392,374.575 114.167,374.667 114.167 C 374.758 114.167,374.833 113.942,374.833 113.667 C 374.833 113.392,374.908 113.167,375.000 113.167 C 375.092 113.167,375.167 113.053,375.167 112.914 C 375.167 112.776,375.253 112.494,375.359 112.289 C 375.773 111.489,375.833 111.327,375.833 111.012 C 375.833 110.833,375.906 110.641,375.995 110.586 C 376.084 110.531,376.206 110.114,376.267 109.660 C 376.327 109.205,376.442 108.833,376.521 108.833 C 376.601 108.833,376.667 108.720,376.667 108.581 C 376.667 108.442,376.742 108.180,376.833 107.998 C 376.925 107.816,377.075 107.518,377.167 107.336 C 377.258 107.154,377.333 106.854,377.333 106.669 C 377.333 106.484,377.408 106.333,377.500 106.333 C 377.592 106.333,377.667 106.150,377.667 105.927 C 377.667 105.703,377.742 105.473,377.833 105.417 C 377.925 105.360,378.000 105.131,378.000 104.907 C 378.000 104.683,378.075 104.500,378.167 104.500 C 378.258 104.500,378.333 104.317,378.333 104.093 C 378.333 103.869,378.404 103.643,378.490 103.589 C 378.577 103.536,378.698 103.156,378.759 102.746 C 378.821 102.336,378.938 102.000,379.019 102.000 C 379.100 102.000,379.167 101.775,379.167 101.500 C 379.167 101.225,379.242 101.000,379.333 101.000 C 379.425 101.000,379.500 100.813,379.500 100.583 C 379.500 100.354,379.575 100.167,379.667 100.167 C 379.758 100.167,379.833 100.016,379.833 99.831 C 379.833 99.646,379.900 99.365,379.981 99.206 C 380.062 99.047,380.220 98.692,380.333 98.417 C 380.446 98.142,380.605 97.786,380.686 97.627 C 380.767 97.468,380.833 97.191,380.833 97.012 C 380.833 96.833,380.898 96.646,380.978 96.597 C 381.058 96.548,381.172 96.202,381.231 95.830 C 381.336 95.174,381.395 95.008,381.807 94.211 C 381.913 94.006,382.000 93.687,382.000 93.502 C 382.000 93.318,382.075 93.167,382.167 93.167 C 382.258 93.167,382.333 92.979,382.333 92.750 C 382.333 92.521,382.408 92.333,382.500 92.333 C 382.592 92.333,382.667 92.108,382.667 91.833 C 382.667 91.558,382.742 91.333,382.833 91.333 C 382.925 91.333,383.000 91.197,383.000 91.031 C 383.000 90.865,383.148 90.423,383.328 90.049 C 383.509 89.676,383.706 89.060,383.767 88.681 C 383.828 88.302,383.942 87.952,384.022 87.903 C 384.102 87.854,384.167 87.631,384.167 87.407 C 384.167 87.183,384.242 87.000,384.333 87.000 C 384.425 87.000,384.500 86.775,384.500 86.500 C 384.500 86.225,384.575 86.000,384.667 86.000 C 384.758 86.000,384.833 85.886,384.833 85.748 C 384.833 85.609,384.908 85.346,385.000 85.164 C 385.092 84.982,385.242 84.684,385.333 84.502 C 385.425 84.320,385.500 84.020,385.500 83.836 C 385.500 83.651,385.575 83.500,385.667 83.500 C 385.758 83.500,385.833 83.317,385.833 83.093 C 385.833 82.869,385.900 82.645,385.981 82.595 C 386.062 82.545,386.179 82.166,386.241 81.752 C 386.303 81.338,386.424 81.000,386.510 81.000 C 386.596 81.000,386.667 80.817,386.667 80.593 C 386.667 80.369,386.742 80.140,386.833 80.083 C 386.925 80.027,387.000 79.797,387.000 79.573 C 387.000 79.350,387.075 79.167,387.167 79.167 C 387.258 79.167,387.333 78.984,387.333 78.760 C 387.333 78.536,387.408 78.307,387.500 78.250 C 387.592 78.193,387.667 77.964,387.667 77.740 C 387.667 77.516,387.728 77.333,387.803 77.333 C 387.878 77.333,388.043 76.954,388.170 76.489 C 388.296 76.025,388.457 75.610,388.528 75.566 C 388.599 75.522,388.706 75.114,388.767 74.660 C 388.827 74.205,388.942 73.833,389.021 73.833 C 389.101 73.833,389.167 73.646,389.167 73.417 C 389.167 73.188,389.242 73.000,389.333 73.000 C 389.425 73.000,389.500 72.817,389.500 72.593 C 389.500 72.369,389.575 72.140,389.667 72.083 C 389.758 72.027,389.833 71.835,389.833 71.657 C 389.833 71.479,389.908 71.333,390.000 71.333 C 390.092 71.333,390.167 71.150,390.167 70.927 C 390.167 70.703,390.242 70.473,390.333 70.417 C 390.425 70.360,390.500 70.131,390.500 69.907 C 390.500 69.683,390.575 69.500,390.667 69.500 C 390.758 69.500,390.833 69.275,390.833 69.000 C 390.833 68.725,390.904 68.500,390.990 68.500 C 391.076 68.500,391.197 68.162,391.259 67.750 C 391.321 67.337,391.438 67.000,391.519 67.000 C 391.600 67.000,391.667 66.775,391.667 66.500 C 391.667 66.225,391.742 66.000,391.833 66.000 C 391.925 66.000,392.000 65.813,392.000 65.583 C 392.000 65.354,392.075 65.167,392.167 65.167 C 392.258 65.167,392.333 64.942,392.333 64.667 C 392.333 64.392,392.408 64.167,392.500 64.167 C 392.592 64.167,392.667 63.985,392.667 63.764 C 392.667 63.542,392.723 63.336,392.792 63.306 C 392.968 63.227,393.833 60.650,393.833 60.203 C 393.833 60.000,393.908 59.833,394.000 59.833 C 394.092 59.833,394.167 59.650,394.167 59.427 C 394.167 59.203,394.242 58.973,394.333 58.917 C 394.425 58.860,394.500 58.668,394.500 58.490 C 394.500 58.312,394.575 58.167,394.667 58.167 C 394.758 58.167,394.833 57.979,394.833 57.750 C 394.833 57.521,394.908 57.333,395.000 57.333 C 395.092 57.333,395.167 57.108,395.167 56.833 C 395.167 56.558,395.242 56.333,395.333 56.333 C 395.425 56.333,395.500 56.182,395.500 55.998 C 395.500 55.813,395.575 55.513,395.667 55.331 C 395.758 55.149,395.907 54.853,395.997 54.674 C 396.087 54.495,396.209 54.043,396.269 53.670 C 396.328 53.298,396.442 52.952,396.522 52.903 C 396.602 52.854,396.667 52.631,396.667 52.407 C 396.667 52.183,396.742 52.000,396.833 52.000 C 396.925 52.000,397.000 51.775,397.000 51.500 C 397.000 51.225,397.075 51.000,397.167 51.000 C 397.258 51.000,397.333 50.813,397.333 50.583 C 397.333 50.354,397.392 50.167,397.464 50.167 C 397.535 50.167,397.698 49.810,397.825 49.375 C 398.044 48.626,398.120 48.431,398.486 47.691 C 398.570 47.521,398.691 47.034,398.755 46.608 C 398.819 46.182,398.938 45.833,399.019 45.833 C 399.100 45.833,399.167 45.646,399.167 45.417 C 399.167 45.188,399.242 45.000,399.333 45.000 C 399.425 45.000,399.500 44.819,399.500 44.597 C 399.500 44.376,399.570 44.169,399.656 44.139 C 399.742 44.108,399.865 43.689,399.928 43.207 L 400.043 42.331 390.153 42.374 L 380.264 42.417 380.120 43.000 C 380.042 43.321,379.936 43.790,379.886 44.042 C 379.836 44.294,379.729 44.500,379.648 44.500 C 379.566 44.500,379.500 44.721,379.500 44.990 C 379.500 45.260,379.432 45.522,379.349 45.574 C 379.266 45.625,379.146 46.042,379.083 46.500 C 379.020 46.958,378.901 47.375,378.818 47.426 C 378.735 47.478,378.667 47.778,378.667 48.093 C 378.667 48.409,378.592 48.667,378.500 48.667 C 378.408 48.667,378.333 48.854,378.333 49.083 C 378.333 49.313,378.258 49.500,378.167 49.500 C 378.075 49.500,378.000 49.725,378.000 50.000 C 378.000 50.275,377.925 50.500,377.833 50.500 C 377.742 50.500,377.667 50.721,377.667 50.990 C 377.667 51.260,377.592 51.527,377.500 51.583 C 377.408 51.640,377.333 51.865,377.333 52.083 C 377.333 52.302,377.258 52.527,377.167 52.583 C 377.075 52.640,377.000 52.907,377.000 53.177 C 377.000 53.446,376.930 53.667,376.845 53.667 C 376.760 53.667,376.639 54.079,376.576 54.583 C 376.513 55.087,376.395 55.500,376.314 55.500 C 376.233 55.500,376.167 55.721,376.167 55.990 C 376.167 56.260,376.092 56.527,376.000 56.583 C 375.908 56.640,375.833 56.907,375.833 57.177 C 375.833 57.446,375.758 57.667,375.667 57.667 C 375.575 57.667,375.500 57.892,375.500 58.167 C 375.500 58.442,375.425 58.667,375.333 58.667 C 375.242 58.667,375.167 58.818,375.167 59.002 C 375.167 59.187,375.099 59.468,375.016 59.627 C 374.934 59.786,374.776 60.254,374.667 60.667 C 374.557 61.079,374.403 61.541,374.325 61.694 C 374.246 61.846,374.131 62.352,374.070 62.819 C 374.008 63.285,373.892 63.667,373.812 63.667 C 373.732 63.667,373.667 63.850,373.667 64.073 C 373.667 64.297,373.592 64.527,373.500 64.583 C 373.408 64.640,373.333 64.902,373.333 65.167 C 373.333 65.431,373.258 65.693,373.167 65.750 C 373.075 65.807,373.000 66.036,373.000 66.260 C 373.000 66.484,372.925 66.667,372.833 66.667 C 372.742 66.667,372.667 66.892,372.667 67.167 C 372.667 67.442,372.592 67.667,372.500 67.667 C 372.408 67.667,372.333 67.887,372.333 68.157 C 372.333 68.426,372.258 68.693,372.167 68.750 C 372.075 68.807,372.000 69.032,372.000 69.250 C 372.000 69.468,371.934 69.688,371.853 69.738 C 371.772 69.788,371.654 70.242,371.591 70.748 C 371.528 71.253,371.406 71.667,371.321 71.667 C 371.236 71.667,371.167 71.892,371.167 72.167 C 371.167 72.442,371.092 72.667,371.000 72.667 C 370.908 72.667,370.833 72.887,370.833 73.157 C 370.833 73.426,370.758 73.693,370.667 73.750 C 370.575 73.807,370.500 74.074,370.500 74.343 C 370.500 74.613,370.425 74.833,370.333 74.833 C 370.242 74.833,370.167 75.058,370.167 75.333 C 370.167 75.608,370.092 75.833,370.000 75.833 C 369.908 75.833,369.833 75.984,369.833 76.169 C 369.833 76.354,369.768 76.635,369.687 76.794 C 369.435 77.293,369.174 78.236,369.062 79.049 C 369.003 79.481,368.890 79.833,368.811 79.833 C 368.731 79.833,368.667 80.058,368.667 80.333 C 368.667 80.608,368.592 80.833,368.500 80.833 C 368.408 80.833,368.333 81.016,368.333 81.240 C 368.333 81.464,368.258 81.693,368.167 81.750 C 368.075 81.807,368.000 82.069,368.000 82.333 C 368.000 82.598,367.925 82.860,367.833 82.917 C 367.742 82.973,367.667 83.203,367.667 83.427 C 367.667 83.650,367.592 83.833,367.500 83.833 C 367.408 83.833,367.333 84.058,367.333 84.333 C 367.333 84.608,367.258 84.833,367.167 84.833 C 367.075 84.833,367.000 85.054,367.000 85.323 C 367.000 85.593,366.928 85.858,366.841 85.912 C 366.754 85.966,366.631 86.458,366.570 87.005 C 366.508 87.552,366.392 88.000,366.312 88.000 C 366.232 88.000,366.167 88.188,366.167 88.417 C 366.167 88.646,366.092 88.833,366.000 88.833 C 365.908 88.833,365.833 89.058,365.833 89.333 C 365.833 89.608,365.758 89.833,365.667 89.833 C 365.575 89.833,365.500 90.054,365.500 90.323 C 365.500 90.593,365.425 90.860,365.333 90.917 C 365.242 90.973,365.167 91.198,365.167 91.417 C 365.167 91.635,365.092 91.860,365.000 91.917 C 364.908 91.973,364.833 92.240,364.833 92.510 C 364.833 92.779,364.767 93.000,364.686 93.000 C 364.604 93.000,364.495 93.206,364.442 93.458 C 364.146 94.881,363.897 95.825,363.789 95.933 C 363.722 96.000,363.667 96.268,363.667 96.528 C 363.667 96.788,363.592 97.000,363.500 97.000 C 363.408 97.000,363.333 97.225,363.333 97.500 C 363.333 97.775,363.258 98.000,363.167 98.000 C 363.075 98.000,363.000 98.151,363.000 98.336 C 363.000 98.520,362.932 98.801,362.850 98.961 C 362.767 99.120,362.610 99.587,362.500 100.000 C 362.390 100.412,362.233 100.880,362.150 101.039 C 362.068 101.199,362.000 101.475,362.000 101.655 C 362.000 101.834,361.930 102.023,361.845 102.076 C 361.760 102.129,361.639 102.583,361.576 103.086 C 361.513 103.589,361.395 104.000,361.314 104.000 C 361.233 104.000,361.167 104.263,361.167 104.583 C 361.167 104.904,361.092 105.167,361.000 105.167 C 360.908 105.167,360.833 105.350,360.833 105.573 C 360.833 105.797,360.758 106.027,360.667 106.083 C 360.575 106.140,360.500 106.369,360.500 106.593 C 360.500 106.817,360.425 107.000,360.333 107.000 C 360.242 107.000,360.167 107.221,360.167 107.490 C 360.167 107.760,360.092 108.027,360.000 108.083 C 359.908 108.140,359.833 108.365,359.833 108.583 C 359.833 108.802,359.758 109.027,359.667 109.083 C 359.575 109.140,359.500 109.402,359.500 109.667 C 359.500 109.931,359.432 110.189,359.349 110.240 C 359.266 110.292,359.146 110.709,359.083 111.167 C 359.020 111.625,358.901 112.000,358.818 112.000 C 358.735 112.000,358.667 112.221,358.667 112.490 C 358.667 112.760,358.592 113.027,358.500 113.083 C 358.408 113.140,358.333 113.374,358.333 113.603 C 358.333 113.838,358.261 113.975,358.167 113.917 C 358.075 113.860,358.000 113.635,358.000 113.417 C 358.000 113.198,357.925 112.973,357.833 112.917 C 357.742 112.860,357.667 112.598,357.667 112.333 C 357.667 112.069,357.592 111.807,357.500 111.750 C 357.408 111.693,357.333 111.464,357.333 111.240 C 357.333 111.016,357.258 110.833,357.167 110.833 C 357.075 110.833,357.000 110.608,357.000 110.333 C 357.000 110.058,356.925 109.833,356.833 109.833 C 356.742 109.833,356.667 109.608,356.667 109.333 C 356.667 109.058,356.592 108.833,356.500 108.833 C 356.408 108.833,356.330 108.590,356.326 108.292 C 356.322 107.994,356.211 107.450,356.079 107.083 C 355.946 106.717,355.837 106.285,355.836 106.125 C 355.834 105.965,355.758 105.833,355.667 105.833 C 355.575 105.833,355.500 105.608,355.500 105.333 C 355.500 105.058,355.425 104.833,355.333 104.833 C 355.242 104.833,355.167 104.613,355.167 104.343 C 355.167 104.074,355.092 103.807,355.000 103.750 C 354.908 103.693,354.833 103.426,354.833 103.157 C 354.833 102.887,354.758 102.667,354.667 102.667 C 354.575 102.667,354.500 102.442,354.500 102.167 C 354.500 101.892,354.425 101.667,354.333 101.667 C 354.242 101.667,354.167 101.479,354.167 101.250 C 354.167 101.021,354.101 100.833,354.022 100.833 C 353.942 100.833,353.826 100.386,353.764 99.838 C 353.702 99.291,353.580 98.799,353.492 98.745 C 353.405 98.691,353.333 98.468,353.333 98.250 C 353.333 98.032,353.258 97.807,353.167 97.750 C 353.075 97.693,353.000 97.426,353.000 97.157 C 353.000 96.887,352.925 96.667,352.833 96.667 C 352.742 96.667,352.667 96.484,352.667 96.260 C 352.667 96.036,352.592 95.807,352.500 95.750 C 352.408 95.693,352.333 95.431,352.333 95.167 C 352.333 94.902,352.258 94.640,352.167 94.583 C 352.075 94.527,352.000 94.297,352.000 94.073 C 352.000 93.850,351.925 93.667,351.833 93.667 C 351.742 93.667,351.667 93.442,351.667 93.167 C 351.667 92.892,351.602 92.667,351.523 92.667 C 351.443 92.667,351.330 92.314,351.271 91.883 C 351.160 91.069,350.899 90.127,350.646 89.627 C 350.566 89.468,350.500 89.191,350.500 89.012 C 350.500 88.833,350.425 88.640,350.333 88.583 C 350.242 88.527,350.167 88.297,350.167 88.073 C 350.167 87.850,350.092 87.667,350.000 87.667 C 349.908 87.667,349.833 87.446,349.833 87.177 C 349.833 86.907,349.758 86.640,349.667 86.583 C 349.575 86.527,349.500 86.260,349.500 85.990 C 349.500 85.721,349.425 85.500,349.333 85.500 C 349.242 85.500,349.167 85.275,349.167 85.000 C 349.167 84.725,349.100 84.500,349.019 84.500 C 348.938 84.500,348.820 84.089,348.758 83.586 C 348.695 83.083,348.574 82.629,348.488 82.576 C 348.403 82.523,348.333 82.302,348.333 82.083 C 348.333 81.865,348.258 81.640,348.167 81.583 C 348.075 81.527,348.000 81.260,348.000 80.990 C 348.000 80.721,347.925 80.500,347.833 80.500 C 347.742 80.500,347.667 80.275,347.667 80.000 C 347.667 79.725,347.592 79.500,347.500 79.500 C 347.408 79.500,347.333 79.275,347.333 79.000 C 347.333 78.725,347.258 78.500,347.167 78.500 C 347.075 78.500,347.000 78.279,347.000 78.010 C 347.000 77.740,346.925 77.473,346.833 77.417 C 346.742 77.360,346.667 77.135,346.667 76.917 C 346.667 76.698,346.600 76.479,346.519 76.429 C 346.438 76.378,346.319 75.988,346.255 75.561 C 346.191 75.134,346.077 74.664,346.002 74.517 C 345.927 74.370,345.776 73.912,345.667 73.500 C 345.557 73.087,345.400 72.620,345.317 72.461 C 345.234 72.301,345.167 72.025,345.167 71.845 C 345.167 71.666,345.092 71.473,345.000 71.417 C 344.908 71.360,344.833 71.131,344.833 70.907 C 344.833 70.683,344.758 70.500,344.667 70.500 C 344.575 70.500,344.500 70.279,344.500 70.010 C 344.500 69.740,344.425 69.473,344.333 69.417 C 344.242 69.360,344.167 69.093,344.167 68.823 C 344.167 68.554,344.100 68.333,344.019 68.333 C 343.938 68.333,343.820 67.922,343.758 67.419 C 343.695 66.917,343.574 66.462,343.488 66.409 C 343.403 66.357,343.333 66.131,343.333 65.907 C 343.333 65.683,343.258 65.500,343.167 65.500 C 343.075 65.500,343.000 65.279,343.000 65.010 C 343.000 64.740,342.925 64.473,342.833 64.417 C 342.742 64.360,342.667 64.093,342.667 63.823 C 342.667 63.554,342.592 63.333,342.500 63.333 C 342.408 63.333,342.333 63.108,342.333 62.833 C 342.333 62.558,342.258 62.333,342.167 62.333 C 342.075 62.333,342.000 62.108,342.000 61.833 C 342.000 61.558,341.925 61.333,341.833 61.333 C 341.742 61.333,341.667 61.108,341.667 60.833 C 341.667 60.558,341.600 60.333,341.519 60.333 C 341.438 60.333,341.320 59.922,341.258 59.419 C 341.195 58.917,341.074 58.462,340.988 58.409 C 340.903 58.357,340.833 58.093,340.833 57.823 C 340.833 57.554,340.758 57.333,340.667 57.333 C 340.575 57.333,340.500 57.108,340.500 56.833 C 340.500 56.558,340.425 56.333,340.333 56.333 C 340.242 56.333,340.167 56.113,340.167 55.843 C 340.167 55.574,340.092 55.307,340.000 55.250 C 339.908 55.193,339.833 54.968,339.833 54.750 C 339.833 54.532,339.758 54.307,339.667 54.250 C 339.575 54.193,339.500 53.964,339.500 53.740 C 339.500 53.516,339.425 53.333,339.333 53.333 C 339.242 53.333,339.167 53.108,339.167 52.833 C 339.167 52.558,339.092 52.333,339.000 52.333 C 338.908 52.333,338.833 52.117,338.833 51.852 C 338.833 51.358,338.420 49.808,338.151 49.294 C 338.068 49.135,338.000 48.854,338.000 48.669 C 338.000 48.484,337.925 48.333,337.833 48.333 C 337.742 48.333,337.667 48.113,337.667 47.843 C 337.667 47.574,337.592 47.307,337.500 47.250 C 337.408 47.193,337.333 46.926,337.333 46.657 C 337.333 46.387,337.258 46.167,337.167 46.167 C 337.075 46.167,337.000 45.942,337.000 45.667 C 337.000 45.392,336.925 45.167,336.833 45.167 C 336.742 45.167,336.667 44.942,336.667 44.667 C 336.667 44.392,336.605 44.167,336.530 44.167 C 336.455 44.167,336.324 43.773,336.239 43.292 L 336.083 42.417 325.958 42.374 L 315.833 42.331 315.833 42.915 M290.167 95.750 C 290.167 98.583,290.107 100.167,290.000 100.167 C 289.908 100.167,289.833 100.579,289.833 101.083 C 289.833 101.587,289.767 102.000,289.685 102.000 C 289.603 102.000,289.495 102.244,289.444 102.542 C 289.248 103.695,288.928 104.833,288.800 104.833 C 288.727 104.833,288.667 104.983,288.667 105.167 C 288.667 105.350,288.592 105.500,288.500 105.500 C 288.408 105.500,288.333 105.650,288.333 105.833 C 288.333 106.017,288.258 106.167,288.167 106.167 C 288.075 106.167,288.000 106.279,288.000 106.417 C 288.000 106.554,287.925 106.667,287.833 106.667 C 287.742 106.667,287.667 106.782,287.667 106.924 C 287.667 107.065,287.517 107.342,287.333 107.538 C 287.150 107.735,287.000 107.995,287.000 108.115 C 287.000 108.235,286.930 108.333,286.845 108.333 C 286.759 108.333,286.641 108.486,286.581 108.673 C 286.451 109.082,283.214 112.333,282.936 112.333 C 282.828 112.333,282.632 112.483,282.500 112.667 C 282.368 112.850,282.164 113.000,282.047 113.000 C 281.929 113.000,281.833 113.059,281.833 113.131 C 281.833 113.203,281.385 113.484,280.836 113.756 C 280.288 114.028,279.838 114.306,279.836 114.375 C 279.835 114.444,279.683 114.500,279.500 114.500 C 279.317 114.500,279.166 114.556,279.165 114.625 C 279.164 114.794,278.339 115.167,277.967 115.167 C 277.802 115.167,277.667 115.242,277.667 115.333 C 277.667 115.425,277.553 115.500,277.414 115.500 C 277.276 115.500,277.032 115.572,276.873 115.660 C 276.551 115.838,275.250 116.152,274.292 116.283 C 273.948 116.330,273.667 116.435,273.667 116.518 C 273.667 116.600,273.254 116.667,272.750 116.667 C 272.246 116.667,271.833 116.742,271.833 116.833 C 271.833 116.940,270.444 117.000,268.000 117.000 C 265.829 117.000,264.167 116.935,264.167 116.849 C 264.167 116.767,263.810 116.661,263.375 116.615 C 262.940 116.570,262.283 116.452,261.917 116.354 C 261.550 116.257,260.856 116.085,260.375 115.972 C 259.894 115.860,259.500 115.707,259.500 115.634 C 259.500 115.560,259.350 115.500,259.167 115.500 C 258.983 115.500,258.833 115.425,258.833 115.333 C 258.833 115.242,258.683 115.167,258.500 115.167 C 258.317 115.167,258.167 115.110,258.167 115.041 C 258.167 114.971,257.923 114.809,257.625 114.679 C 257.327 114.549,257.046 114.399,257.000 114.346 C 256.954 114.292,256.617 114.026,256.250 113.754 C 255.314 113.059,253.667 111.359,253.667 111.088 C 253.667 110.963,253.610 110.836,253.542 110.806 C 253.362 110.726,252.667 109.345,252.667 109.068 C 252.667 108.939,252.592 108.833,252.500 108.833 C 252.408 108.833,252.333 108.646,252.333 108.417 C 252.333 108.188,252.258 108.000,252.167 108.000 C 252.075 108.000,252.000 107.592,252.000 107.093 C 252.000 106.594,251.925 106.140,251.833 106.083 C 251.742 106.027,251.667 105.614,251.667 105.167 C 251.667 104.719,251.742 104.307,251.833 104.250 C 251.925 104.193,252.000 103.739,252.000 103.240 C 252.000 102.741,252.075 102.333,252.167 102.333 C 252.258 102.333,252.333 102.108,252.333 101.833 C 252.333 101.558,252.408 101.333,252.500 101.333 C 252.592 101.333,252.667 101.190,252.667 101.014 C 252.667 100.838,252.723 100.669,252.792 100.639 C 252.860 100.608,253.142 100.133,253.417 99.583 C 253.692 99.033,254.136 98.396,254.404 98.167 C 254.673 97.938,255.139 97.506,255.440 97.208 C 255.742 96.910,256.050 96.667,256.124 96.667 C 256.199 96.667,256.368 96.517,256.500 96.333 C 256.632 96.150,256.874 96.000,257.037 96.000 C 257.200 96.000,257.333 95.936,257.333 95.858 C 257.333 95.781,257.671 95.578,258.083 95.408 C 258.496 95.238,258.833 95.039,258.833 94.966 C 258.833 94.893,259.016 94.833,259.240 94.833 C 259.464 94.833,259.693 94.758,259.750 94.667 C 259.807 94.575,259.999 94.500,260.177 94.500 C 260.354 94.500,260.500 94.425,260.500 94.333 C 260.500 94.242,260.683 94.167,260.907 94.167 C 261.131 94.167,261.360 94.092,261.417 94.000 C 261.473 93.908,261.778 93.833,262.093 93.833 C 262.409 93.833,262.667 93.758,262.667 93.667 C 262.667 93.575,262.923 93.500,263.236 93.500 C 263.549 93.500,263.831 93.432,263.861 93.349 C 263.926 93.171,267.500 92.841,270.583 92.728 C 271.775 92.684,272.821 92.577,272.908 92.491 C 272.995 92.404,274.135 92.333,275.440 92.333 C 276.843 92.333,277.856 92.265,277.917 92.167 C 277.978 92.068,279.026 92.000,280.500 92.000 C 281.974 92.000,283.022 91.932,283.083 91.833 C 283.144 91.735,284.168 91.667,285.593 91.667 C 287.087 91.667,288.000 91.603,288.000 91.500 C 288.000 91.406,288.472 91.333,289.083 91.333 L 290.167 91.333 290.167 95.750 " stroke="none" fill="#ffffff" fill-rule="evenodd"></path></g></svg>