<svg id="svg" version="1.1" width="400" height="98.04511278195488" viewBox="0 0 400 98.04511278195488" xmlns="http://www.w3.org/2000/svg" xmlns:xlink="http://www.w3.org/1999/xlink" ><g id="svgg"><path id="path0" d="M15.040 0.218 C 12.907 1.008,12.671 1.684,11.406 10.667 C 11.168 12.362,10.911 13.868,10.837 14.012 C 10.762 14.155,10.530 15.618,10.321 17.262 C 10.112 18.905,9.894 20.287,9.835 20.333 C 9.777 20.379,9.555 21.767,9.343 23.417 C 9.131 25.067,8.903 26.492,8.838 26.583 C 8.772 26.675,8.542 28.137,8.326 29.833 C 8.111 31.529,7.885 32.954,7.825 33.000 C 7.765 33.046,7.667 33.496,7.607 34.000 C 7.223 37.241,6.951 39.127,6.827 39.417 C 6.747 39.600,6.524 41.025,6.331 42.583 C 6.137 44.142,5.920 45.529,5.848 45.667 C 5.776 45.804,5.542 47.267,5.328 48.917 C 5.113 50.567,4.892 51.954,4.837 52.000 C 4.732 52.087,3.993 57.474,3.998 58.125 C 3.999 58.331,3.937 58.500,3.861 58.500 C 3.785 58.500,3.556 59.831,3.353 61.458 C 3.150 63.085,2.917 64.567,2.834 64.750 C 2.752 64.933,2.527 66.358,2.333 67.917 C 2.140 69.475,1.915 70.900,1.833 71.083 C 1.752 71.267,1.563 72.429,1.413 73.667 C 1.264 74.904,1.076 76.067,0.995 76.250 C 0.735 76.841,-0.037 83.369,0.030 84.414 C 0.188 86.892,-0.091 86.833,11.509 86.833 L 21.174 86.833 21.329 86.458 C 21.415 86.252,21.604 85.258,21.750 84.250 C 21.895 83.242,22.121 81.854,22.251 81.167 C 22.381 80.479,22.647 78.792,22.842 77.418 C 23.037 76.044,23.221 74.881,23.250 74.833 C 23.279 74.786,23.463 73.622,23.658 72.248 C 23.853 70.874,24.085 69.375,24.174 68.917 C 24.324 68.140,24.566 66.592,25.572 59.985 C 26.022 57.031,26.421 56.021,27.469 55.191 C 28.650 54.256,28.522 54.270,36.750 54.157 C 45.781 54.032,47.442 53.854,52.319 52.494 C 63.931 49.256,71.742 40.114,74.166 26.922 C 74.345 25.947,74.540 25.070,74.599 24.974 C 75.002 24.322,75.360 17.127,75.008 16.774 C 74.912 16.678,74.833 16.386,74.833 16.125 C 74.833 14.977,73.682 11.389,73.189 11.000 C 73.131 10.954,72.916 10.562,72.713 10.129 C 72.352 9.363,72.226 9.185,71.398 8.261 C 71.179 8.018,71.000 7.758,71.000 7.684 C 71.000 7.518,69.066 5.610,68.500 5.217 C 68.271 5.058,67.938 4.794,67.760 4.631 C 67.583 4.467,67.353 4.333,67.250 4.333 C 67.147 4.333,66.917 4.199,66.740 4.034 C 66.376 3.697,64.999 3.000,64.697 3.000 C 64.589 3.000,64.500 2.935,64.500 2.856 C 64.500 2.777,64.088 2.583,63.584 2.424 C 63.080 2.266,62.631 2.076,62.586 2.004 C 62.541 1.931,61.809 1.708,60.960 1.509 C 60.111 1.309,59.291 1.078,59.136 0.995 C 57.574 0.155,17.135 -0.557,15.040 0.218 M126.833 21.667 C 126.833 21.758,126.680 21.833,126.493 21.833 C 125.962 21.833,124.869 22.458,124.751 22.830 C 124.693 23.014,124.533 23.276,124.397 23.413 C 124.233 23.576,124.036 24.556,123.817 26.289 C 123.635 27.734,123.426 29.029,123.352 29.167 C 123.278 29.304,123.042 30.804,122.828 32.500 C 122.613 34.196,122.388 35.621,122.328 35.667 C 122.267 35.712,122.089 36.800,121.931 38.083 C 121.773 39.367,121.577 40.567,121.496 40.750 C 121.416 40.933,121.190 42.358,120.994 43.917 C 120.799 45.475,120.575 46.900,120.497 47.083 C 120.418 47.267,120.194 48.692,119.997 50.250 C 119.801 51.808,119.574 53.233,119.493 53.417 C 119.413 53.600,119.189 55.025,118.997 56.583 C 118.805 58.142,118.581 59.567,118.500 59.750 C 118.418 59.933,118.195 61.358,118.003 62.917 C 117.811 64.475,117.594 65.862,117.519 66.000 C 117.445 66.137,117.209 67.637,116.994 69.333 C 116.780 71.029,116.555 72.454,116.495 72.500 C 116.434 72.546,116.214 73.933,116.006 75.583 C 115.797 77.233,115.563 78.663,115.485 78.760 C 115.408 78.858,115.294 79.657,115.232 80.536 L 115.120 82.135 115.702 82.734 L 116.284 83.333 122.642 83.333 C 126.139 83.333,129.000 83.277,129.000 83.207 C 129.000 83.138,129.217 82.986,129.481 82.868 C 130.312 82.501,130.795 81.585,131.085 79.832 C 131.228 78.962,131.453 77.612,131.584 76.833 C 131.714 76.054,131.909 74.667,132.015 73.750 C 132.122 72.833,132.260 72.046,132.323 72.000 C 132.386 71.954,132.607 70.567,132.814 68.917 C 133.021 67.267,133.249 65.767,133.321 65.583 C 133.732 64.531,134.183 63.667,134.319 63.667 C 134.406 63.667,134.597 63.546,134.745 63.397 C 135.221 62.922,136.154 62.841,141.263 62.837 C 145.899 62.834,149.801 62.619,150.000 62.358 C 150.046 62.298,150.901 62.084,151.901 61.883 C 152.901 61.683,153.763 61.458,153.818 61.384 C 153.872 61.310,154.464 61.068,155.133 60.846 C 155.802 60.624,156.386 60.383,156.432 60.309 C 156.477 60.236,156.829 60.036,157.215 59.864 C 158.692 59.206,160.454 57.883,161.894 56.350 C 162.273 55.947,162.790 55.424,163.042 55.188 C 163.294 54.952,163.500 54.668,163.500 54.556 C 163.500 54.444,163.636 54.254,163.803 54.134 C 163.969 54.015,164.288 53.579,164.511 53.167 C 164.734 52.754,164.994 52.334,165.089 52.233 C 165.183 52.132,165.406 51.719,165.584 51.316 C 165.762 50.913,165.951 50.546,166.005 50.500 C 166.058 50.454,166.204 50.154,166.327 49.833 C 166.451 49.512,166.692 48.933,166.862 48.545 C 167.032 48.158,167.286 47.370,167.425 46.795 C 167.564 46.220,167.742 45.633,167.820 45.490 C 168.478 44.293,169.305 35.857,168.855 34.923 C 168.765 34.736,168.648 34.201,168.594 33.735 C 168.475 32.708,168.033 30.961,167.861 30.839 C 167.792 30.790,167.634 30.433,167.509 30.046 C 167.385 29.659,167.163 29.209,167.016 29.046 C 166.870 28.883,166.646 28.548,166.519 28.301 C 166.207 27.696,163.969 25.487,163.308 25.131 C 163.016 24.974,162.733 24.777,162.680 24.694 C 162.568 24.519,161.104 23.833,160.842 23.833 C 160.746 23.833,160.667 23.760,160.667 23.671 C 160.667 23.582,160.123 23.353,159.458 23.161 C 158.794 22.970,158.121 22.744,157.963 22.658 C 157.493 22.404,154.871 21.992,153.036 21.884 C 152.093 21.828,151.282 21.719,151.234 21.641 C 151.106 21.434,126.833 21.459,126.833 21.667 M144.276 34.326 C 145.849 34.409,147.274 34.554,147.443 34.647 C 147.612 34.739,148.146 34.939,148.629 35.089 C 149.857 35.471,151.175 36.764,151.578 37.981 C 152.077 39.487,151.665 44.877,151.016 45.333 C 150.951 45.379,150.793 45.679,150.664 46.000 C 150.199 47.162,147.523 49.324,146.542 49.332 C 146.427 49.333,146.333 49.395,146.333 49.471 C 146.333 49.804,144.006 50.044,140.042 50.122 C 136.564 50.189,135.833 50.164,135.833 49.977 C 135.833 49.417,136.210 46.884,136.339 46.583 C 136.418 46.400,136.639 44.975,136.830 43.417 C 137.022 41.858,137.241 40.470,137.316 40.331 C 137.392 40.192,137.591 39.006,137.758 37.697 C 138.232 33.979,138.185 34.004,144.276 34.326 M186.761 41.178 C 185.942 41.251,185.117 41.383,184.927 41.472 C 184.738 41.562,183.852 41.803,182.958 42.008 C 182.065 42.213,181.333 42.434,181.333 42.498 C 181.333 42.562,180.874 42.753,180.313 42.923 C 179.751 43.093,179.207 43.311,179.104 43.408 C 179.001 43.504,178.542 43.765,178.083 43.987 C 177.625 44.208,177.213 44.437,177.167 44.495 C 177.121 44.553,176.802 44.772,176.458 44.981 C 176.115 45.190,175.833 45.429,175.833 45.514 C 175.833 45.598,175.747 45.667,175.642 45.667 C 174.963 45.667,170.005 50.757,170.001 51.458 C 170.000 51.573,169.927 51.667,169.837 51.667 C 169.747 51.667,169.512 51.985,169.314 52.375 C 169.117 52.765,168.899 53.121,168.831 53.167 C 168.655 53.285,167.411 55.951,167.160 56.750 C 167.044 57.117,166.857 57.567,166.743 57.750 C 166.630 57.933,166.412 58.683,166.260 59.417 C 166.107 60.150,165.916 60.900,165.834 61.083 C 165.194 62.523,165.194 70.312,165.834 71.472 C 165.919 71.625,166.145 72.348,166.337 73.080 C 166.529 73.811,166.742 74.448,166.810 74.496 C 166.878 74.544,167.068 74.941,167.232 75.378 C 167.396 75.815,167.619 76.265,167.728 76.378 C 167.838 76.491,168.092 76.866,168.293 77.211 C 168.802 78.085,168.921 78.226,170.347 79.653 C 172.119 81.424,172.651 81.823,174.167 82.511 C 174.579 82.698,175.217 82.992,175.583 83.163 C 176.312 83.504,178.525 84.000,179.316 84.000 C 179.590 84.000,179.860 84.075,179.917 84.167 C 180.044 84.373,185.775 84.395,185.902 84.190 C 185.951 84.111,186.424 83.997,186.954 83.936 C 188.059 83.808,190.043 83.341,190.167 83.179 C 190.213 83.120,190.694 82.923,191.237 82.744 C 191.779 82.564,192.304 82.340,192.403 82.247 C 192.502 82.154,192.913 81.931,193.316 81.752 C 193.719 81.574,194.132 81.347,194.233 81.249 C 194.334 81.151,194.700 80.898,195.045 80.686 C 195.751 80.254,196.348 79.780,196.948 79.173 L 197.354 78.762 197.219 79.673 C 196.939 81.554,197.047 82.291,197.680 82.833 L 198.250 83.320 204.042 83.327 C 207.721 83.331,209.833 83.274,209.833 83.170 C 209.833 83.080,210.021 82.959,210.250 82.902 C 211.141 82.678,211.688 81.649,211.951 79.698 C 212.084 78.718,212.256 77.767,212.335 77.583 C 212.413 77.400,212.648 75.900,212.856 74.250 C 213.064 72.600,213.283 71.212,213.341 71.167 C 213.400 71.121,213.613 69.771,213.815 68.167 C 214.018 66.563,214.250 65.100,214.332 64.917 C 214.414 64.733,214.638 63.308,214.831 61.750 C 215.023 60.192,215.247 58.767,215.329 58.583 C 215.410 58.400,215.648 56.900,215.856 55.250 C 216.064 53.600,216.283 52.212,216.341 52.167 C 216.400 52.121,216.619 50.733,216.828 49.083 C 217.036 47.433,217.277 45.996,217.362 45.890 C 217.813 45.324,217.592 43.269,217.014 42.667 L 216.455 42.083 210.238 42.083 L 204.021 42.083 203.517 42.647 C 203.176 43.029,202.980 43.460,202.909 43.981 C 202.852 44.404,202.752 45.087,202.688 45.500 L 202.570 46.250 202.251 45.750 C 201.571 44.683,199.988 43.332,198.890 42.880 C 198.493 42.717,198.168 42.534,198.167 42.474 C 198.167 42.414,197.435 42.199,196.542 41.997 C 195.648 41.795,194.785 41.562,194.624 41.480 C 194.322 41.325,190.101 40.989,188.917 41.026 C 188.550 41.037,187.580 41.106,186.761 41.178 M223.563 42.239 C 222.377 42.756,222.143 45.437,223.171 46.750 C 223.242 46.842,223.469 47.479,223.674 48.167 C 223.879 48.854,224.103 49.492,224.172 49.583 C 224.241 49.675,224.464 50.350,224.667 51.083 C 224.870 51.817,225.095 52.492,225.167 52.583 C 225.239 52.675,225.428 53.237,225.588 53.833 C 225.748 54.429,225.967 55.067,226.075 55.250 C 226.183 55.433,226.445 56.183,226.657 56.917 C 226.869 57.650,227.100 58.325,227.170 58.417 C 227.240 58.508,227.464 59.183,227.667 59.917 C 227.870 60.650,228.094 61.325,228.165 61.417 C 228.235 61.508,228.422 62.033,228.579 62.583 C 228.736 63.133,228.923 63.658,228.994 63.750 C 229.066 63.842,229.298 64.517,229.511 65.250 C 229.723 65.983,229.949 66.621,230.013 66.667 C 230.077 66.712,230.300 67.387,230.508 68.167 C 230.716 68.946,230.940 69.621,231.006 69.667 C 231.072 69.712,231.289 70.347,231.489 71.077 C 231.689 71.808,231.913 72.483,231.988 72.577 C 232.063 72.672,232.298 73.350,232.511 74.083 C 232.723 74.817,232.949 75.454,233.012 75.500 C 233.076 75.546,233.294 76.183,233.497 76.917 C 233.700 77.650,233.933 78.321,234.016 78.408 C 234.213 78.615,234.211 79.333,234.014 79.333 C 233.929 79.333,233.690 79.615,233.481 79.958 C 233.272 80.302,233.004 80.643,232.884 80.717 C 232.765 80.790,232.666 80.940,232.665 81.050 C 232.664 81.160,232.365 81.625,232.000 82.083 C 231.635 82.542,231.336 83.007,231.335 83.117 C 231.334 83.227,231.235 83.377,231.116 83.450 C 230.996 83.523,230.728 83.865,230.519 84.208 C 230.310 84.552,230.084 84.833,230.016 84.833 C 229.948 84.833,229.724 85.171,229.518 85.583 C 229.312 85.996,229.090 86.333,229.024 86.333 C 228.959 86.333,228.764 86.577,228.591 86.875 C 228.418 87.173,228.176 87.477,228.055 87.550 C 227.933 87.623,227.833 87.754,227.833 87.841 C 227.833 87.997,226.551 89.849,226.108 90.333 C 225.982 90.471,225.795 90.746,225.691 90.945 C 225.587 91.144,225.405 91.407,225.287 91.529 C 225.168 91.650,224.894 92.039,224.677 92.393 C 224.461 92.747,224.107 93.227,223.892 93.459 C 223.676 93.692,223.500 93.980,223.500 94.099 C 223.500 94.219,223.380 94.384,223.232 94.467 C 222.325 94.974,223.044 97.334,224.174 97.560 C 225.301 97.785,236.311 97.680,236.890 97.439 C 237.585 97.148,238.209 96.565,238.564 95.875 C 238.717 95.577,238.898 95.333,238.966 95.333 C 239.035 95.333,239.235 95.065,239.412 94.738 C 239.588 94.410,239.905 93.941,240.116 93.696 C 240.327 93.451,240.500 93.195,240.500 93.128 C 240.500 93.061,240.800 92.611,241.166 92.128 C 241.532 91.645,241.832 91.156,241.833 91.042 C 241.833 90.927,241.902 90.833,241.986 90.833 C 242.071 90.833,242.310 90.552,242.519 90.208 C 242.728 89.865,242.944 89.546,243.000 89.500 C 243.056 89.454,243.282 89.117,243.503 88.750 C 243.725 88.383,244.040 87.938,244.203 87.760 C 244.366 87.583,244.500 87.376,244.500 87.302 C 244.500 87.228,244.633 87.034,244.795 86.872 C 244.957 86.709,245.297 86.241,245.549 85.830 C 245.801 85.419,246.268 84.746,246.587 84.333 C 246.905 83.921,247.232 83.433,247.314 83.250 C 247.396 83.067,247.650 82.716,247.879 82.471 C 248.107 82.225,248.396 81.794,248.521 81.512 C 248.646 81.231,248.799 81.000,248.860 81.000 C 248.922 81.000,249.145 80.719,249.356 80.375 C 249.567 80.031,249.803 79.675,249.881 79.583 C 250.028 79.411,251.139 77.788,252.791 75.333 C 253.315 74.554,253.839 73.857,253.956 73.783 C 254.072 73.710,254.167 73.560,254.168 73.450 C 254.169 73.340,254.469 72.875,254.833 72.417 C 255.198 71.958,255.497 71.493,255.498 71.383 C 255.499 71.273,255.597 71.123,255.715 71.050 C 255.986 70.882,257.667 68.404,257.667 68.172 C 257.667 68.078,257.740 68.000,257.829 68.000 C 257.918 68.000,258.104 67.782,258.242 67.516 C 258.380 67.249,258.591 66.931,258.711 66.807 C 258.831 66.684,259.111 66.283,259.334 65.917 C 259.557 65.550,259.872 65.106,260.034 64.929 C 260.197 64.752,260.373 64.471,260.426 64.304 C 260.479 64.137,260.591 64.000,260.675 64.000 C 260.758 64.000,260.978 63.719,261.163 63.375 C 261.348 63.031,261.837 62.300,262.250 61.750 C 262.662 61.200,263.052 60.638,263.117 60.501 C 263.181 60.364,263.518 59.876,263.866 59.417 C 264.214 58.959,264.499 58.490,264.499 58.375 C 264.500 58.260,264.569 58.167,264.653 58.167 C 264.737 58.167,264.977 57.885,265.186 57.542 C 265.395 57.198,265.611 56.879,265.667 56.833 C 265.722 56.788,265.947 56.450,266.167 56.083 C 266.386 55.717,266.615 55.379,266.675 55.333 C 266.735 55.288,266.979 54.950,267.219 54.583 C 267.458 54.217,267.952 53.504,268.317 53.000 C 268.681 52.496,269.107 51.858,269.262 51.583 C 269.418 51.308,269.647 51.023,269.773 50.950 C 269.898 50.877,270.000 50.719,270.000 50.599 C 270.000 50.480,270.192 50.175,270.427 49.921 C 270.662 49.668,270.996 49.195,271.171 48.869 C 271.345 48.543,271.550 48.233,271.626 48.180 C 271.701 48.127,272.093 47.596,272.496 47.000 C 272.900 46.404,273.403 45.662,273.615 45.352 C 274.419 44.173,273.896 42.505,272.613 42.155 C 271.450 41.837,260.327 42.023,259.799 42.369 C 259.115 42.817,258.597 43.361,258.166 44.083 C 257.947 44.450,257.723 44.788,257.669 44.833 C 257.442 45.025,255.833 47.503,255.833 47.661 C 255.833 47.756,255.760 47.833,255.671 47.833 C 255.582 47.833,255.384 48.077,255.232 48.375 C 255.079 48.673,254.853 48.977,254.727 49.050 C 254.602 49.123,254.500 49.258,254.500 49.349 C 254.500 49.440,254.218 49.905,253.874 50.382 C 253.530 50.859,253.174 51.370,253.083 51.517 C 252.991 51.663,252.710 52.093,252.458 52.472 C 252.206 52.850,252.000 53.237,252.000 53.330 C 252.000 53.424,251.931 53.500,251.847 53.500 C 251.763 53.500,251.523 53.781,251.314 54.125 C 251.105 54.469,250.892 54.788,250.841 54.833 C 250.789 54.879,250.354 55.517,249.874 56.250 C 249.395 56.983,248.889 57.702,248.751 57.847 C 248.613 57.993,248.500 58.159,248.500 58.217 C 248.500 58.316,248.160 58.826,246.034 61.917 C 245.592 62.558,245.182 63.215,245.121 63.375 C 245.060 63.535,244.942 63.667,244.859 63.667 C 244.775 63.667,244.613 63.893,244.498 64.171 L 244.290 64.675 244.058 64.229 C 243.931 63.983,243.669 63.138,243.476 62.350 C 243.282 61.562,243.075 60.879,243.015 60.833 C 242.955 60.788,242.726 60.038,242.507 59.167 C 242.288 58.296,242.061 57.546,242.002 57.500 C 241.944 57.454,241.722 56.704,241.509 55.833 C 241.297 54.962,241.064 54.174,240.991 54.082 C 240.918 53.989,240.694 53.239,240.492 52.415 C 240.290 51.591,240.076 50.879,240.016 50.833 C 239.957 50.788,239.767 50.150,239.595 49.417 C 239.422 48.683,239.186 47.858,239.068 47.583 C 238.951 47.308,238.698 46.483,238.505 45.750 C 237.945 43.621,237.064 42.430,235.837 42.145 C 234.781 41.899,224.157 41.981,223.563 42.239 M194.055 52.916 C 196.202 53.291,197.703 54.198,199.285 56.076 C 199.488 56.317,199.814 56.980,200.011 57.549 C 200.207 58.118,200.431 58.733,200.508 58.917 C 201.171 60.493,200.535 64.269,199.205 66.656 C 197.873 69.047,195.688 71.021,193.542 71.772 C 193.060 71.940,192.667 72.129,192.667 72.191 C 192.667 72.905,186.560 72.776,184.947 72.028 C 184.322 71.737,183.751 71.500,183.680 71.500 C 182.936 71.500,180.790 68.445,180.344 66.750 C 180.007 65.469,180.220 61.650,180.660 61.083 C 180.732 60.992,180.882 60.617,180.996 60.250 C 181.233 59.480,182.389 57.444,182.852 56.982 C 183.025 56.808,183.167 56.603,183.167 56.525 C 183.167 56.447,183.590 56.053,184.108 55.650 C 184.625 55.247,185.176 54.798,185.331 54.652 C 185.485 54.507,186.037 54.212,186.556 53.997 C 187.075 53.781,187.500 53.556,187.500 53.497 C 187.500 53.387,189.663 52.880,190.583 52.774 C 191.739 52.641,192.706 52.681,194.055 52.916 " stroke="none" fill="#253b80" fill-rule="evenodd"></path><path id="path1" d="M284.667 21.660 C 284.529 21.738,284.090 21.898,283.691 22.016 C 283.251 22.147,282.858 22.399,282.693 22.657 C 282.543 22.892,282.329 23.179,282.217 23.297 C 282.105 23.415,281.971 23.752,281.920 24.047 C 281.695 25.338,281.473 26.774,281.077 29.500 C 280.844 31.104,280.580 32.679,280.489 33.000 C 280.398 33.321,280.139 34.858,279.913 36.417 C 279.687 37.975,279.313 40.563,279.081 42.167 C 278.850 43.771,278.590 45.308,278.505 45.583 C 278.419 45.858,278.191 47.321,277.998 48.833 C 277.804 50.346,277.578 51.771,277.495 52.000 C 277.411 52.229,277.186 53.654,276.995 55.167 C 276.804 56.679,276.581 58.067,276.500 58.250 C 276.418 58.433,276.193 59.858,275.999 61.417 C 275.805 62.975,275.600 64.362,275.543 64.500 C 275.435 64.763,274.810 68.797,274.071 74.000 C 273.831 75.696,273.571 77.233,273.496 77.417 C 273.290 77.914,273.000 80.208,273.000 81.340 C 273.000 82.344,273.041 82.424,273.898 83.125 C 274.185 83.360,287.167 83.439,287.167 83.206 C 287.167 83.136,287.330 83.005,287.529 82.915 C 288.302 82.563,288.544 81.942,288.940 79.295 C 289.150 77.895,289.545 75.325,289.819 73.583 C 290.596 68.647,290.982 66.145,291.090 65.372 C 291.218 64.446,292.289 63.278,293.250 63.017 C 293.661 62.905,295.963 62.831,299.250 62.823 C 305.706 62.809,308.862 62.412,311.769 61.249 C 312.340 61.020,312.875 60.833,312.959 60.833 C 313.130 60.833,315.704 59.505,315.833 59.350 C 315.879 59.295,316.104 59.147,316.333 59.021 C 319.480 57.293,323.095 52.698,324.510 48.627 C 324.710 48.053,324.971 47.358,325.090 47.083 C 325.210 46.808,325.431 45.946,325.581 45.167 C 325.731 44.387,325.921 43.600,326.003 43.417 C 326.750 41.745,326.759 33.093,326.015 32.083 C 325.947 31.992,325.797 31.579,325.681 31.167 C 325.436 30.296,324.247 28.145,323.902 27.950 C 323.773 27.877,323.667 27.722,323.667 27.605 C 323.667 26.651,318.928 23.559,316.583 22.984 C 316.125 22.871,315.712 22.725,315.667 22.659 C 315.524 22.453,312.506 21.989,310.619 21.883 C 309.631 21.828,308.782 21.719,308.734 21.641 C 308.621 21.457,284.994 21.476,284.667 21.660 M387.250 21.667 C 387.193 21.758,387.020 21.836,386.865 21.839 C 386.068 21.855,385.633 22.750,385.411 24.833 C 385.347 25.429,385.237 26.029,385.166 26.167 C 385.096 26.304,384.876 27.692,384.678 29.250 C 384.480 30.808,384.255 32.238,384.177 32.426 C 384.100 32.614,383.872 34.077,383.671 35.676 C 383.470 37.275,383.241 38.733,383.162 38.917 C 383.083 39.100,382.824 40.600,382.586 42.250 C 381.748 48.048,381.224 51.419,381.120 51.667 C 381.063 51.804,380.858 53.192,380.665 54.750 C 380.472 56.308,380.248 57.733,380.166 57.917 C 380.085 58.100,379.860 59.525,379.667 61.083 C 379.473 62.642,379.248 64.067,379.167 64.250 C 379.085 64.433,378.860 65.858,378.667 67.417 C 378.473 68.975,378.250 70.400,378.171 70.583 C 378.091 70.767,377.864 72.229,377.667 73.833 C 377.469 75.438,377.242 76.900,377.163 77.083 C 376.847 77.811,376.475 81.501,376.661 82.065 C 377.074 83.319,377.152 83.333,383.327 83.333 C 386.887 83.333,388.833 83.274,388.833 83.167 C 388.833 83.075,388.943 83.000,389.078 83.000 C 389.921 83.000,390.690 81.712,390.917 79.917 C 390.975 79.458,391.088 78.933,391.168 78.750 C 391.247 78.567,391.473 77.142,391.669 75.583 C 391.866 74.025,392.091 72.600,392.171 72.417 C 392.250 72.233,392.473 70.808,392.667 69.250 C 392.860 67.692,393.085 66.267,393.166 66.083 C 393.247 65.900,393.432 64.775,393.577 63.583 C 393.722 62.392,393.918 61.154,394.011 60.833 C 394.105 60.512,394.366 58.975,394.591 57.417 C 394.816 55.858,395.191 53.271,395.423 51.667 C 395.656 50.063,395.922 48.487,396.014 48.167 C 396.107 47.846,396.364 46.308,396.587 44.750 C 397.573 37.852,397.850 36.052,397.997 35.583 C 398.084 35.308,398.312 33.846,398.504 32.333 C 398.696 30.821,398.919 29.433,398.999 29.250 C 399.080 29.067,399.308 27.677,399.507 26.162 C 400.124 21.458,400.187 21.500,392.579 21.500 C 389.275 21.500,387.315 21.561,387.250 21.667 M74.587 24.962 C 74.526 25.121,74.332 26.025,74.158 26.973 C 71.731 40.125,63.913 49.262,52.319 52.494 C 47.442 53.854,45.781 54.032,36.750 54.157 C 28.522 54.270,28.650 54.256,27.469 55.191 C 26.421 56.021,26.022 57.031,25.572 59.985 C 24.566 66.592,24.324 68.140,24.174 68.917 C 24.085 69.375,23.853 70.874,23.658 72.248 C 23.463 73.622,23.279 74.786,23.250 74.833 C 23.221 74.881,23.037 76.044,22.842 77.418 C 22.647 78.792,22.381 80.479,22.251 81.167 C 22.121 81.854,21.894 83.242,21.747 84.250 C 21.600 85.258,21.380 86.346,21.259 86.667 C 21.138 86.987,20.989 87.737,20.927 88.333 C 20.865 88.929,20.748 89.567,20.667 89.750 C 20.360 90.443,19.826 95.392,19.995 95.981 C 20.484 97.687,20.359 97.667,30.200 97.666 C 39.952 97.665,39.685 97.696,40.933 96.407 C 41.845 95.466,41.918 95.252,42.252 92.583 C 42.309 92.125,42.422 91.600,42.502 91.417 C 42.583 91.233,42.807 89.808,43.000 88.250 C 43.193 86.692,43.418 85.267,43.500 85.083 C 43.582 84.900,43.807 83.475,44.000 81.917 C 44.193 80.358,44.415 78.933,44.493 78.750 C 44.571 78.567,44.796 77.226,44.993 75.770 C 45.219 74.104,45.441 73.035,45.593 72.884 C 45.725 72.751,45.833 72.551,45.833 72.439 C 45.833 72.099,47.046 71.064,47.667 70.875 C 47.987 70.777,50.045 70.653,52.239 70.601 C 54.577 70.544,56.299 70.435,56.398 70.336 C 56.491 70.243,56.833 70.167,57.158 70.167 C 57.963 70.167,61.851 69.524,62.072 69.354 C 62.170 69.279,62.813 69.087,63.500 68.927 C 64.188 68.766,64.900 68.541,65.083 68.426 C 65.267 68.311,65.707 68.122,66.061 68.006 C 67.087 67.670,69.776 66.236,70.918 65.417 C 73.065 63.876,75.498 61.515,76.624 59.878 C 77.823 58.134,78.169 57.579,78.524 56.833 C 78.720 56.421,78.937 56.061,79.006 56.034 C 79.075 56.006,79.304 55.519,79.514 54.950 C 79.724 54.382,79.945 53.879,80.006 53.833 C 80.067 53.788,80.284 53.225,80.487 52.583 C 80.691 51.942,80.922 51.267,81.000 51.083 C 81.237 50.533,81.471 49.646,81.682 48.500 C 81.791 47.904,81.938 47.342,82.009 47.250 C 82.923 46.054,82.982 35.694,82.086 33.583 C 81.969 33.308,81.741 32.708,81.577 32.250 C 80.557 29.381,77.905 26.333,75.224 24.946 C 74.734 24.693,74.692 24.694,74.587 24.962 M302.138 34.328 C 303.726 34.412,305.114 34.550,305.221 34.634 C 305.329 34.718,305.839 34.918,306.355 35.077 C 307.228 35.346,308.196 36.084,308.990 37.084 C 309.963 38.312,309.866 42.853,308.817 45.137 C 308.551 45.716,308.333 46.248,308.333 46.319 C 308.333 46.933,305.191 49.325,304.375 49.332 C 304.260 49.333,304.167 49.395,304.167 49.471 C 304.167 49.806,301.840 50.045,297.824 50.121 L 293.564 50.202 293.918 47.643 C 294.113 46.235,294.320 44.971,294.377 44.833 C 294.435 44.696,294.642 43.308,294.838 41.750 C 295.034 40.192,295.258 38.767,295.337 38.583 C 295.415 38.400,295.567 37.590,295.675 36.782 C 296.035 34.077,296.201 34.014,302.138 34.328 M344.583 41.187 C 343.758 41.264,342.933 41.397,342.750 41.481 C 342.567 41.566,341.685 41.803,340.792 42.008 C 339.898 42.213,339.167 42.427,339.167 42.482 C 339.167 42.538,338.706 42.731,338.143 42.910 C 337.580 43.090,337.037 43.315,336.935 43.410 C 336.833 43.506,336.375 43.765,335.917 43.987 C 335.458 44.208,335.046 44.441,335.000 44.503 C 334.954 44.566,334.739 44.710,334.522 44.825 C 332.844 45.709,329.227 49.209,327.874 51.257 C 327.393 51.987,326.925 52.673,326.835 52.782 C 326.745 52.891,326.502 53.341,326.294 53.782 C 326.087 54.223,325.860 54.626,325.790 54.678 C 325.720 54.729,325.507 55.217,325.316 55.761 C 325.125 56.305,324.905 56.828,324.827 56.923 C 324.749 57.017,324.527 57.692,324.334 58.423 C 324.140 59.153,323.914 59.900,323.831 60.083 C 323.014 61.884,322.998 71.616,323.811 72.160 C 323.885 72.209,324.037 72.625,324.149 73.083 C 324.380 74.028,325.544 76.568,325.919 76.942 C 326.055 77.079,326.167 77.253,326.167 77.330 C 326.167 77.500,327.457 79.099,328.169 79.810 C 329.626 81.267,330.727 81.973,333.417 83.177 C 334.161 83.510,336.384 84.000,337.150 84.000 C 337.423 84.000,337.693 84.075,337.750 84.167 C 337.888 84.391,343.445 84.391,343.583 84.167 C 343.640 84.075,343.888 83.999,344.135 83.997 C 344.736 83.994,347.668 83.370,347.899 83.196 C 348.001 83.120,348.458 82.920,348.917 82.753 C 349.870 82.404,351.174 81.713,352.496 80.857 C 353.437 80.247,353.654 80.085,354.606 79.275 L 355.165 78.800 355.041 79.609 C 354.748 81.513,354.862 82.312,355.500 82.841 L 356.083 83.324 361.631 83.329 C 369.252 83.335,369.272 83.323,369.987 78.333 C 371.005 71.230,371.188 70.041,371.330 69.583 C 371.416 69.308,371.646 67.846,371.840 66.333 C 372.035 64.821,372.260 63.433,372.339 63.250 C 372.419 63.067,372.644 61.642,372.839 60.083 C 373.034 58.525,373.259 57.100,373.339 56.917 C 373.419 56.733,373.644 55.308,373.839 53.750 C 374.034 52.192,374.259 50.767,374.338 50.583 C 374.542 50.110,375.167 45.256,375.167 44.143 C 375.167 42.057,374.830 41.963,367.559 42.031 C 360.833 42.093,361.017 42.035,360.660 44.230 C 360.503 45.196,360.210 46.337,360.184 46.080 C 360.115 45.394,357.375 43.005,356.366 42.752 C 356.121 42.691,355.878 42.572,355.826 42.488 C 355.719 42.315,353.297 41.667,352.757 41.667 C 352.561 41.667,352.325 41.592,352.234 41.500 C 352.142 41.409,350.983 41.260,349.659 41.169 C 346.967 40.986,346.704 40.987,344.583 41.187 M351.885 52.910 C 353.016 53.112,353.995 53.499,355.213 54.225 C 360.916 57.627,358.575 68.866,351.581 71.668 C 351.032 71.888,350.508 72.121,350.417 72.185 C 349.954 72.510,348.010 72.705,345.958 72.632 C 339.809 72.415,336.773 67.946,338.328 61.399 C 338.520 60.591,338.733 59.889,338.801 59.840 C 338.870 59.790,339.073 59.413,339.252 59.000 C 339.845 57.637,342.152 55.019,342.995 54.751 C 343.181 54.692,343.333 54.572,343.333 54.485 C 343.333 54.397,343.502 54.260,343.708 54.181 C 343.915 54.102,344.509 53.841,345.030 53.602 C 346.862 52.761,349.534 52.491,351.885 52.910 " stroke="none" fill="#179bd7" fill-rule="evenodd"></path><path id="path2" d="" stroke="none" fill="#00ffff" fill-rule="evenodd"></path></g></svg>